<?xml version="1.0" encoding="utf-8" standalone="no"?>
<!DOCTYPE svg PUBLIC "-//W3C//DTD SVG 1.1//EN"
  "http://www.w3.org/Graphics/SVG/1.1/DTD/svg11.dtd">
<!-- Created with matplotlib (https://matplotlib.org/) -->
<svg height="288pt" version="1.1" viewBox="0 0 432 288" width="432pt" xmlns="http://www.w3.org/2000/svg" xmlns:xlink="http://www.w3.org/1999/xlink">
 <metadata>
  <rdf:RDF xmlns:cc="http://creativecommons.org/ns#" xmlns:dc="http://purl.org/dc/elements/1.1/" xmlns:rdf="http://www.w3.org/1999/02/22-rdf-syntax-ns#">
   <cc:Work>
    <dc:type rdf:resource="http://purl.org/dc/dcmitype/StillImage"/>
    <dc:date>2022-09-16T15:01:45.809363</dc:date>
    <dc:format>image/svg+xml</dc:format>
    <dc:creator>
     <cc:Agent>
      <dc:title>Matplotlib v3.3.2, https://matplotlib.org/</dc:title>
     </cc:Agent>
    </dc:creator>
   </cc:Work>
  </rdf:RDF>
 </metadata>
 <defs>
  <style type="text/css">*{stroke-linecap:butt;stroke-linejoin:round;}</style>
 </defs>
 <g id="figure_1">
  <g id="patch_1">
   <path d="M 0 288 
L 432 288 
L 432 0 
L 0 0 
z
" style="fill:#ffffff;"/>
  </g>
  <g id="axes_1">
   <g id="patch_2">
    <path d="M 50.2375 245.8875 
L 419.504 245.8875 
L 419.504 25.8 
L 50.2375 25.8 
z
" style="fill:#ffffff;"/>
   </g>
   <g id="PolyCollection_1">
    <defs>
     <path d="M 82.261687 -128.37624 
L 82.261687 -126.758588 
L 85.508446 -126.764419 
L 87.869725 -126.768413 
L 90.229745 -126.781672 
L 92.720941 -127.584108 
L 94.883088 -129.312309 
L 97.131574 -132.165804 
L 99.964731 -137.485956 
L 102.019131 -142.690287 
L 104.093994 -149.254269 
L 105.941247 -156.340802 
L 107.684704 -164.254293 
L 109.324195 -172.994341 
L 110.954289 -183.188775 
L 112.825055 -196.758776 
L 114.190019 -206.626436 
L 115.606858 -216.038404 
L 116.83022 -223.407698 
L 118.108353 -230.311074 
L 119.359751 -236.235169 
L 121.03859 -242.799472 
L 122.230134 -246.436872 
L 123.397875 -249.129976 
L 124.539493 -251.04357 
L 125.734413 -252.104005 
L 126.780577 -252.196023 
L 128.314236 -250.909218 
L 129.438559 -248.899933 
L 130.576882 -245.966481 
L 131.73193 -242.098159 
L 132.904919 -237.292091 
L 134.171293 -231.159199 
L 135.840607 -221.656812 
L 137.075728 -213.64156 
L 138.328145 -204.704137 
L 139.597526 -194.854768 
L 140.886075 -184.233635 
L 142.208762 -173.602918 
L 144.012271 -160.499394 
L 145.440098 -151.371706 
L 147.006918 -142.517674 
L 148.52638 -134.95516 
L 150.087339 -128.101226 
L 151.68777 -121.912981 
L 153.844872 -114.72836 
L 155.63524 -109.629706 
L 157.354158 -105.369032 
L 159.104282 -101.590011 
L 160.884112 -98.25606 
L 162.805783 -95.163095 
L 165.220816 -91.925795 
L 167.08955 -89.853647 
L 168.981761 -88.092538 
L 170.896233 -86.616906 
L 172.83174 -85.402868 
L 174.787507 -84.428139 
L 176.762362 -83.672192 
L 179.507099 -82.954345 
L 181.523452 -82.642348 
L 183.683524 -82.483714 
L 185.603692 -82.477484 
L 187.795252 -82.606404 
L 189.872115 -82.846112 
L 192.880351 -83.366985 
L 194.723902 -83.773235 
L 196.841735 -84.309603 
L 199.104099 -84.953645 
L 201.110286 -85.577078 
L 203.259815 -86.291251 
L 206.231027 -87.34314 
L 208.402571 -88.149889 
L 210.719174 -89.038112 
L 212.907928 -89.897579 
L 214.966845 -90.719345 
L 217.308146 -91.664759 
L 220.211285 -92.846208 
L 222.430887 -93.751604 
L 224.796069 -94.71491 
L 226.888634 -95.563035 
L 229.266275 -96.519393 
L 231.509716 -97.412568 
L 234.743697 -98.680841 
L 236.717127 -99.441582 
L 238.976883 -100.299292 
L 241.382758 -101.195502 
L 243.651468 -102.023579 
L 245.924247 -102.835759 
L 249.055574 -103.92527 
L 251.337303 -104.696874 
L 253.622535 -105.450665 
L 255.911021 -106.186005 
L 258.202679 -106.902973 
L 260.640901 -107.644144 
L 262.794952 -108.280438 
L 265.958662 -109.183917 
L 268.262651 -109.818613 
L 270.56912 -110.434777 
L 272.877952 -111.032411 
L 275.333592 -111.647457 
L 277.647015 -112.207629 
L 280.686504 -112.91613 
L 283.004573 -113.435804 
L 285.324509 -113.938465 
L 288.081694 -114.513813 
L 289.969596 -114.894263 
L 292.294662 -115.34804 
L 295.494179 -115.946552 
L 298.259625 -116.440665 
L 300.152935 -116.7668 
L 302.484348 -117.155397 
L 304.962894 -117.553101 
L 307.296914 -117.913502 
L 310.508069 -118.387886 
L 312.698738 -118.697726 
L 315.036417 -119.016512 
L 317.375195 -119.323476 
L 319.714869 -119.619097 
L 322.201835 -119.921109 
L 325.275339 -120.277676 
L 327.618021 -120.537593 
L 330.107959 -120.803022 
L 332.45223 -121.04289 
L 334.797232 -121.273732 
L 337.289612 -121.509287 
L 340.369142 -121.787016 
L 342.863474 -122.001643 
L 345.211078 -122.195583 
L 347.413022 -122.370511 
L 349.761927 -122.550153 
L 352.111409 -122.722765 
L 355.196059 -122.93915 
L 357.546352 -123.096506 
L 360.044838 -123.257057 
L 362.249379 -123.393086 
L 364.747946 -123.541176 
L 367.100761 -123.674889 
L 369.453575 -123.80333 
L 372.541644 -123.96428 
L 375.042734 -124.088408 
L 377.39685 -124.200474 
L 379.750966 -124.308067 
L 382.105088 -124.411347 
L 384.46018 -124.510474 
L 387.69888 -124.640432 
L 390.054303 -124.730452 
L 392.409721 -124.816878 
L 394.765224 -124.89987 
L 397.121942 -124.979426 
L 399.478667 -125.055868 
L 402.719159 -125.155953 
L 402.719159 -128.37624 
L 402.719159 -128.37624 
L 399.478667 -128.37624 
L 397.121942 -128.37624 
L 394.765224 -128.37624 
L 392.409721 -128.37624 
L 390.054303 -128.37624 
L 387.69888 -128.37624 
L 384.46018 -128.37624 
L 382.105088 -128.37624 
L 379.750966 -128.37624 
L 377.39685 -128.37624 
L 375.042734 -128.37624 
L 372.541644 -128.37624 
L 369.453575 -128.37624 
L 367.100761 -128.37624 
L 364.747946 -128.37624 
L 362.249379 -128.37624 
L 360.044838 -128.37624 
L 357.546352 -128.37624 
L 355.196059 -128.37624 
L 352.111409 -128.37624 
L 349.761927 -128.37624 
L 347.413022 -128.37624 
L 345.211078 -128.37624 
L 342.863474 -128.37624 
L 340.369142 -128.37624 
L 337.289612 -128.37624 
L 334.797232 -128.37624 
L 332.45223 -128.37624 
L 330.107959 -128.37624 
L 327.618021 -128.37624 
L 325.275339 -128.37624 
L 322.201835 -128.37624 
L 319.714869 -128.37624 
L 317.375195 -128.37624 
L 315.036417 -128.37624 
L 312.698738 -128.37624 
L 310.508069 -128.37624 
L 307.296914 -128.37624 
L 304.962894 -128.37624 
L 302.484348 -128.37624 
L 300.152935 -128.37624 
L 298.259625 -128.37624 
L 295.494179 -128.37624 
L 292.294662 -128.37624 
L 289.969596 -128.37624 
L 288.081694 -128.37624 
L 285.324509 -128.37624 
L 283.004573 -128.37624 
L 280.686504 -128.37624 
L 277.647015 -128.37624 
L 275.333592 -128.37624 
L 272.877952 -128.37624 
L 270.56912 -128.37624 
L 268.262651 -128.37624 
L 265.958662 -128.37624 
L 262.794952 -128.37624 
L 260.640901 -128.37624 
L 258.202679 -128.37624 
L 255.911021 -128.37624 
L 253.622535 -128.37624 
L 251.337303 -128.37624 
L 249.055574 -128.37624 
L 245.924247 -128.37624 
L 243.651468 -128.37624 
L 241.382758 -128.37624 
L 238.976883 -128.37624 
L 236.717127 -128.37624 
L 234.743697 -128.37624 
L 231.509716 -128.37624 
L 229.266275 -128.37624 
L 226.888634 -128.37624 
L 224.796069 -128.37624 
L 222.430887 -128.37624 
L 220.211285 -128.37624 
L 217.308146 -128.37624 
L 214.966845 -128.37624 
L 212.907928 -128.37624 
L 210.719174 -128.37624 
L 208.402571 -128.37624 
L 206.231027 -128.37624 
L 203.259815 -128.37624 
L 201.110286 -128.37624 
L 199.104099 -128.37624 
L 196.841735 -128.37624 
L 194.723902 -128.37624 
L 192.880351 -128.37624 
L 189.872115 -128.37624 
L 187.795252 -128.37624 
L 185.603692 -128.37624 
L 183.683524 -128.37624 
L 181.523452 -128.37624 
L 179.507099 -128.37624 
L 176.762362 -128.37624 
L 174.787507 -128.37624 
L 172.83174 -128.37624 
L 170.896233 -128.37624 
L 168.981761 -128.37624 
L 167.08955 -128.37624 
L 165.220816 -128.37624 
L 162.805783 -128.37624 
L 160.884112 -128.37624 
L 159.104282 -128.37624 
L 157.354158 -128.37624 
L 155.63524 -128.37624 
L 153.844872 -128.37624 
L 151.68777 -128.37624 
L 150.087339 -128.37624 
L 148.52638 -128.37624 
L 147.006918 -128.37624 
L 145.440098 -128.37624 
L 144.012271 -128.37624 
L 142.208762 -128.37624 
L 140.886075 -128.37624 
L 139.597526 -128.37624 
L 138.328145 -128.37624 
L 137.075728 -128.37624 
L 135.840607 -128.37624 
L 134.171293 -128.37624 
L 132.904919 -128.37624 
L 131.73193 -128.37624 
L 130.576882 -128.37624 
L 129.438559 -128.37624 
L 128.314236 -128.37624 
L 126.780577 -128.37624 
L 125.734413 -128.37624 
L 124.539493 -128.37624 
L 123.397875 -128.37624 
L 122.230134 -128.37624 
L 121.03859 -128.37624 
L 119.359751 -128.37624 
L 118.108353 -128.37624 
L 116.83022 -128.37624 
L 115.606858 -128.37624 
L 114.190019 -128.37624 
L 112.825055 -128.37624 
L 110.954289 -128.37624 
L 109.324195 -128.37624 
L 107.684704 -128.37624 
L 105.941247 -128.37624 
L 104.093994 -128.37624 
L 102.019131 -128.37624 
L 99.964731 -128.37624 
L 97.131574 -128.37624 
L 94.883088 -128.37624 
L 92.720941 -128.37624 
L 90.229745 -128.37624 
L 87.869725 -128.37624 
L 85.508446 -128.37624 
L 82.261687 -128.37624 
z
" id="ma2c6491a1d" style="stroke:#b85450;"/>
    </defs>
    <g clip-path="url(#p49dc3618f0)">
     <use style="fill:#b85450;stroke:#b85450;" x="0" xlink:href="#ma2c6491a1d" y="288"/>
    </g>
   </g>
   <g id="PolyCollection_2">
    <defs>
     <path d="M 67.022341 -128.37624 
L 67.022341 -128.16313 
L 67.275914 -128.163769 
L 67.608729 -128.164568 
L 67.878152 -128.165207 
L 68.131731 -128.165766 
L 68.385304 -128.166405 
L 68.638878 -128.167044 
L 68.908302 -128.167683 
L 69.14603 -128.168242 
L 69.494695 -128.169041 
L 69.748273 -128.16968 
L 70.001847 -128.170319 
L 70.255425 -128.170878 
L 70.524849 -128.171517 
L 70.762652 -128.172156 
L 71.111429 -128.172955 
L 71.365088 -128.173115 
L 71.618741 -128.173115 
L 71.8724 -128.173115 
L 72.141909 -128.173115 
L 72.395568 -128.173115 
L 72.728489 -128.173754 
L 72.982147 -128.173834 
L 73.236441 -128.115604 
L 73.499955 -127.89882 
L 73.801597 -127.247031 
L 74.134827 -126.028839 
L 74.698432 -123.175823 
L 74.978682 -121.531412 
L 75.45505 -118.543805 
L 75.921969 -115.478557 
L 76.507263 -111.552484 
L 77.116013 -107.496213 
L 78.005376 -101.811827 
L 78.803141 -97.035313 
L 79.618489 -92.477579 
L 80.496385 -87.914893 
L 81.436387 -83.391027 
L 82.437673 -78.941766 
L 83.912586 -73.000178 
L 85.055005 -68.839749 
L 86.254655 -64.837474 
L 87.590269 -60.773934 
L 88.81658 -57.32616 
L 90.171522 -54.406846 
L 92.168089 -52.201226 
L 93.471672 -52.116477 
L 94.9233 -53.148637 
L 96.166309 -55.020774 
L 97.443957 -58.044646 
L 98.667126 -62.143411 
L 99.833779 -67.325616 
L 101.411304 -76.689498 
L 102.378046 -84.010387 
L 103.364778 -92.433408 
L 104.32279 -100.599866 
L 105.376117 -108.976319 
L 106.236814 -115.187329 
L 107.41688 -122.715656 
L 108.296456 -127.599604 
L 109.158956 -131.816506 
L 110.056505 -135.638899 
L 110.883416 -138.68306 
L 111.693041 -141.250439 
L 112.729558 -143.985638 
L 113.499585 -145.647541 
L 114.29936 -147.066461 
L 115.035084 -148.116194 
L 115.75461 -148.923981 
L 116.458313 -149.520337 
L 117.358491 -150.027311 
L 118.026984 -150.23411 
L 118.721305 -150.309513 
L 119.360209 -150.263904 
L 119.985396 -150.121964 
L 120.597282 -149.897991 
L 121.41766 -149.479281 
L 121.9996 -149.108815 
L 122.534309 -148.720697 
L 123.128062 -148.242159 
L 123.675394 -147.761544 
L 124.211954 -147.258404 
L 124.932835 -146.539758 
L 125.445309 -146.004109 
L 125.948237 -145.462069 
L 126.441971 -144.917154 
L 126.956814 -144.338371 
L 127.40306 -143.830279 
L 127.871077 -143.293112 
L 128.50164 -142.565919 
L 128.979076 -142.015093 
L 129.420922 -141.507321 
L 129.828802 -141.041243 
L 130.257332 -140.555516 
L 130.705504 -140.053175 
L 131.249418 -139.452746 
L 131.656918 -139.010712 
L 132.058697 -138.582256 
L 132.454939 -138.167459 
L 132.84588 -137.766241 
L 133.255632 -137.354879 
L 133.754176 -136.867634 
L 134.1286 -136.511706 
L 134.544442 -136.126863 
L 134.909485 -135.798332 
L 135.247937 -135.501672 
L 135.605108 -135.196945 
L 136.111791 -134.779672 
L 136.438131 -134.520314 
L 136.761367 -134.270541 
L 137.1241 -133.998962 
L 137.462125 -133.753902 
L 137.79702 -133.518986 
L 138.231976 -133.225042 
L 138.580449 -132.998753 
L 138.925791 -132.782608 
L 139.228062 -132.599851 
L 139.547959 -132.412941 
L 139.865377 -132.233859 
L 140.317543 -131.989837 
L 140.60991 -131.838632 
L 140.938959 -131.674726 
L 141.227337 -131.53622 
L 141.552035 -131.386053 
L 141.836717 -131.25921 
L 142.138572 -131.129571 
L 142.550723 -130.960313 
L 142.848429 -130.843534 
L 143.144492 -130.731708 
L 143.438982 -130.624754 
L 143.731941 -130.522352 
L 144.02345 -130.424424 
L 144.42198 -130.296622 
L 144.710225 -130.208359 
L 144.997174 -130.12393 
L 145.30073 -130.038143 
L 145.585188 -129.961063 
L 145.868515 -129.887257 
L 146.238694 -129.79516 
L 146.589562 -129.712169 
L 146.799333 -129.664482 
L 147.078186 -129.603297 
L 147.373439 -129.541234 
L 147.650382 -129.48532 
L 148.012577 -129.415509 
L 148.304737 -129.361832 
L 148.561787 -129.316462 
L 148.852309 -129.267258 
L 149.124981 -129.222927 
L 149.396948 -129.180433 
L 149.752866 -129.127395 
L 150.040162 -129.086579 
L 150.309932 -129.049915 
L 150.5791 -129.01469 
L 150.847702 -128.980982 
L 151.115739 -128.948632 
L 151.483428 -128.906378 
L 151.750238 -128.877143 
L 152.016552 -128.849107 
L 152.282392 -128.822268 
L 152.5478 -128.796468 
L 152.82932 -128.770269 
L 153.077309 -128.748143 
L 153.4404 -128.717231 
L 153.704016 -128.695824 
L 153.967242 -128.675296 
L 154.230128 -128.655567 
L 154.492677 -128.636716 
L 154.754895 -128.618584 
L 155.114936 -128.594861 
L 155.376413 -128.578486 
L 155.637608 -128.562751 
L 155.89853 -128.547574 
L 156.175463 -128.532238 
L 156.43582 -128.51834 
L 156.777184 -128.500927 
L 157.037002 -128.488306 
L 157.312794 -128.475366 
L 157.555946 -128.464503 
L 157.831301 -128.452681 
L 158.090234 -128.441978 
L 158.4298 -128.428639 
L 158.688307 -128.418894 
L 158.962776 -128.409069 
L 159.22092 -128.400043 
L 159.478898 -128.391496 
L 159.752828 -128.38271 
L 160.090955 -128.372326 
L 160.332347 -128.365457 
L 160.589664 -128.358108 
L 160.862923 -128.350839 
L 161.119979 -128.34421 
L 161.376923 -128.337819 
L 161.730014 -128.329432 
L 162.002723 -128.323362 
L 162.243203 -128.31817 
L 162.499662 -128.312738 
L 162.756003 -128.307706 
L 163.012233 -128.302834 
L 163.380417 -128.295805 
L 163.620433 -128.291811 
L 163.876369 -128.287577 
L 164.132225 -128.283344 
L 164.403979 -128.27911 
L 164.643686 -128.275676 
L 164.899329 -128.272001 
L 165.250682 -128.266969 
L 165.522106 -128.263455 
L 165.761514 -128.260579 
L 166.016879 -128.257544 
L 166.288074 -128.254349 
L 166.543274 -128.251234 
L 166.910071 -128.247559 
L 167.14917 -128.245243 
L 167.388269 -128.243006 
L 167.659229 -128.240371 
L 167.914109 -128.237974 
L 168.184914 -128.235338 
L 168.51944 -128.232782 
L 168.790107 -128.230865 
L 169.012982 -128.229268 
L 169.267697 -128.227431 
L 169.538331 -128.225514 
L 169.792955 -128.223676 
L 170.127055 -128.22128 
L 170.381604 -128.219443 
L 170.636159 -128.218165 
L 170.954339 -128.216647 
L 171.14513 -128.215769 
L 171.415417 -128.214411 
L 171.749304 -128.212813 
L 172.019591 -128.211535 
L 172.273981 -128.210337 
L 172.52837 -128.209139 
L 172.798498 -128.207781 
L 173.036834 -128.206663 
L 173.370507 -128.205065 
L 173.640624 -128.203787 
L 173.894848 -128.203228 
L 174.196741 -128.202509 
L 174.196741 -128.37624 
L 174.196741 -128.37624 
L 173.894848 -128.37624 
L 173.640624 -128.37624 
L 173.370507 -128.37624 
L 173.036834 -128.37624 
L 172.798498 -128.37624 
L 172.52837 -128.37624 
L 172.273981 -128.37624 
L 172.019591 -128.37624 
L 171.749304 -128.37624 
L 171.415417 -128.37624 
L 171.14513 -128.37624 
L 170.954339 -128.37624 
L 170.636159 -128.37624 
L 170.381604 -128.37624 
L 170.127055 -128.37624 
L 169.792955 -128.37624 
L 169.538331 -128.37624 
L 169.267697 -128.37624 
L 169.012982 -128.37624 
L 168.790107 -128.37624 
L 168.51944 -128.37624 
L 168.184914 -128.37624 
L 167.914109 -128.37624 
L 167.659229 -128.37624 
L 167.388269 -128.37624 
L 167.14917 -128.37624 
L 166.910071 -128.37624 
L 166.543274 -128.37624 
L 166.288074 -128.37624 
L 166.016879 -128.37624 
L 165.761514 -128.37624 
L 165.522106 -128.37624 
L 165.250682 -128.37624 
L 164.899329 -128.37624 
L 164.643686 -128.37624 
L 164.403979 -128.37624 
L 164.132225 -128.37624 
L 163.876369 -128.37624 
L 163.620433 -128.37624 
L 163.380417 -128.37624 
L 163.012233 -128.37624 
L 162.756003 -128.37624 
L 162.499662 -128.37624 
L 162.243203 -128.37624 
L 162.002723 -128.37624 
L 161.730014 -128.37624 
L 161.376923 -128.37624 
L 161.119979 -128.37624 
L 160.862923 -128.37624 
L 160.589664 -128.37624 
L 160.332347 -128.37624 
L 160.090955 -128.37624 
L 159.752828 -128.37624 
L 159.478898 -128.37624 
L 159.22092 -128.37624 
L 158.962776 -128.37624 
L 158.688307 -128.37624 
L 158.4298 -128.37624 
L 158.090234 -128.37624 
L 157.831301 -128.37624 
L 157.555946 -128.37624 
L 157.312794 -128.37624 
L 157.037002 -128.37624 
L 156.777184 -128.37624 
L 156.43582 -128.37624 
L 156.175463 -128.37624 
L 155.89853 -128.37624 
L 155.637608 -128.37624 
L 155.376413 -128.37624 
L 155.114936 -128.37624 
L 154.754895 -128.37624 
L 154.492677 -128.37624 
L 154.230128 -128.37624 
L 153.967242 -128.37624 
L 153.704016 -128.37624 
L 153.4404 -128.37624 
L 153.077309 -128.37624 
L 152.82932 -128.37624 
L 152.5478 -128.37624 
L 152.282392 -128.37624 
L 152.016552 -128.37624 
L 151.750238 -128.37624 
L 151.483428 -128.37624 
L 151.115739 -128.37624 
L 150.847702 -128.37624 
L 150.5791 -128.37624 
L 150.309932 -128.37624 
L 150.040162 -128.37624 
L 149.752866 -128.37624 
L 149.396948 -128.37624 
L 149.124981 -128.37624 
L 148.852309 -128.37624 
L 148.561787 -128.37624 
L 148.304737 -128.37624 
L 148.012577 -128.37624 
L 147.650382 -128.37624 
L 147.373439 -128.37624 
L 147.078186 -128.37624 
L 146.799333 -128.37624 
L 146.589562 -128.37624 
L 146.238694 -128.37624 
L 145.868515 -128.37624 
L 145.585188 -128.37624 
L 145.30073 -128.37624 
L 144.997174 -128.37624 
L 144.710225 -128.37624 
L 144.42198 -128.37624 
L 144.02345 -128.37624 
L 143.731941 -128.37624 
L 143.438982 -128.37624 
L 143.144492 -128.37624 
L 142.848429 -128.37624 
L 142.550723 -128.37624 
L 142.138572 -128.37624 
L 141.836717 -128.37624 
L 141.552035 -128.37624 
L 141.227337 -128.37624 
L 140.938959 -128.37624 
L 140.60991 -128.37624 
L 140.317543 -128.37624 
L 139.865377 -128.37624 
L 139.547959 -128.37624 
L 139.228062 -128.37624 
L 138.925791 -128.37624 
L 138.580449 -128.37624 
L 138.231976 -128.37624 
L 137.79702 -128.37624 
L 137.462125 -128.37624 
L 137.1241 -128.37624 
L 136.761367 -128.37624 
L 136.438131 -128.37624 
L 136.111791 -128.37624 
L 135.605108 -128.37624 
L 135.247937 -128.37624 
L 134.909485 -128.37624 
L 134.544442 -128.37624 
L 134.1286 -128.37624 
L 133.754176 -128.37624 
L 133.255632 -128.37624 
L 132.84588 -128.37624 
L 132.454939 -128.37624 
L 132.058697 -128.37624 
L 131.656918 -128.37624 
L 131.249418 -128.37624 
L 130.705504 -128.37624 
L 130.257332 -128.37624 
L 129.828802 -128.37624 
L 129.420922 -128.37624 
L 128.979076 -128.37624 
L 128.50164 -128.37624 
L 127.871077 -128.37624 
L 127.40306 -128.37624 
L 126.956814 -128.37624 
L 126.441971 -128.37624 
L 125.948237 -128.37624 
L 125.445309 -128.37624 
L 124.932835 -128.37624 
L 124.211954 -128.37624 
L 123.675394 -128.37624 
L 123.128062 -128.37624 
L 122.534309 -128.37624 
L 121.9996 -128.37624 
L 121.41766 -128.37624 
L 120.597282 -128.37624 
L 119.985396 -128.37624 
L 119.360209 -128.37624 
L 118.721305 -128.37624 
L 118.026984 -128.37624 
L 117.358491 -128.37624 
L 116.458313 -128.37624 
L 115.75461 -128.37624 
L 115.035084 -128.37624 
L 114.29936 -128.37624 
L 113.499585 -128.37624 
L 112.729558 -128.37624 
L 111.693041 -128.37624 
L 110.883416 -128.37624 
L 110.056505 -128.37624 
L 109.158956 -128.37624 
L 108.296456 -128.37624 
L 107.41688 -128.37624 
L 106.236814 -128.37624 
L 105.376117 -128.37624 
L 104.32279 -128.37624 
L 103.364778 -128.37624 
L 102.378046 -128.37624 
L 101.411304 -128.37624 
L 99.833779 -128.37624 
L 98.667126 -128.37624 
L 97.443957 -128.37624 
L 96.166309 -128.37624 
L 94.9233 -128.37624 
L 93.471672 -128.37624 
L 92.168089 -128.37624 
L 90.171522 -128.37624 
L 88.81658 -128.37624 
L 87.590269 -128.37624 
L 86.254655 -128.37624 
L 85.055005 -128.37624 
L 83.912586 -128.37624 
L 82.437673 -128.37624 
L 81.436387 -128.37624 
L 80.496385 -128.37624 
L 79.618489 -128.37624 
L 78.803141 -128.37624 
L 78.005376 -128.37624 
L 77.116013 -128.37624 
L 76.507263 -128.37624 
L 75.921969 -128.37624 
L 75.45505 -128.37624 
L 74.978682 -128.37624 
L 74.698432 -128.37624 
L 74.134827 -128.37624 
L 73.801597 -128.37624 
L 73.499955 -128.37624 
L 73.236441 -128.37624 
L 72.982147 -128.37624 
L 72.728489 -128.37624 
L 72.395568 -128.37624 
L 72.141909 -128.37624 
L 71.8724 -128.37624 
L 71.618741 -128.37624 
L 71.365088 -128.37624 
L 71.111429 -128.37624 
L 70.762652 -128.37624 
L 70.524849 -128.37624 
L 70.255425 -128.37624 
L 70.001847 -128.37624 
L 69.748273 -128.37624 
L 69.494695 -128.37624 
L 69.14603 -128.37624 
L 68.908302 -128.37624 
L 68.638878 -128.37624 
L 68.385304 -128.37624 
L 68.131731 -128.37624 
L 67.878152 -128.37624 
L 67.608729 -128.37624 
L 67.275914 -128.37624 
L 67.022341 -128.37624 
z
" id="m71cc8209b2" style="stroke:#82b366;"/>
    </defs>
    <g clip-path="url(#p49dc3618f0)">
     <use style="fill:#82b366;stroke:#82b366;" x="0" xlink:href="#m71cc8209b2" y="288"/>
    </g>
   </g>
   <g id="matplotlib.axis_1">
    <g id="xtick_1">
     <g id="line2d_1">
      <defs>
       <path d="M 0 0 
L 0 3.5 
" id="mb83c47cb61" style="stroke:#000000;stroke-width:0.8;"/>
      </defs>
      <g>
       <use style="stroke:#000000;stroke-width:0.8;" x="72.782109" xlink:href="#mb83c47cb61" y="245.8875"/>
      </g>
     </g>
     <g id="text_1">
      <!-- 0 -->
      <g transform="translate(70.282109 259.83125)scale(0.1 -0.1)">
       <defs>
        <path d="M 3.609375 32.71875 
Q 3.609375 44.046875 7.03125 52.21875 
Q 10.453125 60.40625 16.109375 64.40625 
Q 20.515625 67.578125 25.203125 67.578125 
Q 32.8125 67.578125 38.875 59.8125 
Q 46.4375 50.203125 46.4375 33.734375 
Q 46.4375 22.21875 43.109375 14.15625 
Q 39.796875 6.109375 34.640625 2.46875 
Q 29.5 -1.171875 24.703125 -1.171875 
Q 15.234375 -1.171875 8.9375 10.015625 
Q 3.609375 19.4375 3.609375 32.71875 
z
M 13.1875 31.5 
Q 13.1875 17.828125 16.546875 9.1875 
Q 19.34375 1.90625 24.859375 1.90625 
Q 27.484375 1.90625 30.3125 4.265625 
Q 33.15625 6.640625 34.625 12.203125 
Q 36.859375 20.609375 36.859375 35.890625 
Q 36.859375 47.21875 34.515625 54.78125 
Q 32.765625 60.40625 29.984375 62.75 
Q 27.984375 64.359375 25.140625 64.359375 
Q 21.828125 64.359375 19.234375 61.375 
Q 15.71875 57.328125 14.453125 48.625 
Q 13.1875 39.9375 13.1875 31.5 
z
" id="TimesNewRomanPSMT-48"/>
       </defs>
       <use xlink:href="#TimesNewRomanPSMT-48"/>
      </g>
     </g>
    </g>
    <g id="xtick_2">
     <g id="line2d_2">
      <g>
       <use style="stroke:#000000;stroke-width:0.8;" x="126.11433" xlink:href="#mb83c47cb61" y="245.8875"/>
      </g>
     </g>
     <g id="text_2">
      <!-- 10 -->
      <g transform="translate(121.11433 259.83125)scale(0.1 -0.1)">
       <defs>
        <path d="M 11.71875 59.71875 
L 27.828125 67.578125 
L 29.4375 67.578125 
L 29.4375 11.671875 
Q 29.4375 6.109375 29.90625 4.734375 
Q 30.375 3.375 31.828125 2.640625 
Q 33.296875 1.90625 37.796875 1.8125 
L 37.796875 0 
L 12.890625 0 
L 12.890625 1.8125 
Q 17.578125 1.90625 18.9375 2.609375 
Q 20.3125 3.328125 20.84375 4.515625 
Q 21.390625 5.71875 21.390625 11.671875 
L 21.390625 47.40625 
Q 21.390625 54.640625 20.90625 56.6875 
Q 20.5625 58.25 19.65625 58.984375 
Q 18.75 59.71875 17.484375 59.71875 
Q 15.671875 59.71875 12.453125 58.203125 
z
" id="TimesNewRomanPSMT-49"/>
       </defs>
       <use xlink:href="#TimesNewRomanPSMT-49"/>
       <use x="50" xlink:href="#TimesNewRomanPSMT-48"/>
      </g>
     </g>
    </g>
    <g id="xtick_3">
     <g id="line2d_3">
      <g>
       <use style="stroke:#000000;stroke-width:0.8;" x="179.446551" xlink:href="#mb83c47cb61" y="245.8875"/>
      </g>
     </g>
     <g id="text_3">
      <!-- 20 -->
      <g transform="translate(174.446551 259.83125)scale(0.1 -0.1)">
       <defs>
        <path d="M 45.84375 12.75 
L 41.21875 0 
L 2.15625 0 
L 2.15625 1.8125 
Q 19.390625 17.53125 26.421875 27.484375 
Q 33.453125 37.453125 33.453125 45.703125 
Q 33.453125 52 29.59375 56.046875 
Q 25.734375 60.109375 20.359375 60.109375 
Q 15.484375 60.109375 11.59375 57.25 
Q 7.71875 54.390625 5.859375 48.875 
L 4.046875 48.875 
Q 5.28125 57.90625 10.328125 62.734375 
Q 15.375 67.578125 22.953125 67.578125 
Q 31 67.578125 36.390625 62.40625 
Q 41.796875 57.234375 41.796875 50.203125 
Q 41.796875 45.171875 39.453125 40.140625 
Q 35.84375 32.234375 27.734375 23.390625 
Q 15.578125 10.109375 12.546875 7.375 
L 29.828125 7.375 
Q 35.109375 7.375 37.234375 7.765625 
Q 39.359375 8.15625 41.0625 9.34375 
Q 42.78125 10.546875 44.046875 12.75 
z
" id="TimesNewRomanPSMT-50"/>
       </defs>
       <use xlink:href="#TimesNewRomanPSMT-50"/>
       <use x="50" xlink:href="#TimesNewRomanPSMT-48"/>
      </g>
     </g>
    </g>
    <g id="xtick_4">
     <g id="line2d_4">
      <g>
       <use style="stroke:#000000;stroke-width:0.8;" x="232.778772" xlink:href="#mb83c47cb61" y="245.8875"/>
      </g>
     </g>
     <g id="text_4">
      <!-- 30 -->
      <g transform="translate(227.778772 259.83125)scale(0.1 -0.1)">
       <defs>
        <path d="M 5.078125 53.609375 
Q 7.90625 60.296875 12.21875 63.9375 
Q 16.546875 67.578125 23 67.578125 
Q 30.953125 67.578125 35.203125 62.40625 
Q 38.421875 58.546875 38.421875 54.15625 
Q 38.421875 46.921875 29.34375 39.203125 
Q 35.453125 36.8125 38.578125 32.375 
Q 41.703125 27.9375 41.703125 21.921875 
Q 41.703125 13.328125 36.234375 7.03125 
Q 29.109375 -1.171875 15.578125 -1.171875 
Q 8.890625 -1.171875 6.46875 0.484375 
Q 4.046875 2.15625 4.046875 4.046875 
Q 4.046875 5.46875 5.1875 6.546875 
Q 6.34375 7.625 7.953125 7.625 
Q 9.1875 7.625 10.453125 7.234375 
Q 11.28125 6.984375 14.203125 5.4375 
Q 17.140625 3.90625 18.265625 3.609375 
Q 20.0625 3.078125 22.125 3.078125 
Q 27.09375 3.078125 30.78125 6.9375 
Q 34.46875 10.796875 34.46875 16.0625 
Q 34.46875 19.921875 32.765625 23.578125 
Q 31.5 26.3125 29.984375 27.734375 
Q 27.875 29.6875 24.21875 31.265625 
Q 20.5625 32.859375 16.75 32.859375 
L 15.1875 32.859375 
L 15.1875 34.328125 
Q 19.046875 34.8125 22.921875 37.109375 
Q 26.8125 39.40625 28.5625 42.625 
Q 30.328125 45.84375 30.328125 49.703125 
Q 30.328125 54.734375 27.171875 57.828125 
Q 24.03125 60.9375 19.34375 60.9375 
Q 11.765625 60.9375 6.6875 52.828125 
z
" id="TimesNewRomanPSMT-51"/>
       </defs>
       <use xlink:href="#TimesNewRomanPSMT-51"/>
       <use x="50" xlink:href="#TimesNewRomanPSMT-48"/>
      </g>
     </g>
    </g>
    <g id="xtick_5">
     <g id="line2d_5">
      <g>
       <use style="stroke:#000000;stroke-width:0.8;" x="286.110993" xlink:href="#mb83c47cb61" y="245.8875"/>
      </g>
     </g>
     <g id="text_5">
      <!-- 40 -->
      <g transform="translate(281.110993 259.83125)scale(0.1 -0.1)">
       <defs>
        <path d="M 46.53125 24.421875 
L 46.53125 17.484375 
L 37.640625 17.484375 
L 37.640625 0 
L 29.59375 0 
L 29.59375 17.484375 
L 1.5625 17.484375 
L 1.5625 23.734375 
L 32.28125 67.578125 
L 37.640625 67.578125 
L 37.640625 24.421875 
z
M 29.59375 24.421875 
L 29.59375 57.28125 
L 6.34375 24.421875 
z
" id="TimesNewRomanPSMT-52"/>
       </defs>
       <use xlink:href="#TimesNewRomanPSMT-52"/>
       <use x="50" xlink:href="#TimesNewRomanPSMT-48"/>
      </g>
     </g>
    </g>
    <g id="xtick_6">
     <g id="line2d_6">
      <g>
       <use style="stroke:#000000;stroke-width:0.8;" x="339.443215" xlink:href="#mb83c47cb61" y="245.8875"/>
      </g>
     </g>
     <g id="text_6">
      <!-- 50 -->
      <g transform="translate(334.443215 259.83125)scale(0.1 -0.1)">
       <defs>
        <path d="M 43.40625 66.21875 
L 39.59375 57.90625 
L 19.671875 57.90625 
L 15.328125 49.03125 
Q 28.265625 47.125 35.84375 39.40625 
Q 42.328125 32.765625 42.328125 23.78125 
Q 42.328125 18.5625 40.203125 14.109375 
Q 38.09375 9.671875 34.859375 6.546875 
Q 31.640625 3.421875 27.6875 1.515625 
Q 22.078125 -1.171875 16.15625 -1.171875 
Q 10.203125 -1.171875 7.484375 0.84375 
Q 4.78125 2.875 4.78125 5.328125 
Q 4.78125 6.6875 5.90625 7.734375 
Q 7.03125 8.796875 8.734375 8.796875 
Q 10.015625 8.796875 10.96875 8.40625 
Q 11.921875 8.015625 14.203125 6.390625 
Q 17.875 3.859375 21.625 3.859375 
Q 27.34375 3.859375 31.65625 8.171875 
Q 35.984375 12.5 35.984375 18.703125 
Q 35.984375 24.703125 32.125 29.90625 
Q 28.265625 35.109375 21.484375 37.9375 
Q 16.15625 40.140625 6.984375 40.484375 
L 19.671875 66.21875 
z
" id="TimesNewRomanPSMT-53"/>
       </defs>
       <use xlink:href="#TimesNewRomanPSMT-53"/>
       <use x="50" xlink:href="#TimesNewRomanPSMT-48"/>
      </g>
     </g>
    </g>
    <g id="xtick_7">
     <g id="line2d_7">
      <g>
       <use style="stroke:#000000;stroke-width:0.8;" x="392.775436" xlink:href="#mb83c47cb61" y="245.8875"/>
      </g>
     </g>
     <g id="text_7">
      <!-- 60 -->
      <g transform="translate(387.775436 259.83125)scale(0.1 -0.1)">
       <defs>
        <path d="M 44.828125 67.578125 
L 44.828125 65.765625 
Q 38.375 65.140625 34.296875 63.203125 
Q 30.21875 61.28125 26.234375 57.328125 
Q 22.265625 53.375 19.65625 48.515625 
Q 17.046875 43.65625 15.28125 36.96875 
Q 22.3125 41.796875 29.390625 41.796875 
Q 36.1875 41.796875 41.15625 36.328125 
Q 46.140625 30.859375 46.140625 22.265625 
Q 46.140625 13.96875 41.109375 7.125 
Q 35.0625 -1.171875 25.09375 -1.171875 
Q 18.3125 -1.171875 13.578125 3.328125 
Q 4.296875 12.0625 4.296875 25.984375 
Q 4.296875 34.859375 7.859375 42.859375 
Q 11.421875 50.875 18.03125 57.078125 
Q 24.65625 63.28125 30.703125 65.421875 
Q 36.765625 67.578125 42 67.578125 
z
M 14.453125 33.40625 
Q 13.578125 26.8125 13.578125 22.75 
Q 13.578125 18.0625 15.3125 12.5625 
Q 17.046875 7.078125 20.453125 3.859375 
Q 22.953125 1.5625 26.515625 1.5625 
Q 30.765625 1.5625 34.109375 5.5625 
Q 37.453125 9.578125 37.453125 17 
Q 37.453125 25.34375 34.125 31.4375 
Q 30.8125 37.546875 24.703125 37.546875 
Q 22.859375 37.546875 20.734375 36.765625 
Q 18.609375 35.984375 14.453125 33.40625 
z
" id="TimesNewRomanPSMT-54"/>
       </defs>
       <use xlink:href="#TimesNewRomanPSMT-54"/>
       <use x="50" xlink:href="#TimesNewRomanPSMT-48"/>
      </g>
     </g>
    </g>
    <g id="text_8">
     <!-- Distance (m) -->
     <g transform="translate(208.90825 272.914062)scale(0.1 -0.1)">
      <defs>
       <path d="M 1.703125 0 
L 1.703125 1.8125 
L 4.203125 1.8125 
Q 8.40625 1.8125 10.15625 4.5 
Q 11.234375 6.109375 11.234375 11.71875 
L 11.234375 54.5 
Q 11.234375 60.6875 9.859375 62.25 
Q 7.953125 64.40625 4.203125 64.40625 
L 1.703125 64.40625 
L 1.703125 66.21875 
L 28.65625 66.21875 
Q 43.5 66.21875 51.234375 62.84375 
Q 58.984375 59.46875 63.6875 51.609375 
Q 68.40625 43.75 68.40625 33.453125 
Q 68.40625 19.625 60.015625 10.359375 
Q 50.59375 0 31.296875 0 
z
M 20.609375 4.78125 
Q 26.8125 3.421875 31 3.421875 
Q 42.328125 3.421875 49.796875 11.375 
Q 57.28125 19.34375 57.28125 32.953125 
Q 57.28125 46.6875 49.796875 54.59375 
Q 42.328125 62.5 30.609375 62.5 
Q 26.21875 62.5 20.609375 61.078125 
z
" id="TimesNewRomanPSMT-68"/>
       <path d="M 14.5 69.4375 
Q 16.546875 69.4375 17.984375 67.984375 
Q 19.4375 66.546875 19.4375 64.5 
Q 19.4375 62.453125 17.984375 60.984375 
Q 16.546875 59.515625 14.5 59.515625 
Q 12.453125 59.515625 10.984375 60.984375 
Q 9.515625 62.453125 9.515625 64.5 
Q 9.515625 66.546875 10.953125 67.984375 
Q 12.40625 69.4375 14.5 69.4375 
z
M 18.5625 46.046875 
L 18.5625 10.109375 
Q 18.5625 5.90625 19.171875 4.515625 
Q 19.78125 3.125 20.96875 2.4375 
Q 22.171875 1.765625 25.34375 1.765625 
L 25.34375 0 
L 3.609375 0 
L 3.609375 1.765625 
Q 6.890625 1.765625 8 2.390625 
Q 9.125 3.03125 9.78125 4.484375 
Q 10.453125 5.953125 10.453125 10.109375 
L 10.453125 27.34375 
Q 10.453125 34.625 10.015625 36.765625 
Q 9.671875 38.328125 8.9375 38.9375 
Q 8.203125 39.546875 6.9375 39.546875 
Q 5.5625 39.546875 3.609375 38.8125 
L 2.9375 40.578125 
L 16.40625 46.046875 
z
" id="TimesNewRomanPSMT-105"/>
       <path d="M 32.03125 46.046875 
L 32.03125 30.8125 
L 30.421875 30.8125 
Q 28.5625 37.984375 25.65625 40.578125 
Q 22.75 43.171875 18.265625 43.171875 
Q 14.84375 43.171875 12.734375 41.359375 
Q 10.640625 39.546875 10.640625 37.359375 
Q 10.640625 34.625 12.203125 32.671875 
Q 13.71875 30.671875 18.359375 28.421875 
L 25.484375 24.953125 
Q 35.40625 20.125 35.40625 12.203125 
Q 35.40625 6.109375 30.78125 2.359375 
Q 26.171875 -1.375 20.453125 -1.375 
Q 16.359375 -1.375 11.078125 0.09375 
Q 9.46875 0.59375 8.453125 0.59375 
Q 7.328125 0.59375 6.6875 -0.6875 
L 5.078125 -0.6875 
L 5.078125 15.28125 
L 6.6875 15.28125 
Q 8.0625 8.453125 11.90625 4.984375 
Q 15.765625 1.515625 20.5625 1.515625 
Q 23.921875 1.515625 26.046875 3.484375 
Q 28.171875 5.46875 28.171875 8.25 
Q 28.171875 11.625 25.796875 13.921875 
Q 23.4375 16.21875 16.359375 19.734375 
Q 9.28125 23.25 7.078125 26.078125 
Q 4.890625 28.859375 4.890625 33.109375 
Q 4.890625 38.625 8.671875 42.328125 
Q 12.453125 46.046875 18.453125 46.046875 
Q 21.09375 46.046875 24.859375 44.921875 
Q 27.34375 44.1875 28.171875 44.1875 
Q 28.953125 44.1875 29.390625 44.53125 
Q 29.828125 44.875 30.421875 46.046875 
z
" id="TimesNewRomanPSMT-115"/>
       <path d="M 16.109375 59.421875 
L 16.109375 44.734375 
L 26.5625 44.734375 
L 26.5625 41.3125 
L 16.109375 41.3125 
L 16.109375 12.3125 
Q 16.109375 7.953125 17.359375 6.4375 
Q 18.609375 4.9375 20.5625 4.9375 
Q 22.171875 4.9375 23.6875 5.9375 
Q 25.203125 6.9375 26.03125 8.890625 
L 27.9375 8.890625 
Q 26.21875 4.109375 23.09375 1.6875 
Q 19.96875 -0.734375 16.65625 -0.734375 
Q 14.40625 -0.734375 12.25 0.515625 
Q 10.109375 1.765625 9.078125 4.078125 
Q 8.0625 6.390625 8.0625 11.234375 
L 8.0625 41.3125 
L 0.984375 41.3125 
L 0.984375 42.921875 
Q 3.65625 44 6.46875 46.5625 
Q 9.28125 49.125 11.46875 52.640625 
Q 12.59375 54.5 14.59375 59.421875 
z
" id="TimesNewRomanPSMT-116"/>
       <path d="M 28.46875 6.453125 
Q 21.578125 1.125 19.828125 0.296875 
Q 17.1875 -0.921875 14.203125 -0.921875 
Q 9.578125 -0.921875 6.5625 2.25 
Q 3.5625 5.421875 3.5625 10.59375 
Q 3.5625 13.875 5.03125 16.265625 
Q 7.03125 19.578125 11.984375 22.5 
Q 16.9375 25.4375 28.46875 29.640625 
L 28.46875 31.390625 
Q 28.46875 38.09375 26.34375 40.578125 
Q 24.21875 43.0625 20.171875 43.0625 
Q 17.09375 43.0625 15.28125 41.40625 
Q 13.421875 39.75 13.421875 37.59375 
L 13.53125 34.765625 
Q 13.53125 32.515625 12.375 31.296875 
Q 11.234375 30.078125 9.375 30.078125 
Q 7.5625 30.078125 6.421875 31.34375 
Q 5.28125 32.625 5.28125 34.8125 
Q 5.28125 39.015625 9.578125 42.53125 
Q 13.875 46.046875 21.625 46.046875 
Q 27.59375 46.046875 31.390625 44.046875 
Q 34.28125 42.53125 35.640625 39.3125 
Q 36.53125 37.203125 36.53125 30.71875 
L 36.53125 15.53125 
Q 36.53125 9.125 36.765625 7.6875 
Q 37.015625 6.25 37.578125 5.765625 
Q 38.140625 5.28125 38.875 5.28125 
Q 39.65625 5.28125 40.234375 5.609375 
Q 41.265625 6.25 44.1875 9.1875 
L 44.1875 6.453125 
Q 38.71875 -0.875 33.734375 -0.875 
Q 31.34375 -0.875 29.921875 0.78125 
Q 28.515625 2.4375 28.46875 6.453125 
z
M 28.46875 9.625 
L 28.46875 26.65625 
Q 21.09375 23.734375 18.953125 22.515625 
Q 15.09375 20.359375 13.421875 18.015625 
Q 11.765625 15.671875 11.765625 12.890625 
Q 11.765625 9.375 13.859375 7.046875 
Q 15.96875 4.734375 18.703125 4.734375 
Q 22.40625 4.734375 28.46875 9.625 
z
" id="TimesNewRomanPSMT-97"/>
       <path d="M 16.15625 36.578125 
Q 24.03125 46.046875 31.15625 46.046875 
Q 34.8125 46.046875 37.453125 44.21875 
Q 40.09375 42.390625 41.65625 38.1875 
Q 42.71875 35.25 42.71875 29.203125 
L 42.71875 10.109375 
Q 42.71875 5.859375 43.40625 4.34375 
Q 43.953125 3.125 45.140625 2.4375 
Q 46.34375 1.765625 49.5625 1.765625 
L 49.5625 0 
L 27.4375 0 
L 27.4375 1.765625 
L 28.375 1.765625 
Q 31.5 1.765625 32.734375 2.703125 
Q 33.984375 3.65625 34.46875 5.515625 
Q 34.671875 6.25 34.671875 10.109375 
L 34.671875 28.421875 
Q 34.671875 34.515625 33.078125 37.28125 
Q 31.5 40.046875 27.734375 40.046875 
Q 21.921875 40.046875 16.15625 33.6875 
L 16.15625 10.109375 
Q 16.15625 5.5625 16.703125 4.5 
Q 17.390625 3.078125 18.578125 2.421875 
Q 19.78125 1.765625 23.4375 1.765625 
L 23.4375 0 
L 1.3125 0 
L 1.3125 1.765625 
L 2.296875 1.765625 
Q 5.71875 1.765625 6.90625 3.484375 
Q 8.109375 5.21875 8.109375 10.109375 
L 8.109375 26.703125 
Q 8.109375 34.765625 7.734375 36.515625 
Q 7.375 38.28125 6.609375 38.90625 
Q 5.859375 39.546875 4.59375 39.546875 
Q 3.21875 39.546875 1.3125 38.8125 
L 0.59375 40.578125 
L 14.0625 46.046875 
L 16.15625 46.046875 
z
" id="TimesNewRomanPSMT-110"/>
       <path d="M 41.109375 17 
Q 39.3125 8.15625 34.03125 3.390625 
Q 28.765625 -1.375 22.359375 -1.375 
Q 14.75 -1.375 9.078125 5.015625 
Q 3.421875 11.421875 3.421875 22.3125 
Q 3.421875 32.859375 9.6875 39.453125 
Q 15.96875 46.046875 24.75 46.046875 
Q 31.34375 46.046875 35.59375 42.546875 
Q 39.84375 39.0625 39.84375 35.296875 
Q 39.84375 33.453125 38.640625 32.296875 
Q 37.453125 31.15625 35.296875 31.15625 
Q 32.421875 31.15625 30.953125 33.015625 
Q 30.125 34.03125 29.859375 36.90625 
Q 29.59375 39.796875 27.875 41.3125 
Q 26.171875 42.78125 23.140625 42.78125 
Q 18.265625 42.78125 15.28125 39.15625 
Q 11.328125 34.375 11.328125 26.515625 
Q 11.328125 18.5 15.25 12.375 
Q 19.1875 6.25 25.875 6.25 
Q 30.671875 6.25 34.46875 9.515625 
Q 37.15625 11.765625 39.703125 17.671875 
z
" id="TimesNewRomanPSMT-99"/>
       <path d="M 10.640625 27.875 
Q 10.59375 17.921875 15.484375 12.25 
Q 20.359375 6.59375 26.953125 6.59375 
Q 31.34375 6.59375 34.59375 9 
Q 37.84375 11.421875 40.046875 17.28125 
L 41.546875 16.3125 
Q 40.53125 9.625 35.59375 4.125 
Q 30.671875 -1.375 23.25 -1.375 
Q 15.1875 -1.375 9.453125 4.90625 
Q 3.71875 11.1875 3.71875 21.78125 
Q 3.71875 33.25 9.59375 39.671875 
Q 15.484375 46.09375 24.359375 46.09375 
Q 31.890625 46.09375 36.71875 41.140625 
Q 41.546875 36.1875 41.546875 27.875 
z
M 10.640625 30.71875 
L 31.34375 30.71875 
Q 31.109375 35.015625 30.328125 36.765625 
Q 29.109375 39.5 26.6875 41.0625 
Q 24.265625 42.625 21.625 42.625 
Q 17.578125 42.625 14.375 39.46875 
Q 11.1875 36.328125 10.640625 30.71875 
z
" id="TimesNewRomanPSMT-101"/>
       <path id="TimesNewRomanPSMT-32"/>
       <path d="M 31.0625 -19.578125 
L 31.0625 -21.390625 
Q 23.6875 -17.671875 18.75 -12.703125 
Q 11.71875 -5.609375 7.90625 4 
Q 4.109375 13.625 4.109375 23.96875 
Q 4.109375 39.109375 11.578125 51.578125 
Q 19.046875 64.0625 31.0625 69.4375 
L 31.0625 67.390625 
Q 25.046875 64.0625 21.1875 58.296875 
Q 17.328125 52.546875 15.421875 43.703125 
Q 13.53125 34.859375 13.53125 25.25 
Q 13.53125 14.796875 15.140625 6.25 
Q 16.40625 -0.484375 18.203125 -4.5625 
Q 20.015625 -8.640625 23.0625 -12.390625 
Q 26.125 -16.15625 31.0625 -19.578125 
z
" id="TimesNewRomanPSMT-40"/>
       <path d="M 16.40625 36.53125 
Q 21.296875 41.40625 22.171875 42.140625 
Q 24.359375 44 26.890625 45.015625 
Q 29.4375 46.046875 31.9375 46.046875 
Q 36.140625 46.046875 39.15625 43.59375 
Q 42.1875 41.15625 43.21875 36.53125 
Q 48.25 42.390625 51.703125 44.21875 
Q 55.171875 46.046875 58.84375 46.046875 
Q 62.40625 46.046875 65.15625 44.21875 
Q 67.921875 42.390625 69.53125 38.234375 
Q 70.609375 35.40625 70.609375 29.34375 
L 70.609375 10.109375 
Q 70.609375 5.90625 71.234375 4.34375 
Q 71.734375 3.265625 73.046875 2.515625 
Q 74.359375 1.765625 77.34375 1.765625 
L 77.34375 0 
L 55.28125 0 
L 55.28125 1.765625 
L 56.203125 1.765625 
Q 59.078125 1.765625 60.6875 2.875 
Q 61.8125 3.65625 62.3125 5.375 
Q 62.5 6.203125 62.5 10.109375 
L 62.5 29.34375 
Q 62.5 34.8125 61.1875 37.0625 
Q 59.28125 40.1875 55.078125 40.1875 
Q 52.484375 40.1875 49.875 38.890625 
Q 47.265625 37.59375 43.5625 34.078125 
L 43.453125 33.546875 
L 43.5625 31.453125 
L 43.5625 10.109375 
Q 43.5625 5.515625 44.0625 4.390625 
Q 44.578125 3.265625 45.984375 2.515625 
Q 47.40625 1.765625 50.828125 1.765625 
L 50.828125 0 
L 28.21875 0 
L 28.21875 1.765625 
Q 31.9375 1.765625 33.328125 2.640625 
Q 34.71875 3.515625 35.25 5.28125 
Q 35.5 6.109375 35.5 10.109375 
L 35.5 29.34375 
Q 35.5 34.8125 33.890625 37.203125 
Q 31.734375 40.328125 27.875 40.328125 
Q 25.25 40.328125 22.65625 38.921875 
Q 18.609375 36.765625 16.40625 34.078125 
L 16.40625 10.109375 
Q 16.40625 5.71875 17.015625 4.390625 
Q 17.625 3.078125 18.8125 2.421875 
Q 20.015625 1.765625 23.6875 1.765625 
L 23.6875 0 
L 1.5625 0 
L 1.5625 1.765625 
Q 4.640625 1.765625 5.859375 2.421875 
Q 7.078125 3.078125 7.703125 4.515625 
Q 8.34375 5.953125 8.34375 10.109375 
L 8.34375 27.203125 
Q 8.34375 34.578125 7.90625 36.71875 
Q 7.5625 38.328125 6.828125 38.9375 
Q 6.109375 39.546875 4.828125 39.546875 
Q 3.46875 39.546875 1.5625 38.8125 
L 0.828125 40.578125 
L 14.3125 46.046875 
L 16.40625 46.046875 
z
" id="TimesNewRomanPSMT-109"/>
       <path d="M 2.25 67.390625 
L 2.25 69.4375 
Q 9.671875 65.765625 14.59375 60.796875 
Q 21.578125 53.65625 25.390625 44.0625 
Q 29.203125 34.46875 29.203125 24.078125 
Q 29.203125 8.9375 21.75 -3.53125 
Q 14.3125 -16.015625 2.25 -21.390625 
L 2.25 -19.578125 
Q 8.25 -16.21875 12.125 -10.46875 
Q 16.015625 -4.734375 17.890625 4.125 
Q 19.78125 12.984375 19.78125 22.609375 
Q 19.78125 33.015625 18.171875 41.609375 
Q 16.9375 48.34375 15.109375 52.390625 
Q 13.28125 56.453125 10.25 60.203125 
Q 7.234375 63.96875 2.25 67.390625 
z
" id="TimesNewRomanPSMT-41"/>
      </defs>
      <use xlink:href="#TimesNewRomanPSMT-68"/>
      <use x="72.216797" xlink:href="#TimesNewRomanPSMT-105"/>
      <use x="100" xlink:href="#TimesNewRomanPSMT-115"/>
      <use x="138.916016" xlink:href="#TimesNewRomanPSMT-116"/>
      <use x="166.699219" xlink:href="#TimesNewRomanPSMT-97"/>
      <use x="211.083984" xlink:href="#TimesNewRomanPSMT-110"/>
      <use x="261.083984" xlink:href="#TimesNewRomanPSMT-99"/>
      <use x="305.46875" xlink:href="#TimesNewRomanPSMT-101"/>
      <use x="349.853516" xlink:href="#TimesNewRomanPSMT-32"/>
      <use x="374.853516" xlink:href="#TimesNewRomanPSMT-40"/>
      <use x="408.154297" xlink:href="#TimesNewRomanPSMT-109"/>
      <use x="485.9375" xlink:href="#TimesNewRomanPSMT-41"/>
     </g>
    </g>
   </g>
   <g id="matplotlib.axis_2">
    <g id="ytick_1">
     <g id="line2d_8">
      <defs>
       <path d="M 0 0 
L -3.5 0 
" id="m53d85e1b3f" style="stroke:#000000;stroke-width:0.8;"/>
      </defs>
      <g>
       <use style="stroke:#000000;stroke-width:0.8;" x="50.2375" xlink:href="#m53d85e1b3f" y="239.499916"/>
      </g>
     </g>
     <g id="text_9">
      <!-- −1.0 -->
      <g transform="translate(25.098438 242.971791)scale(0.1 -0.1)">
       <defs>
        <path d="M 54.4375 31.25 
L 1.8125 31.25 
L 1.8125 35.25 
L 54.4375 35.25 
z
" id="TimesNewRomanPSMT-8722"/>
        <path d="M 12.5 9.46875 
Q 14.796875 9.46875 16.359375 7.875 
Q 17.921875 6.296875 17.921875 4.046875 
Q 17.921875 1.8125 16.328125 0.21875 
Q 14.75 -1.375 12.5 -1.375 
Q 10.25 -1.375 8.65625 0.21875 
Q 7.078125 1.8125 7.078125 4.046875 
Q 7.078125 6.34375 8.65625 7.90625 
Q 10.25 9.46875 12.5 9.46875 
z
" id="TimesNewRomanPSMT-46"/>
       </defs>
       <use xlink:href="#TimesNewRomanPSMT-8722"/>
       <use x="56.396484" xlink:href="#TimesNewRomanPSMT-49"/>
       <use x="106.396484" xlink:href="#TimesNewRomanPSMT-46"/>
       <use x="131.396484" xlink:href="#TimesNewRomanPSMT-48"/>
      </g>
     </g>
    </g>
    <g id="ytick_2">
     <g id="line2d_9">
      <g>
       <use style="stroke:#000000;stroke-width:0.8;" x="50.2375" xlink:href="#m53d85e1b3f" y="199.561838"/>
      </g>
     </g>
     <g id="text_10">
      <!-- −0.5 -->
      <g transform="translate(25.098438 203.033713)scale(0.1 -0.1)">
       <use xlink:href="#TimesNewRomanPSMT-8722"/>
       <use x="56.396484" xlink:href="#TimesNewRomanPSMT-48"/>
       <use x="106.396484" xlink:href="#TimesNewRomanPSMT-46"/>
       <use x="131.396484" xlink:href="#TimesNewRomanPSMT-53"/>
      </g>
     </g>
    </g>
    <g id="ytick_3">
     <g id="line2d_10">
      <g>
       <use style="stroke:#000000;stroke-width:0.8;" x="50.2375" xlink:href="#m53d85e1b3f" y="159.62376"/>
      </g>
     </g>
     <g id="text_11">
      <!-- 0.0 -->
      <g transform="translate(30.7375 163.095635)scale(0.1 -0.1)">
       <use xlink:href="#TimesNewRomanPSMT-48"/>
       <use x="50" xlink:href="#TimesNewRomanPSMT-46"/>
       <use x="75" xlink:href="#TimesNewRomanPSMT-48"/>
      </g>
     </g>
    </g>
    <g id="ytick_4">
     <g id="line2d_11">
      <g>
       <use style="stroke:#000000;stroke-width:0.8;" x="50.2375" xlink:href="#m53d85e1b3f" y="119.685682"/>
      </g>
     </g>
     <g id="text_12">
      <!-- 0.5 -->
      <g transform="translate(30.7375 123.157557)scale(0.1 -0.1)">
       <use xlink:href="#TimesNewRomanPSMT-48"/>
       <use x="50" xlink:href="#TimesNewRomanPSMT-46"/>
       <use x="75" xlink:href="#TimesNewRomanPSMT-53"/>
      </g>
     </g>
    </g>
    <g id="ytick_5">
     <g id="line2d_12">
      <g>
       <use style="stroke:#000000;stroke-width:0.8;" x="50.2375" xlink:href="#m53d85e1b3f" y="79.747605"/>
      </g>
     </g>
     <g id="text_13">
      <!-- 1.0 -->
      <g transform="translate(30.7375 83.21948)scale(0.1 -0.1)">
       <use xlink:href="#TimesNewRomanPSMT-49"/>
       <use x="50" xlink:href="#TimesNewRomanPSMT-46"/>
       <use x="75" xlink:href="#TimesNewRomanPSMT-48"/>
      </g>
     </g>
    </g>
    <g id="ytick_6">
     <g id="line2d_13">
      <g>
       <use style="stroke:#000000;stroke-width:0.8;" x="50.2375" xlink:href="#m53d85e1b3f" y="39.809527"/>
      </g>
     </g>
     <g id="text_14">
      <!-- 1.5 -->
      <g transform="translate(30.7375 43.281402)scale(0.1 -0.1)">
       <use xlink:href="#TimesNewRomanPSMT-49"/>
       <use x="50" xlink:href="#TimesNewRomanPSMT-46"/>
       <use x="75" xlink:href="#TimesNewRomanPSMT-53"/>
      </g>
     </g>
    </g>
    <g id="text_15">
     <!-- Hight (m) -->
     <g transform="translate(18.940625 155.701562)rotate(-90)scale(0.1 -0.1)">
      <defs>
       <path d="M 20.5625 35.5 
L 51.3125 35.5 
L 51.3125 54.4375 
Q 51.3125 59.515625 50.6875 61.140625 
Q 50.203125 62.359375 48.640625 63.234375 
Q 46.53125 64.40625 44.1875 64.40625 
L 41.84375 64.40625 
L 41.84375 66.21875 
L 70.171875 66.21875 
L 70.171875 64.40625 
L 67.828125 64.40625 
Q 65.484375 64.40625 63.375 63.28125 
Q 61.8125 62.5 61.25 60.90625 
Q 60.6875 59.328125 60.6875 54.4375 
L 60.6875 11.71875 
Q 60.6875 6.6875 61.328125 5.078125 
Q 61.8125 3.859375 63.328125 2.984375 
Q 65.484375 1.8125 67.828125 1.8125 
L 70.171875 1.8125 
L 70.171875 0 
L 41.84375 0 
L 41.84375 1.8125 
L 44.1875 1.8125 
Q 48.25 1.8125 50.09375 4.203125 
Q 51.3125 5.765625 51.3125 11.71875 
L 51.3125 31.890625 
L 20.5625 31.890625 
L 20.5625 11.71875 
Q 20.5625 6.6875 21.1875 5.078125 
Q 21.6875 3.859375 23.25 2.984375 
Q 25.34375 1.8125 27.6875 1.8125 
L 30.078125 1.8125 
L 30.078125 0 
L 1.703125 0 
L 1.703125 1.8125 
L 4.046875 1.8125 
Q 8.15625 1.8125 10.015625 4.203125 
Q 11.1875 5.765625 11.1875 11.71875 
L 11.1875 54.4375 
Q 11.1875 59.515625 10.546875 61.140625 
Q 10.0625 62.359375 8.546875 63.234375 
Q 6.390625 64.40625 4.046875 64.40625 
L 1.703125 64.40625 
L 1.703125 66.21875 
L 30.078125 66.21875 
L 30.078125 64.40625 
L 27.6875 64.40625 
Q 25.34375 64.40625 23.25 63.28125 
Q 21.734375 62.5 21.140625 60.90625 
Q 20.5625 59.328125 20.5625 54.4375 
z
" id="TimesNewRomanPSMT-72"/>
       <path d="M 15.09375 16.3125 
Q 10.984375 18.3125 8.78125 21.890625 
Q 6.59375 25.484375 6.59375 29.828125 
Q 6.59375 36.46875 11.59375 41.25 
Q 16.609375 46.046875 24.421875 46.046875 
Q 30.8125 46.046875 35.5 42.921875 
L 44.96875 42.921875 
Q 47.078125 42.921875 47.40625 42.796875 
Q 47.75 42.671875 47.90625 42.390625 
Q 48.1875 41.9375 48.1875 40.828125 
Q 48.1875 39.546875 47.953125 39.0625 
Q 47.796875 38.8125 47.4375 38.671875 
Q 47.078125 38.53125 44.96875 38.53125 
L 39.15625 38.53125 
Q 41.890625 35.015625 41.890625 29.546875 
Q 41.890625 23.296875 37.109375 18.84375 
Q 32.328125 14.40625 24.265625 14.40625 
Q 20.953125 14.40625 17.484375 15.375 
Q 15.328125 13.53125 14.5625 12.140625 
Q 13.8125 10.75 13.8125 9.765625 
Q 13.8125 8.9375 14.625 8.15625 
Q 15.4375 7.375 17.78125 7.03125 
Q 19.140625 6.84375 24.609375 6.6875 
Q 34.671875 6.453125 37.640625 6 
Q 42.1875 5.375 44.890625 2.640625 
Q 47.609375 -0.09375 47.609375 -4.109375 
Q 47.609375 -9.625 42.4375 -14.453125 
Q 34.8125 -21.578125 22.5625 -21.578125 
Q 13.140625 -21.578125 6.640625 -17.328125 
Q 2.984375 -14.890625 2.984375 -12.25 
Q 2.984375 -11.078125 3.515625 -9.90625 
Q 4.34375 -8.109375 6.9375 -4.890625 
Q 7.28125 -4.4375 11.921875 0.390625 
Q 9.375 1.90625 8.328125 3.09375 
Q 7.28125 4.296875 7.28125 5.8125 
Q 7.28125 7.515625 8.671875 9.8125 
Q 10.0625 12.109375 15.09375 16.3125 
z
M 23.578125 43.703125 
Q 19.96875 43.703125 17.53125 40.8125 
Q 15.09375 37.9375 15.09375 31.984375 
Q 15.09375 24.265625 18.40625 20.015625 
Q 20.953125 16.796875 24.859375 16.796875 
Q 28.5625 16.796875 30.953125 19.578125 
Q 33.34375 22.359375 33.34375 28.328125 
Q 33.34375 36.078125 29.984375 40.484375 
Q 27.484375 43.703125 23.578125 43.703125 
z
M 14.59375 0 
Q 12.3125 -2.484375 11.140625 -4.625 
Q 9.96875 -6.78125 9.96875 -8.59375 
Q 9.96875 -10.9375 12.796875 -12.703125 
Q 17.671875 -15.71875 26.90625 -15.71875 
Q 35.6875 -15.71875 39.859375 -12.609375 
Q 44.046875 -9.515625 44.046875 -6 
Q 44.046875 -3.46875 41.546875 -2.390625 
Q 39.015625 -1.3125 31.5 -1.125 
Q 20.515625 -0.828125 14.59375 0 
z
" id="TimesNewRomanPSMT-103"/>
       <path d="M 16.265625 69.4375 
L 16.265625 36.71875 
Q 21.6875 42.671875 24.859375 44.359375 
Q 28.03125 46.046875 31.203125 46.046875 
Q 35.015625 46.046875 37.75 43.9375 
Q 40.484375 41.84375 41.796875 37.359375 
Q 42.71875 34.234375 42.71875 25.921875 
L 42.71875 10.109375 
Q 42.71875 5.859375 43.40625 4.296875 
Q 43.890625 3.125 45.0625 2.4375 
Q 46.234375 1.765625 49.359375 1.765625 
L 49.359375 0 
L 27.390625 0 
L 27.390625 1.765625 
L 28.421875 1.765625 
Q 31.546875 1.765625 32.765625 2.703125 
Q 33.984375 3.65625 34.46875 5.515625 
Q 34.625 6.296875 34.625 10.109375 
L 34.625 25.921875 
Q 34.625 33.25 33.859375 35.546875 
Q 33.109375 37.84375 31.4375 38.984375 
Q 29.78125 40.140625 27.4375 40.140625 
Q 25.046875 40.140625 22.453125 38.859375 
Q 19.875 37.59375 16.265625 33.734375 
L 16.265625 10.109375 
Q 16.265625 5.515625 16.765625 4.390625 
Q 17.28125 3.265625 18.671875 2.515625 
Q 20.0625 1.765625 23.484375 1.765625 
L 23.484375 0 
L 1.3125 0 
L 1.3125 1.765625 
Q 4.296875 1.765625 6 2.6875 
Q 6.984375 3.171875 7.5625 4.53125 
Q 8.15625 5.90625 8.15625 10.109375 
L 8.15625 50.59375 
Q 8.15625 58.25 7.78125 60 
Q 7.421875 61.765625 6.65625 62.390625 
Q 5.90625 63.03125 4.640625 63.03125 
Q 3.609375 63.03125 1.3125 62.25 
L 0.640625 63.96875 
L 14.015625 69.4375 
z
" id="TimesNewRomanPSMT-104"/>
      </defs>
      <use xlink:href="#TimesNewRomanPSMT-72"/>
      <use x="72.216797" xlink:href="#TimesNewRomanPSMT-105"/>
      <use x="100" xlink:href="#TimesNewRomanPSMT-103"/>
      <use x="150" xlink:href="#TimesNewRomanPSMT-104"/>
      <use x="200" xlink:href="#TimesNewRomanPSMT-116"/>
      <use x="227.783203" xlink:href="#TimesNewRomanPSMT-32"/>
      <use x="252.783203" xlink:href="#TimesNewRomanPSMT-40"/>
      <use x="286.083984" xlink:href="#TimesNewRomanPSMT-109"/>
      <use x="363.867188" xlink:href="#TimesNewRomanPSMT-41"/>
     </g>
    </g>
   </g>
   <g id="patch_3">
    <path d="M 50.2375 245.8875 
L 50.2375 25.8 
" style="fill:none;stroke:#000000;stroke-linecap:square;stroke-linejoin:miter;stroke-width:0.8;"/>
   </g>
   <g id="patch_4">
    <path d="M 419.504 245.8875 
L 419.504 25.8 
" style="fill:none;stroke:#000000;stroke-linecap:square;stroke-linejoin:miter;stroke-width:0.8;"/>
   </g>
   <g id="patch_5">
    <path d="M 50.2375 245.8875 
L 419.504 245.8875 
" style="fill:none;stroke:#000000;stroke-linecap:square;stroke-linejoin:miter;stroke-width:0.8;"/>
   </g>
   <g id="patch_6">
    <path d="M 50.2375 25.8 
L 419.504 25.8 
" style="fill:none;stroke:#000000;stroke-linecap:square;stroke-linejoin:miter;stroke-width:0.8;"/>
   </g>
   <g id="text_16">
    <!-- The Acceleration/Deceleration Flight Collision Area -->
    <g transform="translate(109.23825 19.8)scale(0.12 -0.12)">
     <defs>
      <path d="M 57.859375 66.21875 
L 58.59375 50.6875 
L 56.734375 50.6875 
Q 56.203125 54.78125 55.28125 56.546875 
Q 53.765625 59.375 51.25 60.71875 
Q 48.734375 62.0625 44.625 62.0625 
L 35.296875 62.0625 
L 35.296875 11.46875 
Q 35.296875 5.375 36.625 3.859375 
Q 38.484375 1.8125 42.328125 1.8125 
L 44.625 1.8125 
L 44.625 0 
L 16.546875 0 
L 16.546875 1.8125 
L 18.890625 1.8125 
Q 23.09375 1.8125 24.859375 4.34375 
Q 25.921875 5.90625 25.921875 11.46875 
L 25.921875 62.0625 
L 17.96875 62.0625 
Q 13.328125 62.0625 11.375 61.375 
Q 8.84375 60.453125 7.03125 57.8125 
Q 5.21875 55.171875 4.890625 50.6875 
L 3.03125 50.6875 
L 3.8125 66.21875 
z
" id="TimesNewRomanPSMT-84"/>
      <path d="M 45.75 22.171875 
L 20.125 22.171875 
L 15.625 11.71875 
Q 13.96875 7.859375 13.96875 5.953125 
Q 13.96875 4.4375 15.40625 3.296875 
Q 16.84375 2.15625 21.625 1.8125 
L 21.625 0 
L 0.78125 0 
L 0.78125 1.8125 
Q 4.9375 2.546875 6.15625 3.71875 
Q 8.640625 6.0625 11.671875 13.234375 
L 34.96875 67.71875 
L 36.671875 67.71875 
L 59.71875 12.640625 
Q 62.5 6 64.765625 4.015625 
Q 67.046875 2.046875 71.09375 1.8125 
L 71.09375 0 
L 44.96875 0 
L 44.96875 1.8125 
Q 48.921875 2 50.3125 3.125 
Q 51.703125 4.25 51.703125 5.859375 
Q 51.703125 8.015625 49.75 12.640625 
z
M 44.390625 25.78125 
L 33.15625 52.546875 
L 21.625 25.78125 
z
" id="TimesNewRomanPSMT-65"/>
      <path d="M 18.5 69.4375 
L 18.5 10.109375 
Q 18.5 5.90625 19.109375 4.53125 
Q 19.734375 3.171875 21 2.46875 
Q 22.265625 1.765625 25.734375 1.765625 
L 25.734375 0 
L 3.8125 0 
L 3.8125 1.765625 
Q 6.890625 1.765625 8 2.390625 
Q 9.125 3.03125 9.765625 4.484375 
Q 10.40625 5.953125 10.40625 10.109375 
L 10.40625 50.734375 
Q 10.40625 58.296875 10.0625 60.03125 
Q 9.71875 61.765625 8.953125 62.390625 
Q 8.203125 63.03125 7.03125 63.03125 
Q 5.765625 63.03125 3.8125 62.25 
L 2.984375 63.96875 
L 16.3125 69.4375 
z
" id="TimesNewRomanPSMT-108"/>
      <path d="M 16.21875 46.046875 
L 16.21875 35.984375 
Q 21.828125 46.046875 27.734375 46.046875 
Q 30.421875 46.046875 32.171875 44.40625 
Q 33.9375 42.78125 33.9375 40.625 
Q 33.9375 38.71875 32.65625 37.390625 
Q 31.390625 36.078125 29.640625 36.078125 
Q 27.9375 36.078125 25.8125 37.765625 
Q 23.6875 39.453125 22.65625 39.453125 
Q 21.78125 39.453125 20.75 38.484375 
Q 18.5625 36.46875 16.21875 31.890625 
L 16.21875 10.453125 
Q 16.21875 6.734375 17.140625 4.828125 
Q 17.78125 3.515625 19.390625 2.640625 
Q 21 1.765625 24.03125 1.765625 
L 24.03125 0 
L 1.125 0 
L 1.125 1.765625 
Q 4.546875 1.765625 6.203125 2.828125 
Q 7.421875 3.609375 7.90625 5.328125 
Q 8.15625 6.15625 8.15625 10.0625 
L 8.15625 27.390625 
Q 8.15625 35.203125 7.828125 36.6875 
Q 7.515625 38.1875 6.65625 38.859375 
Q 5.8125 39.546875 4.546875 39.546875 
Q 3.03125 39.546875 1.125 38.8125 
L 0.640625 40.578125 
L 14.15625 46.046875 
z
" id="TimesNewRomanPSMT-114"/>
      <path d="M 25 46.046875 
Q 35.15625 46.046875 41.3125 38.328125 
Q 46.53125 31.734375 46.53125 23.1875 
Q 46.53125 17.1875 43.640625 11.03125 
Q 40.765625 4.890625 35.71875 1.75 
Q 30.671875 -1.375 24.46875 -1.375 
Q 14.359375 -1.375 8.40625 6.6875 
Q 3.375 13.484375 3.375 21.921875 
Q 3.375 28.078125 6.421875 34.15625 
Q 9.46875 40.234375 14.453125 43.140625 
Q 19.4375 46.046875 25 46.046875 
z
M 23.484375 42.875 
Q 20.90625 42.875 18.28125 41.328125 
Q 15.671875 39.796875 14.0625 35.9375 
Q 12.453125 32.078125 12.453125 26.03125 
Q 12.453125 16.265625 16.328125 9.171875 
Q 20.21875 2.09375 26.5625 2.09375 
Q 31.296875 2.09375 34.375 6 
Q 37.453125 9.90625 37.453125 19.4375 
Q 37.453125 31.34375 32.328125 38.1875 
Q 28.859375 42.875 23.484375 42.875 
z
" id="TimesNewRomanPSMT-111"/>
      <path d="M 28.03125 69.4375 
L 4.046875 -1.375 
L 0.140625 -1.375 
L 24.125 69.4375 
z
" id="TimesNewRomanPSMT-47"/>
      <path d="M 20.453125 62.59375 
L 20.453125 36.578125 
L 32.515625 36.578125 
Q 36.671875 36.578125 38.59375 38.40625 
Q 40.53125 40.234375 41.15625 45.65625 
L 42.96875 45.65625 
L 42.96875 23.25 
L 41.15625 23.25 
Q 41.109375 27.09375 40.15625 28.90625 
Q 39.203125 30.71875 37.515625 31.609375 
Q 35.84375 32.515625 32.515625 32.515625 
L 20.453125 32.515625 
L 20.453125 11.71875 
Q 20.453125 6.6875 21.09375 5.078125 
Q 21.578125 3.859375 23.140625 2.984375 
Q 25.296875 1.8125 27.640625 1.8125 
L 30.03125 1.8125 
L 30.03125 0 
L 1.609375 0 
L 1.609375 1.8125 
L 3.953125 1.8125 
Q 8.0625 1.8125 9.90625 4.203125 
Q 11.078125 5.765625 11.078125 11.71875 
L 11.078125 54.5 
Q 11.078125 59.515625 10.453125 61.140625 
Q 9.96875 62.359375 8.453125 63.234375 
Q 6.34375 64.40625 3.953125 64.40625 
L 1.609375 64.40625 
L 1.609375 66.21875 
L 50.875 66.21875 
L 51.515625 51.65625 
L 49.8125 51.65625 
Q 48.53125 56.296875 46.84375 58.46875 
Q 45.171875 60.640625 42.703125 61.609375 
Q 40.234375 62.59375 35.0625 62.59375 
z
" id="TimesNewRomanPSMT-70"/>
      <path d="M 60.203125 67.71875 
L 61.71875 45.21875 
L 60.203125 45.21875 
Q 57.171875 55.328125 51.5625 59.765625 
Q 45.953125 64.203125 38.09375 64.203125 
Q 31.5 64.203125 26.171875 60.859375 
Q 20.84375 57.515625 17.796875 50.1875 
Q 14.75 42.875 14.75 31.984375 
Q 14.75 23 17.625 16.40625 
Q 20.515625 9.8125 26.296875 6.296875 
Q 32.078125 2.78125 39.5 2.78125 
Q 45.953125 2.78125 50.875 5.53125 
Q 55.8125 8.296875 61.71875 16.5 
L 63.234375 15.53125 
Q 58.25 6.6875 51.609375 2.578125 
Q 44.96875 -1.515625 35.84375 -1.515625 
Q 19.390625 -1.515625 10.359375 10.6875 
Q 3.609375 19.78125 3.609375 32.078125 
Q 3.609375 42 8.046875 50.296875 
Q 12.5 58.59375 20.28125 63.15625 
Q 28.078125 67.71875 37.3125 67.71875 
Q 44.484375 67.71875 51.46875 64.203125 
Q 53.515625 63.140625 54.390625 63.140625 
Q 55.71875 63.140625 56.6875 64.0625 
Q 57.953125 65.375 58.5 67.71875 
z
" id="TimesNewRomanPSMT-67"/>
     </defs>
     <use xlink:href="#TimesNewRomanPSMT-84"/>
     <use x="61.083984" xlink:href="#TimesNewRomanPSMT-104"/>
     <use x="111.083984" xlink:href="#TimesNewRomanPSMT-101"/>
     <use x="155.46875" xlink:href="#TimesNewRomanPSMT-32"/>
     <use x="174.96875" xlink:href="#TimesNewRomanPSMT-65"/>
     <use x="247.185547" xlink:href="#TimesNewRomanPSMT-99"/>
     <use x="291.570312" xlink:href="#TimesNewRomanPSMT-99"/>
     <use x="335.955078" xlink:href="#TimesNewRomanPSMT-101"/>
     <use x="380.339844" xlink:href="#TimesNewRomanPSMT-108"/>
     <use x="408.123047" xlink:href="#TimesNewRomanPSMT-101"/>
     <use x="452.507812" xlink:href="#TimesNewRomanPSMT-114"/>
     <use x="485.808594" xlink:href="#TimesNewRomanPSMT-97"/>
     <use x="530.193359" xlink:href="#TimesNewRomanPSMT-116"/>
     <use x="557.976562" xlink:href="#TimesNewRomanPSMT-105"/>
     <use x="585.759766" xlink:href="#TimesNewRomanPSMT-111"/>
     <use x="635.759766" xlink:href="#TimesNewRomanPSMT-110"/>
     <use x="685.759766" xlink:href="#TimesNewRomanPSMT-47"/>
     <use x="713.542969" xlink:href="#TimesNewRomanPSMT-68"/>
     <use x="785.759766" xlink:href="#TimesNewRomanPSMT-101"/>
     <use x="830.144531" xlink:href="#TimesNewRomanPSMT-99"/>
     <use x="874.529297" xlink:href="#TimesNewRomanPSMT-101"/>
     <use x="918.914062" xlink:href="#TimesNewRomanPSMT-108"/>
     <use x="946.697266" xlink:href="#TimesNewRomanPSMT-101"/>
     <use x="991.082031" xlink:href="#TimesNewRomanPSMT-114"/>
     <use x="1024.382812" xlink:href="#TimesNewRomanPSMT-97"/>
     <use x="1068.767578" xlink:href="#TimesNewRomanPSMT-116"/>
     <use x="1096.550781" xlink:href="#TimesNewRomanPSMT-105"/>
     <use x="1124.333984" xlink:href="#TimesNewRomanPSMT-111"/>
     <use x="1174.333984" xlink:href="#TimesNewRomanPSMT-110"/>
     <use x="1224.333984" xlink:href="#TimesNewRomanPSMT-32"/>
     <use x="1249.333984" xlink:href="#TimesNewRomanPSMT-70"/>
     <use x="1304.949219" xlink:href="#TimesNewRomanPSMT-108"/>
     <use x="1332.732422" xlink:href="#TimesNewRomanPSMT-105"/>
     <use x="1360.515625" xlink:href="#TimesNewRomanPSMT-103"/>
     <use x="1410.515625" xlink:href="#TimesNewRomanPSMT-104"/>
     <use x="1460.515625" xlink:href="#TimesNewRomanPSMT-116"/>
     <use x="1488.298828" xlink:href="#TimesNewRomanPSMT-32"/>
     <use x="1513.298828" xlink:href="#TimesNewRomanPSMT-67"/>
     <use x="1579.998047" xlink:href="#TimesNewRomanPSMT-111"/>
     <use x="1629.998047" xlink:href="#TimesNewRomanPSMT-108"/>
     <use x="1657.78125" xlink:href="#TimesNewRomanPSMT-108"/>
     <use x="1685.564453" xlink:href="#TimesNewRomanPSMT-105"/>
     <use x="1713.347656" xlink:href="#TimesNewRomanPSMT-115"/>
     <use x="1752.263672" xlink:href="#TimesNewRomanPSMT-105"/>
     <use x="1780.046875" xlink:href="#TimesNewRomanPSMT-111"/>
     <use x="1830.046875" xlink:href="#TimesNewRomanPSMT-110"/>
     <use x="1880.046875" xlink:href="#TimesNewRomanPSMT-32"/>
     <use x="1899.546875" xlink:href="#TimesNewRomanPSMT-65"/>
     <use x="1971.763672" xlink:href="#TimesNewRomanPSMT-114"/>
     <use x="2005.064453" xlink:href="#TimesNewRomanPSMT-101"/>
     <use x="2049.449219" xlink:href="#TimesNewRomanPSMT-97"/>
    </g>
   </g>
   <g id="legend_1">
    <g id="patch_7">
     <path d="M 329.38933 71 
L 419.88933 71 
Q 421.88933 71 421.88933 69 
L 421.88933 32.8 
Q 421.88933 30.8 419.88933 30.8 
L 329.38933 30.8 
Q 327.38933 30.8 327.38933 32.8 
L 327.38933 69 
Q 327.38933 71 329.38933 71 
z
" style="fill:#ffffff;opacity:0.8;stroke:#cccccc;stroke-linejoin:miter;"/>
    </g>
    <g id="patch_8">
     <path d="M 331.38933 45.6 
L 351.38933 45.6 
L 351.38933 38.6 
L 331.38933 38.6 
z
" style="fill:#b85450;stroke:#b85450;stroke-linejoin:miter;"/>
    </g>
    <g id="text_17">
     <!--  $a_{i}^k$ = -10 $\mathregular{m^2}$/s -->
     <g transform="translate(359.38933 45.6)scale(0.1 -0.1)">
      <defs>
       <path d="M 53.71875 31.203125 
L 47.609375 0 
L 38.625 0 
L 40.28125 8.296875 
Q 36.328125 3.421875 31.265625 1 
Q 26.21875 -1.421875 20.015625 -1.421875 
Q 13.03125 -1.421875 8.5625 2.84375 
Q 4.109375 7.125 4.109375 13.8125 
Q 4.109375 23.390625 11.75 28.953125 
Q 19.390625 34.515625 32.8125 34.515625 
L 45.3125 34.515625 
L 45.796875 36.921875 
Q 45.90625 37.3125 45.953125 37.765625 
Q 46 38.234375 46 39.203125 
Q 46 43.5625 42.453125 45.96875 
Q 38.921875 48.390625 32.515625 48.390625 
Q 28.125 48.390625 23.5 47.265625 
Q 18.890625 46.140625 14.015625 43.890625 
L 15.578125 52.203125 
Q 20.65625 54.109375 25.515625 55.046875 
Q 30.375 56 34.90625 56 
Q 44.578125 56 49.625 51.796875 
Q 54.6875 47.609375 54.6875 39.59375 
Q 54.6875 37.984375 54.4375 35.8125 
Q 54.203125 33.640625 53.71875 31.203125 
z
M 44 27.484375 
L 35.015625 27.484375 
Q 23.96875 27.484375 18.671875 24.53125 
Q 13.375 21.578125 13.375 15.375 
Q 13.375 11.078125 16.078125 8.640625 
Q 18.796875 6.203125 23.578125 6.203125 
Q 30.90625 6.203125 36.375 11.453125 
Q 41.84375 16.703125 43.609375 25.484375 
z
" id="DejaVuSans-Oblique-97"/>
       <path d="M 18.3125 75.984375 
L 27.296875 75.984375 
L 18.703125 31.6875 
L 49.515625 54.6875 
L 61.1875 54.6875 
L 26.8125 28.515625 
L 51.90625 0 
L 41.015625 0 
L 17.671875 26.703125 
L 12.5 0 
L 3.515625 0 
z
" id="DejaVuSans-Oblique-107"/>
       <path d="M 18.3125 75.984375 
L 27.296875 75.984375 
L 25.09375 64.59375 
L 16.109375 64.59375 
z
M 14.203125 54.6875 
L 23.1875 54.6875 
L 12.5 0 
L 3.515625 0 
z
" id="DejaVuSans-Oblique-105"/>
       <path d="M 1.8125 43.109375 
L 54.5 43.109375 
L 54.5 39.109375 
L 1.8125 39.109375 
z
M 1.8125 27.203125 
L 54.5 27.203125 
L 54.5 23.1875 
L 1.8125 23.1875 
z
" id="TimesNewRomanPSMT-61"/>
       <path d="M 4.046875 26.125 
L 29.296875 26.125 
L 29.296875 18.75 
L 4.046875 18.75 
z
" id="TimesNewRomanPSMT-45"/>
      </defs>
      <use transform="translate(0 0.582813)" xlink:href="#TimesNewRomanPSMT-32"/>
      <use transform="translate(25 0.582813)" xlink:href="#DejaVuSans-Oblique-97"/>
      <use transform="translate(90.929193 38.928125)scale(0.7)" xlink:href="#DejaVuSans-Oblique-107"/>
      <use transform="translate(86.279297 -26.760937)scale(0.7)" xlink:href="#DejaVuSans-Oblique-105"/>
      <use transform="translate(134.200677 0.582813)" xlink:href="#TimesNewRomanPSMT-32"/>
      <use transform="translate(159.200677 0.582813)" xlink:href="#TimesNewRomanPSMT-61"/>
      <use transform="translate(215.597161 0.582813)" xlink:href="#TimesNewRomanPSMT-32"/>
      <use transform="translate(240.597161 0.582813)" xlink:href="#TimesNewRomanPSMT-45"/>
      <use transform="translate(273.897943 0.582813)" xlink:href="#TimesNewRomanPSMT-49"/>
      <use transform="translate(323.897943 0.582813)" xlink:href="#TimesNewRomanPSMT-48"/>
      <use transform="translate(373.897943 0.582813)" xlink:href="#TimesNewRomanPSMT-32"/>
      <use transform="translate(398.897943 0.582813)" xlink:href="#TimesNewRomanPSMT-109"/>
      <use transform="translate(478.183958 60.695312)scale(0.7)" xlink:href="#TimesNewRomanPSMT-50"/>
      <use transform="translate(517.477708 0.582813)" xlink:href="#TimesNewRomanPSMT-47"/>
      <use transform="translate(545.260911 0.582813)" xlink:href="#TimesNewRomanPSMT-115"/>
     </g>
    </g>
    <g id="patch_9">
     <path d="M 331.38933 64.2 
L 351.38933 64.2 
L 351.38933 57.2 
L 331.38933 57.2 
z
" style="fill:#82b366;stroke:#82b366;stroke-linejoin:miter;"/>
    </g>
    <g id="text_18">
     <!-- $a_{i}^k$ =10 $\mathregular{m^2}$/s -->
     <g transform="translate(359.38933 64.2)scale(0.1 -0.1)">
      <use transform="translate(0 0.582813)" xlink:href="#DejaVuSans-Oblique-97"/>
      <use transform="translate(65.929193 38.928125)scale(0.7)" xlink:href="#DejaVuSans-Oblique-107"/>
      <use transform="translate(61.279297 -26.760937)scale(0.7)" xlink:href="#DejaVuSans-Oblique-105"/>
      <use transform="translate(109.200677 0.582813)" xlink:href="#TimesNewRomanPSMT-32"/>
      <use transform="translate(134.200677 0.582813)" xlink:href="#TimesNewRomanPSMT-61"/>
      <use transform="translate(190.597161 0.582813)" xlink:href="#TimesNewRomanPSMT-49"/>
      <use transform="translate(240.597161 0.582813)" xlink:href="#TimesNewRomanPSMT-48"/>
      <use transform="translate(290.597161 0.582813)" xlink:href="#TimesNewRomanPSMT-32"/>
      <use transform="translate(315.597161 0.582813)" xlink:href="#TimesNewRomanPSMT-109"/>
      <use transform="translate(394.883177 60.695312)scale(0.7)" xlink:href="#TimesNewRomanPSMT-50"/>
      <use transform="translate(434.176927 0.582813)" xlink:href="#TimesNewRomanPSMT-47"/>
      <use transform="translate(461.96013 0.582813)" xlink:href="#TimesNewRomanPSMT-115"/>
     </g>
    </g>
   </g>
  </g>
 </g>
 <defs>
  <clipPath id="p49dc3618f0">
   <rect height="220.0875" width="369.2665" x="50.2375" y="25.8"/>
  </clipPath>
 </defs>
</svg>
