<?xml version="1.0" encoding="utf-8" standalone="no"?>
<!DOCTYPE svg PUBLIC "-//W3C//DTD SVG 1.1//EN"
  "http://www.w3.org/Graphics/SVG/1.1/DTD/svg11.dtd">
<svg xmlns:xlink="http://www.w3.org/1999/xlink" width="432pt" height="288pt" viewBox="0 0 432 288" xmlns="http://www.w3.org/2000/svg" version="1.1">
 <metadata>
  <rdf:RDF xmlns:dc="http://purl.org/dc/elements/1.1/" xmlns:cc="http://creativecommons.org/ns#" xmlns:rdf="http://www.w3.org/1999/02/22-rdf-syntax-ns#">
   <cc:Work>
    <dc:type rdf:resource="http://purl.org/dc/dcmitype/StillImage"/>
    <dc:date>2023-09-02T14:31:19.483875</dc:date>
    <dc:format>image/svg+xml</dc:format>
    <dc:creator>
     <cc:Agent>
      <dc:title>Matplotlib v3.7.1, https://matplotlib.org/</dc:title>
     </cc:Agent>
    </dc:creator>
   </cc:Work>
  </rdf:RDF>
 </metadata>
 <defs>
  <style type="text/css">*{stroke-linejoin: round; stroke-linecap: butt}</style>
 </defs>
 <g id="figure_1">
  <g id="patch_1">
   <path d="M 0 288 
L 432 288 
L 432 0 
L 0 0 
z
" style="fill: #ffffff"/>
  </g>
  <g id="axes_1">
   <g id="patch_2">
    <path d="M 50.2375 234.61625 
L 321.631414 234.61625 
L 321.631414 25.8 
L 50.2375 25.8 
z
" style="fill: #ffffff"/>
   </g>
   <g id="matplotlib.axis_1">
    <g id="xtick_1">
     <g id="line2d_1">
      <defs>
       <path id="mb6e3f53851" d="M 0 0 
L 0 3.5 
" style="stroke: #000000; stroke-width: 0.8"/>
      </defs>
      <g>
       <use xlink:href="#mb6e3f53851" x="75.971054" y="234.61625" style="stroke: #000000; stroke-width: 0.8"/>
      </g>
     </g>
     <g id="text_1">
      <!-- 0.0 -->
      <g transform="translate(69.721054 248.56) scale(0.1 -0.1)">
       <defs>
        <path id="TimesNewRomanPSMT-30" d="M 231 2094 
Q 231 2819 450 3342 
Q 669 3866 1031 4122 
Q 1313 4325 1613 4325 
Q 2100 4325 2488 3828 
Q 2972 3213 2972 2159 
Q 2972 1422 2759 906 
Q 2547 391 2217 158 
Q 1888 -75 1581 -75 
Q 975 -75 572 641 
Q 231 1244 231 2094 
z
M 844 2016 
Q 844 1141 1059 588 
Q 1238 122 1591 122 
Q 1759 122 1940 273 
Q 2122 425 2216 781 
Q 2359 1319 2359 2297 
Q 2359 3022 2209 3506 
Q 2097 3866 1919 4016 
Q 1791 4119 1609 4119 
Q 1397 4119 1231 3928 
Q 1006 3669 925 3112 
Q 844 2556 844 2016 
z
" transform="scale(0.015625)"/>
        <path id="TimesNewRomanPSMT-2e" d="M 800 606 
Q 947 606 1047 504 
Q 1147 403 1147 259 
Q 1147 116 1045 14 
Q 944 -88 800 -88 
Q 656 -88 554 14 
Q 453 116 453 259 
Q 453 406 554 506 
Q 656 606 800 606 
z
" transform="scale(0.015625)"/>
       </defs>
       <use xlink:href="#TimesNewRomanPSMT-30"/>
       <use xlink:href="#TimesNewRomanPSMT-2e" x="50"/>
       <use xlink:href="#TimesNewRomanPSMT-30" x="75"/>
      </g>
     </g>
    </g>
    <g id="xtick_2">
     <g id="line2d_2">
      <g>
       <use xlink:href="#mb6e3f53851" x="106.646366" y="234.61625" style="stroke: #000000; stroke-width: 0.8"/>
      </g>
     </g>
     <g id="text_2">
      <!-- 2.5 -->
      <g transform="translate(100.396366 248.56) scale(0.1 -0.1)">
       <defs>
        <path id="TimesNewRomanPSMT-32" d="M 2934 816 
L 2638 0 
L 138 0 
L 138 116 
Q 1241 1122 1691 1759 
Q 2141 2397 2141 2925 
Q 2141 3328 1894 3587 
Q 1647 3847 1303 3847 
Q 991 3847 742 3664 
Q 494 3481 375 3128 
L 259 3128 
Q 338 3706 661 4015 
Q 984 4325 1469 4325 
Q 1984 4325 2329 3994 
Q 2675 3663 2675 3213 
Q 2675 2891 2525 2569 
Q 2294 2063 1775 1497 
Q 997 647 803 472 
L 1909 472 
Q 2247 472 2383 497 
Q 2519 522 2628 598 
Q 2738 675 2819 816 
L 2934 816 
z
" transform="scale(0.015625)"/>
        <path id="TimesNewRomanPSMT-35" d="M 2778 4238 
L 2534 3706 
L 1259 3706 
L 981 3138 
Q 1809 3016 2294 2522 
Q 2709 2097 2709 1522 
Q 2709 1188 2573 903 
Q 2438 619 2231 419 
Q 2025 219 1772 97 
Q 1413 -75 1034 -75 
Q 653 -75 479 54 
Q 306 184 306 341 
Q 306 428 378 495 
Q 450 563 559 563 
Q 641 563 702 538 
Q 763 513 909 409 
Q 1144 247 1384 247 
Q 1750 247 2026 523 
Q 2303 800 2303 1197 
Q 2303 1581 2056 1914 
Q 1809 2247 1375 2428 
Q 1034 2569 447 2591 
L 1259 4238 
L 2778 4238 
z
" transform="scale(0.015625)"/>
       </defs>
       <use xlink:href="#TimesNewRomanPSMT-32"/>
       <use xlink:href="#TimesNewRomanPSMT-2e" x="50"/>
       <use xlink:href="#TimesNewRomanPSMT-35" x="75"/>
      </g>
     </g>
    </g>
    <g id="xtick_3">
     <g id="line2d_3">
      <g>
       <use xlink:href="#mb6e3f53851" x="137.321677" y="234.61625" style="stroke: #000000; stroke-width: 0.8"/>
      </g>
     </g>
     <g id="text_3">
      <!-- 5.0 -->
      <g transform="translate(131.071677 248.56) scale(0.1 -0.1)">
       <use xlink:href="#TimesNewRomanPSMT-35"/>
       <use xlink:href="#TimesNewRomanPSMT-2e" x="50"/>
       <use xlink:href="#TimesNewRomanPSMT-30" x="75"/>
      </g>
     </g>
    </g>
    <g id="xtick_4">
     <g id="line2d_4">
      <g>
       <use xlink:href="#mb6e3f53851" x="167.996989" y="234.61625" style="stroke: #000000; stroke-width: 0.8"/>
      </g>
     </g>
     <g id="text_4">
      <!-- 7.5 -->
      <g transform="translate(161.746989 248.56) scale(0.1 -0.1)">
       <defs>
        <path id="TimesNewRomanPSMT-37" d="M 644 4238 
L 2916 4238 
L 2916 4119 
L 1503 -88 
L 1153 -88 
L 2419 3728 
L 1253 3728 
Q 900 3728 750 3644 
Q 488 3500 328 3200 
L 238 3234 
L 644 4238 
z
" transform="scale(0.015625)"/>
       </defs>
       <use xlink:href="#TimesNewRomanPSMT-37"/>
       <use xlink:href="#TimesNewRomanPSMT-2e" x="50"/>
       <use xlink:href="#TimesNewRomanPSMT-35" x="75"/>
      </g>
     </g>
    </g>
    <g id="xtick_5">
     <g id="line2d_5">
      <g>
       <use xlink:href="#mb6e3f53851" x="198.6723" y="234.61625" style="stroke: #000000; stroke-width: 0.8"/>
      </g>
     </g>
     <g id="text_5">
      <!-- 10.0 -->
      <g transform="translate(189.9223 248.56) scale(0.1 -0.1)">
       <defs>
        <path id="TimesNewRomanPSMT-31" d="M 750 3822 
L 1781 4325 
L 1884 4325 
L 1884 747 
Q 1884 391 1914 303 
Q 1944 216 2037 169 
Q 2131 122 2419 116 
L 2419 0 
L 825 0 
L 825 116 
Q 1125 122 1212 167 
Q 1300 213 1334 289 
Q 1369 366 1369 747 
L 1369 3034 
Q 1369 3497 1338 3628 
Q 1316 3728 1258 3775 
Q 1200 3822 1119 3822 
Q 1003 3822 797 3725 
L 750 3822 
z
" transform="scale(0.015625)"/>
       </defs>
       <use xlink:href="#TimesNewRomanPSMT-31"/>
       <use xlink:href="#TimesNewRomanPSMT-30" x="50"/>
       <use xlink:href="#TimesNewRomanPSMT-2e" x="100"/>
       <use xlink:href="#TimesNewRomanPSMT-30" x="125"/>
      </g>
     </g>
    </g>
    <g id="xtick_6">
     <g id="line2d_6">
      <g>
       <use xlink:href="#mb6e3f53851" x="229.347612" y="234.61625" style="stroke: #000000; stroke-width: 0.8"/>
      </g>
     </g>
     <g id="text_6">
      <!-- 12.5 -->
      <g transform="translate(220.597612 248.56) scale(0.1 -0.1)">
       <use xlink:href="#TimesNewRomanPSMT-31"/>
       <use xlink:href="#TimesNewRomanPSMT-32" x="50"/>
       <use xlink:href="#TimesNewRomanPSMT-2e" x="100"/>
       <use xlink:href="#TimesNewRomanPSMT-35" x="125"/>
      </g>
     </g>
    </g>
    <g id="xtick_7">
     <g id="line2d_7">
      <g>
       <use xlink:href="#mb6e3f53851" x="260.022924" y="234.61625" style="stroke: #000000; stroke-width: 0.8"/>
      </g>
     </g>
     <g id="text_7">
      <!-- 15.0 -->
      <g transform="translate(251.272924 248.56) scale(0.1 -0.1)">
       <use xlink:href="#TimesNewRomanPSMT-31"/>
       <use xlink:href="#TimesNewRomanPSMT-35" x="50"/>
       <use xlink:href="#TimesNewRomanPSMT-2e" x="100"/>
       <use xlink:href="#TimesNewRomanPSMT-30" x="125"/>
      </g>
     </g>
    </g>
    <g id="xtick_8">
     <g id="line2d_8">
      <g>
       <use xlink:href="#mb6e3f53851" x="290.698235" y="234.61625" style="stroke: #000000; stroke-width: 0.8"/>
      </g>
     </g>
     <g id="text_8">
      <!-- 17.5 -->
      <g transform="translate(281.948235 248.56) scale(0.1 -0.1)">
       <use xlink:href="#TimesNewRomanPSMT-31"/>
       <use xlink:href="#TimesNewRomanPSMT-37" x="50"/>
       <use xlink:href="#TimesNewRomanPSMT-2e" x="100"/>
       <use xlink:href="#TimesNewRomanPSMT-35" x="125"/>
      </g>
     </g>
    </g>
    <g id="xtick_9">
     <g id="line2d_9">
      <g>
       <use xlink:href="#mb6e3f53851" x="321.373547" y="234.61625" style="stroke: #000000; stroke-width: 0.8"/>
      </g>
     </g>
     <g id="text_9">
      <!-- 20.0 -->
      <g transform="translate(312.623547 248.56) scale(0.1 -0.1)">
       <use xlink:href="#TimesNewRomanPSMT-32"/>
       <use xlink:href="#TimesNewRomanPSMT-30" x="50"/>
       <use xlink:href="#TimesNewRomanPSMT-2e" x="100"/>
       <use xlink:href="#TimesNewRomanPSMT-30" x="125"/>
      </g>
     </g>
    </g>
    <g id="text_10">
     <!-- Distance (m) -->
     <g transform="translate(159.971957 261.642813) scale(0.1 -0.1)">
      <defs>
       <path id="TimesNewRomanPSMT-44" d="M 109 0 
L 109 116 
L 269 116 
Q 538 116 650 288 
Q 719 391 719 750 
L 719 3488 
Q 719 3884 631 3984 
Q 509 4122 269 4122 
L 109 4122 
L 109 4238 
L 1834 4238 
Q 2784 4238 3279 4022 
Q 3775 3806 4076 3303 
Q 4378 2800 4378 2141 
Q 4378 1256 3841 663 
Q 3238 0 2003 0 
L 109 0 
z
M 1319 306 
Q 1716 219 1984 219 
Q 2709 219 3187 728 
Q 3666 1238 3666 2109 
Q 3666 2988 3187 3494 
Q 2709 4000 1959 4000 
Q 1678 4000 1319 3909 
L 1319 306 
z
" transform="scale(0.015625)"/>
       <path id="TimesNewRomanPSMT-69" d="M 928 4444 
Q 1059 4444 1151 4351 
Q 1244 4259 1244 4128 
Q 1244 3997 1151 3903 
Q 1059 3809 928 3809 
Q 797 3809 703 3903 
Q 609 3997 609 4128 
Q 609 4259 701 4351 
Q 794 4444 928 4444 
z
M 1188 2947 
L 1188 647 
Q 1188 378 1227 289 
Q 1266 200 1342 156 
Q 1419 113 1622 113 
L 1622 0 
L 231 0 
L 231 113 
Q 441 113 512 153 
Q 584 194 626 287 
Q 669 381 669 647 
L 669 1750 
Q 669 2216 641 2353 
Q 619 2453 572 2492 
Q 525 2531 444 2531 
Q 356 2531 231 2484 
L 188 2597 
L 1050 2947 
L 1188 2947 
z
" transform="scale(0.015625)"/>
       <path id="TimesNewRomanPSMT-73" d="M 2050 2947 
L 2050 1972 
L 1947 1972 
Q 1828 2431 1642 2597 
Q 1456 2763 1169 2763 
Q 950 2763 815 2647 
Q 681 2531 681 2391 
Q 681 2216 781 2091 
Q 878 1963 1175 1819 
L 1631 1597 
Q 2266 1288 2266 781 
Q 2266 391 1970 151 
Q 1675 -88 1309 -88 
Q 1047 -88 709 6 
Q 606 38 541 38 
Q 469 38 428 -44 
L 325 -44 
L 325 978 
L 428 978 
Q 516 541 762 319 
Q 1009 97 1316 97 
Q 1531 97 1667 223 
Q 1803 350 1803 528 
Q 1803 744 1651 891 
Q 1500 1038 1047 1263 
Q 594 1488 453 1669 
Q 313 1847 313 2119 
Q 313 2472 555 2709 
Q 797 2947 1181 2947 
Q 1350 2947 1591 2875 
Q 1750 2828 1803 2828 
Q 1853 2828 1881 2850 
Q 1909 2872 1947 2947 
L 2050 2947 
z
" transform="scale(0.015625)"/>
       <path id="TimesNewRomanPSMT-74" d="M 1031 3803 
L 1031 2863 
L 1700 2863 
L 1700 2644 
L 1031 2644 
L 1031 788 
Q 1031 509 1111 412 
Q 1191 316 1316 316 
Q 1419 316 1516 380 
Q 1613 444 1666 569 
L 1788 569 
Q 1678 263 1478 108 
Q 1278 -47 1066 -47 
Q 922 -47 784 33 
Q 647 113 581 261 
Q 516 409 516 719 
L 516 2644 
L 63 2644 
L 63 2747 
Q 234 2816 414 2980 
Q 594 3144 734 3369 
Q 806 3488 934 3803 
L 1031 3803 
z
" transform="scale(0.015625)"/>
       <path id="TimesNewRomanPSMT-61" d="M 1822 413 
Q 1381 72 1269 19 
Q 1100 -59 909 -59 
Q 613 -59 420 144 
Q 228 347 228 678 
Q 228 888 322 1041 
Q 450 1253 767 1440 
Q 1084 1628 1822 1897 
L 1822 2009 
Q 1822 2438 1686 2597 
Q 1550 2756 1291 2756 
Q 1094 2756 978 2650 
Q 859 2544 859 2406 
L 866 2225 
Q 866 2081 792 2003 
Q 719 1925 600 1925 
Q 484 1925 411 2006 
Q 338 2088 338 2228 
Q 338 2497 613 2722 
Q 888 2947 1384 2947 
Q 1766 2947 2009 2819 
Q 2194 2722 2281 2516 
Q 2338 2381 2338 1966 
L 2338 994 
Q 2338 584 2353 492 
Q 2369 400 2405 369 
Q 2441 338 2488 338 
Q 2538 338 2575 359 
Q 2641 400 2828 588 
L 2828 413 
Q 2478 -56 2159 -56 
Q 2006 -56 1915 50 
Q 1825 156 1822 413 
z
M 1822 616 
L 1822 1706 
Q 1350 1519 1213 1441 
Q 966 1303 859 1153 
Q 753 1003 753 825 
Q 753 600 887 451 
Q 1022 303 1197 303 
Q 1434 303 1822 616 
z
" transform="scale(0.015625)"/>
       <path id="TimesNewRomanPSMT-6e" d="M 1034 2341 
Q 1538 2947 1994 2947 
Q 2228 2947 2397 2830 
Q 2566 2713 2666 2444 
Q 2734 2256 2734 1869 
L 2734 647 
Q 2734 375 2778 278 
Q 2813 200 2889 156 
Q 2966 113 3172 113 
L 3172 0 
L 1756 0 
L 1756 113 
L 1816 113 
Q 2016 113 2095 173 
Q 2175 234 2206 353 
Q 2219 400 2219 647 
L 2219 1819 
Q 2219 2209 2117 2386 
Q 2016 2563 1775 2563 
Q 1403 2563 1034 2156 
L 1034 647 
Q 1034 356 1069 288 
Q 1113 197 1189 155 
Q 1266 113 1500 113 
L 1500 0 
L 84 0 
L 84 113 
L 147 113 
Q 366 113 442 223 
Q 519 334 519 647 
L 519 1709 
Q 519 2225 495 2337 
Q 472 2450 423 2490 
Q 375 2531 294 2531 
Q 206 2531 84 2484 
L 38 2597 
L 900 2947 
L 1034 2947 
L 1034 2341 
z
" transform="scale(0.015625)"/>
       <path id="TimesNewRomanPSMT-63" d="M 2631 1088 
Q 2516 522 2178 217 
Q 1841 -88 1431 -88 
Q 944 -88 581 321 
Q 219 731 219 1428 
Q 219 2103 620 2525 
Q 1022 2947 1584 2947 
Q 2006 2947 2278 2723 
Q 2550 2500 2550 2259 
Q 2550 2141 2473 2067 
Q 2397 1994 2259 1994 
Q 2075 1994 1981 2113 
Q 1928 2178 1911 2362 
Q 1894 2547 1784 2644 
Q 1675 2738 1481 2738 
Q 1169 2738 978 2506 
Q 725 2200 725 1697 
Q 725 1184 976 792 
Q 1228 400 1656 400 
Q 1963 400 2206 609 
Q 2378 753 2541 1131 
L 2631 1088 
z
" transform="scale(0.015625)"/>
       <path id="TimesNewRomanPSMT-65" d="M 681 1784 
Q 678 1147 991 784 
Q 1303 422 1725 422 
Q 2006 422 2214 576 
Q 2422 731 2563 1106 
L 2659 1044 
Q 2594 616 2278 264 
Q 1963 -88 1488 -88 
Q 972 -88 605 314 
Q 238 716 238 1394 
Q 238 2128 614 2539 
Q 991 2950 1559 2950 
Q 2041 2950 2350 2633 
Q 2659 2316 2659 1784 
L 681 1784 
z
M 681 1966 
L 2006 1966 
Q 1991 2241 1941 2353 
Q 1863 2528 1708 2628 
Q 1553 2728 1384 2728 
Q 1125 2728 920 2526 
Q 716 2325 681 1966 
z
" transform="scale(0.015625)"/>
       <path id="TimesNewRomanPSMT-20" transform="scale(0.015625)"/>
       <path id="TimesNewRomanPSMT-28" d="M 1988 -1253 
L 1988 -1369 
Q 1516 -1131 1200 -813 
Q 750 -359 506 256 
Q 263 872 263 1534 
Q 263 2503 741 3301 
Q 1219 4100 1988 4444 
L 1988 4313 
Q 1603 4100 1356 3731 
Q 1109 3363 987 2797 
Q 866 2231 866 1616 
Q 866 947 969 400 
Q 1050 -31 1165 -292 
Q 1281 -553 1476 -793 
Q 1672 -1034 1988 -1253 
z
" transform="scale(0.015625)"/>
       <path id="TimesNewRomanPSMT-6d" d="M 1050 2338 
Q 1363 2650 1419 2697 
Q 1559 2816 1721 2881 
Q 1884 2947 2044 2947 
Q 2313 2947 2506 2790 
Q 2700 2634 2766 2338 
Q 3088 2713 3309 2830 
Q 3531 2947 3766 2947 
Q 3994 2947 4170 2830 
Q 4347 2713 4450 2447 
Q 4519 2266 4519 1878 
L 4519 647 
Q 4519 378 4559 278 
Q 4591 209 4675 161 
Q 4759 113 4950 113 
L 4950 0 
L 3538 0 
L 3538 113 
L 3597 113 
Q 3781 113 3884 184 
Q 3956 234 3988 344 
Q 4000 397 4000 647 
L 4000 1878 
Q 4000 2228 3916 2372 
Q 3794 2572 3525 2572 
Q 3359 2572 3192 2489 
Q 3025 2406 2788 2181 
L 2781 2147 
L 2788 2013 
L 2788 647 
Q 2788 353 2820 281 
Q 2853 209 2943 161 
Q 3034 113 3253 113 
L 3253 0 
L 1806 0 
L 1806 113 
Q 2044 113 2133 169 
Q 2222 225 2256 338 
Q 2272 391 2272 647 
L 2272 1878 
Q 2272 2228 2169 2381 
Q 2031 2581 1784 2581 
Q 1616 2581 1450 2491 
Q 1191 2353 1050 2181 
L 1050 647 
Q 1050 366 1089 281 
Q 1128 197 1204 155 
Q 1281 113 1516 113 
L 1516 0 
L 100 0 
L 100 113 
Q 297 113 375 155 
Q 453 197 493 289 
Q 534 381 534 647 
L 534 1741 
Q 534 2213 506 2350 
Q 484 2453 437 2492 
Q 391 2531 309 2531 
Q 222 2531 100 2484 
L 53 2597 
L 916 2947 
L 1050 2947 
L 1050 2338 
z
" transform="scale(0.015625)"/>
       <path id="TimesNewRomanPSMT-29" d="M 144 4313 
L 144 4444 
Q 619 4209 934 3891 
Q 1381 3434 1625 2820 
Q 1869 2206 1869 1541 
Q 1869 572 1392 -226 
Q 916 -1025 144 -1369 
L 144 -1253 
Q 528 -1038 776 -670 
Q 1025 -303 1145 264 
Q 1266 831 1266 1447 
Q 1266 2113 1163 2663 
Q 1084 3094 967 3353 
Q 850 3613 656 3853 
Q 463 4094 144 4313 
z
" transform="scale(0.015625)"/>
      </defs>
      <use xlink:href="#TimesNewRomanPSMT-44"/>
      <use xlink:href="#TimesNewRomanPSMT-69" x="72.216797"/>
      <use xlink:href="#TimesNewRomanPSMT-73" x="100"/>
      <use xlink:href="#TimesNewRomanPSMT-74" x="138.916016"/>
      <use xlink:href="#TimesNewRomanPSMT-61" x="166.699219"/>
      <use xlink:href="#TimesNewRomanPSMT-6e" x="211.083984"/>
      <use xlink:href="#TimesNewRomanPSMT-63" x="261.083984"/>
      <use xlink:href="#TimesNewRomanPSMT-65" x="305.46875"/>
      <use xlink:href="#TimesNewRomanPSMT-20" x="349.853516"/>
      <use xlink:href="#TimesNewRomanPSMT-28" x="374.853516"/>
      <use xlink:href="#TimesNewRomanPSMT-6d" x="408.154297"/>
      <use xlink:href="#TimesNewRomanPSMT-29" x="485.9375"/>
     </g>
    </g>
   </g>
   <g id="matplotlib.axis_2">
    <g id="ytick_1">
     <g id="line2d_10">
      <defs>
       <path id="maa7d8a00ea" d="M 0 0 
L -3.5 0 
" style="stroke: #000000; stroke-width: 0.8"/>
      </defs>
      <g>
       <use xlink:href="#maa7d8a00ea" x="50.2375" y="232.078278" style="stroke: #000000; stroke-width: 0.8"/>
      </g>
     </g>
     <g id="text_11">
      <!-- −1.0 -->
      <g transform="translate(25.098438 235.550153) scale(0.1 -0.1)">
       <defs>
        <path id="TimesNewRomanPSMT-2212" d="M 3484 2000 
L 116 2000 
L 116 2256 
L 3484 2256 
L 3484 2000 
z
" transform="scale(0.015625)"/>
       </defs>
       <use xlink:href="#TimesNewRomanPSMT-2212"/>
       <use xlink:href="#TimesNewRomanPSMT-31" x="56.396484"/>
       <use xlink:href="#TimesNewRomanPSMT-2e" x="106.396484"/>
       <use xlink:href="#TimesNewRomanPSMT-30" x="131.396484"/>
      </g>
     </g>
    </g>
    <g id="ytick_2">
     <g id="line2d_11">
      <g>
       <use xlink:href="#maa7d8a00ea" x="50.2375" y="201.360772" style="stroke: #000000; stroke-width: 0.8"/>
      </g>
     </g>
     <g id="text_12">
      <!-- −0.8 -->
      <g transform="translate(25.098438 204.832647) scale(0.1 -0.1)">
       <defs>
        <path id="TimesNewRomanPSMT-38" d="M 1228 2134 
Q 725 2547 579 2797 
Q 434 3047 434 3316 
Q 434 3728 753 4026 
Q 1072 4325 1600 4325 
Q 2113 4325 2425 4047 
Q 2738 3769 2738 3413 
Q 2738 3175 2569 2928 
Q 2400 2681 1866 2347 
Q 2416 1922 2594 1678 
Q 2831 1359 2831 1006 
Q 2831 559 2490 242 
Q 2150 -75 1597 -75 
Q 994 -75 656 303 
Q 388 606 388 966 
Q 388 1247 577 1523 
Q 766 1800 1228 2134 
z
M 1719 2469 
Q 2094 2806 2194 3001 
Q 2294 3197 2294 3444 
Q 2294 3772 2109 3958 
Q 1925 4144 1606 4144 
Q 1288 4144 1088 3959 
Q 888 3775 888 3528 
Q 888 3366 970 3203 
Q 1053 3041 1206 2894 
L 1719 2469 
z
M 1375 2016 
Q 1116 1797 991 1539 
Q 866 1281 866 981 
Q 866 578 1086 336 
Q 1306 94 1647 94 
Q 1984 94 2187 284 
Q 2391 475 2391 747 
Q 2391 972 2272 1150 
Q 2050 1481 1375 2016 
z
" transform="scale(0.015625)"/>
       </defs>
       <use xlink:href="#TimesNewRomanPSMT-2212"/>
       <use xlink:href="#TimesNewRomanPSMT-30" x="56.396484"/>
       <use xlink:href="#TimesNewRomanPSMT-2e" x="106.396484"/>
       <use xlink:href="#TimesNewRomanPSMT-38" x="131.396484"/>
      </g>
     </g>
    </g>
    <g id="ytick_3">
     <g id="line2d_12">
      <g>
       <use xlink:href="#maa7d8a00ea" x="50.2375" y="170.643267" style="stroke: #000000; stroke-width: 0.8"/>
      </g>
     </g>
     <g id="text_13">
      <!-- −0.6 -->
      <g transform="translate(25.098438 174.115142) scale(0.1 -0.1)">
       <defs>
        <path id="TimesNewRomanPSMT-36" d="M 2869 4325 
L 2869 4209 
Q 2456 4169 2195 4045 
Q 1934 3922 1679 3669 
Q 1425 3416 1258 3105 
Q 1091 2794 978 2366 
Q 1428 2675 1881 2675 
Q 2316 2675 2634 2325 
Q 2953 1975 2953 1425 
Q 2953 894 2631 456 
Q 2244 -75 1606 -75 
Q 1172 -75 869 213 
Q 275 772 275 1663 
Q 275 2231 503 2743 
Q 731 3256 1154 3653 
Q 1578 4050 1965 4187 
Q 2353 4325 2688 4325 
L 2869 4325 
z
M 925 2138 
Q 869 1716 869 1456 
Q 869 1156 980 804 
Q 1091 453 1309 247 
Q 1469 100 1697 100 
Q 1969 100 2183 356 
Q 2397 613 2397 1088 
Q 2397 1622 2184 2012 
Q 1972 2403 1581 2403 
Q 1463 2403 1327 2353 
Q 1191 2303 925 2138 
z
" transform="scale(0.015625)"/>
       </defs>
       <use xlink:href="#TimesNewRomanPSMT-2212"/>
       <use xlink:href="#TimesNewRomanPSMT-30" x="56.396484"/>
       <use xlink:href="#TimesNewRomanPSMT-2e" x="106.396484"/>
       <use xlink:href="#TimesNewRomanPSMT-36" x="131.396484"/>
      </g>
     </g>
    </g>
    <g id="ytick_4">
     <g id="line2d_13">
      <g>
       <use xlink:href="#maa7d8a00ea" x="50.2375" y="139.925761" style="stroke: #000000; stroke-width: 0.8"/>
      </g>
     </g>
     <g id="text_14">
      <!-- −0.4 -->
      <g transform="translate(25.098438 143.397636) scale(0.1 -0.1)">
       <defs>
        <path id="TimesNewRomanPSMT-34" d="M 2978 1563 
L 2978 1119 
L 2409 1119 
L 2409 0 
L 1894 0 
L 1894 1119 
L 100 1119 
L 100 1519 
L 2066 4325 
L 2409 4325 
L 2409 1563 
L 2978 1563 
z
M 1894 1563 
L 1894 3666 
L 406 1563 
L 1894 1563 
z
" transform="scale(0.015625)"/>
       </defs>
       <use xlink:href="#TimesNewRomanPSMT-2212"/>
       <use xlink:href="#TimesNewRomanPSMT-30" x="56.396484"/>
       <use xlink:href="#TimesNewRomanPSMT-2e" x="106.396484"/>
       <use xlink:href="#TimesNewRomanPSMT-34" x="131.396484"/>
      </g>
     </g>
    </g>
    <g id="ytick_5">
     <g id="line2d_14">
      <g>
       <use xlink:href="#maa7d8a00ea" x="50.2375" y="109.208256" style="stroke: #000000; stroke-width: 0.8"/>
      </g>
     </g>
     <g id="text_15">
      <!-- −0.2 -->
      <g transform="translate(25.098438 112.680131) scale(0.1 -0.1)">
       <use xlink:href="#TimesNewRomanPSMT-2212"/>
       <use xlink:href="#TimesNewRomanPSMT-30" x="56.396484"/>
       <use xlink:href="#TimesNewRomanPSMT-2e" x="106.396484"/>
       <use xlink:href="#TimesNewRomanPSMT-32" x="131.396484"/>
      </g>
     </g>
    </g>
    <g id="ytick_6">
     <g id="line2d_15">
      <g>
       <use xlink:href="#maa7d8a00ea" x="50.2375" y="78.490751" style="stroke: #000000; stroke-width: 0.8"/>
      </g>
     </g>
     <g id="text_16">
      <!-- 0.0 -->
      <g transform="translate(30.7375 81.962626) scale(0.1 -0.1)">
       <use xlink:href="#TimesNewRomanPSMT-30"/>
       <use xlink:href="#TimesNewRomanPSMT-2e" x="50"/>
       <use xlink:href="#TimesNewRomanPSMT-30" x="75"/>
      </g>
     </g>
    </g>
    <g id="ytick_7">
     <g id="line2d_16">
      <g>
       <use xlink:href="#maa7d8a00ea" x="50.2375" y="47.773245" style="stroke: #000000; stroke-width: 0.8"/>
      </g>
     </g>
     <g id="text_17">
      <!-- 0.2 -->
      <g transform="translate(30.7375 51.24512) scale(0.1 -0.1)">
       <use xlink:href="#TimesNewRomanPSMT-30"/>
       <use xlink:href="#TimesNewRomanPSMT-2e" x="50"/>
       <use xlink:href="#TimesNewRomanPSMT-32" x="75"/>
      </g>
     </g>
    </g>
    <g id="text_18">
     <!-- Height (m) -->
     <g transform="translate(18.940625 152.285469) rotate(-90) scale(0.1 -0.1)">
      <defs>
       <path id="TimesNewRomanPSMT-48" d="M 1316 2272 
L 3284 2272 
L 3284 3484 
Q 3284 3809 3244 3913 
Q 3213 3991 3113 4047 
Q 2978 4122 2828 4122 
L 2678 4122 
L 2678 4238 
L 4491 4238 
L 4491 4122 
L 4341 4122 
Q 4191 4122 4056 4050 
Q 3956 4000 3920 3898 
Q 3884 3797 3884 3484 
L 3884 750 
Q 3884 428 3925 325 
Q 3956 247 4053 191 
Q 4191 116 4341 116 
L 4491 116 
L 4491 0 
L 2678 0 
L 2678 116 
L 2828 116 
Q 3088 116 3206 269 
Q 3284 369 3284 750 
L 3284 2041 
L 1316 2041 
L 1316 750 
Q 1316 428 1356 325 
Q 1388 247 1488 191 
Q 1622 116 1772 116 
L 1925 116 
L 1925 0 
L 109 0 
L 109 116 
L 259 116 
Q 522 116 641 269 
Q 716 369 716 750 
L 716 3484 
Q 716 3809 675 3913 
Q 644 3991 547 4047 
Q 409 4122 259 4122 
L 109 4122 
L 109 4238 
L 1925 4238 
L 1925 4122 
L 1772 4122 
Q 1622 4122 1488 4050 
Q 1391 4000 1353 3898 
Q 1316 3797 1316 3484 
L 1316 2272 
z
" transform="scale(0.015625)"/>
       <path id="TimesNewRomanPSMT-67" d="M 966 1044 
Q 703 1172 562 1401 
Q 422 1631 422 1909 
Q 422 2334 742 2640 
Q 1063 2947 1563 2947 
Q 1972 2947 2272 2747 
L 2878 2747 
Q 3013 2747 3034 2739 
Q 3056 2731 3066 2713 
Q 3084 2684 3084 2613 
Q 3084 2531 3069 2500 
Q 3059 2484 3036 2475 
Q 3013 2466 2878 2466 
L 2506 2466 
Q 2681 2241 2681 1891 
Q 2681 1491 2375 1206 
Q 2069 922 1553 922 
Q 1341 922 1119 984 
Q 981 866 932 777 
Q 884 688 884 625 
Q 884 572 936 522 
Q 988 472 1138 450 
Q 1225 438 1575 428 
Q 2219 413 2409 384 
Q 2700 344 2873 169 
Q 3047 -6 3047 -263 
Q 3047 -616 2716 -925 
Q 2228 -1381 1444 -1381 
Q 841 -1381 425 -1109 
Q 191 -953 191 -784 
Q 191 -709 225 -634 
Q 278 -519 444 -313 
Q 466 -284 763 25 
Q 600 122 533 198 
Q 466 275 466 372 
Q 466 481 555 628 
Q 644 775 966 1044 
z
M 1509 2797 
Q 1278 2797 1122 2612 
Q 966 2428 966 2047 
Q 966 1553 1178 1281 
Q 1341 1075 1591 1075 
Q 1828 1075 1981 1253 
Q 2134 1431 2134 1813 
Q 2134 2309 1919 2591 
Q 1759 2797 1509 2797 
z
M 934 0 
Q 788 -159 713 -296 
Q 638 -434 638 -550 
Q 638 -700 819 -813 
Q 1131 -1006 1722 -1006 
Q 2284 -1006 2551 -807 
Q 2819 -609 2819 -384 
Q 2819 -222 2659 -153 
Q 2497 -84 2016 -72 
Q 1313 -53 934 0 
z
" transform="scale(0.015625)"/>
       <path id="TimesNewRomanPSMT-68" d="M 1041 4444 
L 1041 2350 
Q 1388 2731 1591 2839 
Q 1794 2947 1997 2947 
Q 2241 2947 2416 2812 
Q 2591 2678 2675 2391 
Q 2734 2191 2734 1659 
L 2734 647 
Q 2734 375 2778 275 
Q 2809 200 2884 156 
Q 2959 113 3159 113 
L 3159 0 
L 1753 0 
L 1753 113 
L 1819 113 
Q 2019 113 2097 173 
Q 2175 234 2206 353 
Q 2216 403 2216 647 
L 2216 1659 
Q 2216 2128 2167 2275 
Q 2119 2422 2012 2495 
Q 1906 2569 1756 2569 
Q 1603 2569 1437 2487 
Q 1272 2406 1041 2159 
L 1041 647 
Q 1041 353 1073 281 
Q 1106 209 1195 161 
Q 1284 113 1503 113 
L 1503 0 
L 84 0 
L 84 113 
Q 275 113 384 172 
Q 447 203 484 290 
Q 522 378 522 647 
L 522 3238 
Q 522 3728 498 3840 
Q 475 3953 426 3993 
Q 378 4034 297 4034 
Q 231 4034 84 3984 
L 41 4094 
L 897 4444 
L 1041 4444 
z
" transform="scale(0.015625)"/>
      </defs>
      <use xlink:href="#TimesNewRomanPSMT-48"/>
      <use xlink:href="#TimesNewRomanPSMT-65" x="72.216797"/>
      <use xlink:href="#TimesNewRomanPSMT-69" x="116.601562"/>
      <use xlink:href="#TimesNewRomanPSMT-67" x="144.384766"/>
      <use xlink:href="#TimesNewRomanPSMT-68" x="194.384766"/>
      <use xlink:href="#TimesNewRomanPSMT-74" x="244.384766"/>
      <use xlink:href="#TimesNewRomanPSMT-20" x="272.167969"/>
      <use xlink:href="#TimesNewRomanPSMT-28" x="297.167969"/>
      <use xlink:href="#TimesNewRomanPSMT-6d" x="330.46875"/>
      <use xlink:href="#TimesNewRomanPSMT-29" x="408.251953"/>
     </g>
    </g>
   </g>
   <g id="line2d_17">
    <path d="M 62.792866 78.900369 
L 127.281353 78.87518 
L 211.016524 78.87518 
L 211.016524 78.87518 
" clip-path="url(#pbc21ad4237)" style="fill: none; stroke: #1f77b4; stroke-width: 1.5; stroke-linecap: square"/>
   </g>
   <g id="line2d_18">
    <path d="M 62.573587 78.900676 
L 77.494194 78.950745 
L 78.707832 79.499206 
L 82.345249 81.822986 
L 83.809958 82.531331 
L 85.581322 83.184078 
L 87.993077 83.786909 
L 90.843979 84.191766 
L 92.65008 84.318937 
L 93.535112 84.210504 
L 94.417837 83.875069 
L 96.487377 82.532867 
L 99.860287 80.159479 
L 101.745199 79.11877 
L 103.388905 78.410424 
L 104.951481 77.892374 
L 107.52433 77.314117 
L 109.750437 77.029058 
L 112.906988 76.867638 
L 116.660542 76.910181 
L 122.989153 77.244849 
L 137.830041 78.096645 
L 148.798158 78.464026 
L 163.152461 78.699937 
L 187.025179 78.827875 
L 222.951785 78.857671 
L 222.951785 78.857671 
" clip-path="url(#pbc21ad4237)" style="fill: none; stroke: #ff7f0e; stroke-width: 1.5; stroke-linecap: square"/>
   </g>
   <g id="line2d_19">
    <path d="M 62.610189 78.900676 
L 76.905804 78.882092 
L 77.499347 79.023853 
L 78.15305 79.500742 
L 79.690607 81.374203 
L 81.957022 84.341667 
L 83.749749 86.30513 
L 85.807387 88.101337 
L 87.764509 89.42864 
L 89.899633 90.538771 
L 92.423671 91.496235 
L 94.78167 92.120108 
L 95.957725 92.33467 
L 97.141743 92.128248 
L 98.759829 90.873899 
L 99.848213 89.575316 
L 105.788144 81.438863 
L 107.932802 79.148412 
L 109.94671 77.445895 
L 112.200057 76.013537 
L 114.146491 75.125494 
L 115.981133 74.539558 
L 118.097214 74.114581 
L 120.681548 73.885889 
L 123.176628 73.893262 
L 126.674473 74.159429 
L 131.565516 74.804957 
L 145.50066 76.779018 
L 152.415023 77.464786 
L 159.730385 77.965788 
L 168.726239 78.35114 
L 180.720998 78.624218 
L 198.305657 78.787943 
L 234.850665 78.855521 
L 234.850665 78.855521 
" clip-path="url(#pbc21ad4237)" style="fill: none; stroke: #2ca02c; stroke-width: 1.5; stroke-linecap: square"/>
   </g>
   <g id="line2d_20">
    <path d="M 62.646656 78.900676 
L 76.942651 78.938151 
L 77.541826 79.21553 
L 78.171504 79.913432 
L 78.841036 80.996378 
L 83.345117 89.496526 
L 85.378374 92.545392 
L 87.964009 95.656921 
L 90.467531 98.01065 
L 93.059558 99.910528 
L 96.331215 101.69798 
L 99.234118 102.873692 
L 100.7123 102.633635 
L 102.181304 101.180543 
L 104.165285 97.839861 
L 110.953731 83.891349 
L 112.706936 80.906836 
L 113.953163 79.034604 
L 115.175918 77.399818 
L 117.553782 74.770861 
L 119.846087 72.867143 
L 121.375227 71.902921 
L 123.535358 70.905063 
L 125.688347 70.27689 
L 128.018677 69.938076 
L 129.968007 69.878023 
L 132.844296 70.07738 
L 135.876845 70.557494 
L 139.568423 71.373505 
L 156.279253 75.383214 
L 161.278875 76.247451 
L 166.793351 76.983135 
L 172.967592 77.579516 
L 180.214364 78.050415 
L 189.120242 78.402899 
L 201.115245 78.650789 
L 219.37378 78.799001 
L 246.854454 78.853524 
L 246.854454 78.853524 
" clip-path="url(#pbc21ad4237)" style="fill: none; stroke: #d62728; stroke-width: 1.5; stroke-linecap: square"/>
   </g>
   <g id="line2d_21">
    <path d="M 62.792866 78.900369 
L 76.504608 78.879941 
L 77.090727 79.017402 
L 77.700516 79.489223 
L 78.351176 80.530086 
L 79.816621 84.030038 
L 82.879195 91.874982 
L 85.200605 96.909581 
L 86.318045 99.02786 
L 88.056084 101.972748 
L 89.306385 103.855884 
L 90.696222 105.744857 
L 92.142121 107.505585 
L 93.737569 109.233598 
L 95.292795 110.724779 
L 97.409673 112.483664 
L 99.077809 113.67581 
L 100.900217 114.815122 
L 102.65471 115.750931 
L 104.420712 115.262062 
L 106.169082 112.844134 
L 108.413141 107.770984 
L 111.8101 98.30477 
L 114.960025 89.658407 
L 116.484969 85.864949 
L 118.438103 81.494616 
L 119.980285 78.454658 
L 121.400884 75.975908 
L 122.792328 73.839199 
L 124.239786 71.909679 
L 125.491167 70.469642 
L 127.28431 68.749923 
L 128.557912 67.756518 
L 129.806704 66.951873 
L 131.031496 66.313564 
L 132.23306 65.821008 
L 134.641256 65.189764 
L 137.2357 64.964912 
L 139.396015 65.071962 
L 141.48444 65.379751 
L 144.859595 66.198527 
L 148.987339 67.551633 
L 164.696006 73.162339 
L 169.055177 74.373837 
L 173.49625 75.391201 
L 178.731311 76.331617 
L 184.152387 77.055782 
L 190.050746 77.619295 
L 197.268193 78.080058 
L 206.189003 78.423172 
L 218.941773 78.67137 
L 240.038424 78.816971 
L 258.124858 78.850913 
L 258.124858 78.850913 
" clip-path="url(#pbc21ad4237)" style="fill: none; stroke: #9467bd; stroke-width: 1.5; stroke-linecap: square"/>
   </g>
   <g id="line2d_22">
    <path d="M 62.683098 78.900522 
L 76.394803 78.879941 
L 77.053303 79.00404 
L 77.622551 79.408283 
L 78.272095 80.505665 
L 78.979492 82.316462 
L 84.089422 98.27221 
L 85.301772 101.537941 
L 87.100032 105.916875 
L 88.590828 109.16648 
L 89.977217 111.913086 
L 91.527118 114.702696 
L 93.1481 117.336569 
L 94.837745 119.806717 
L 96.593698 122.108226 
L 99.112067 124.992139 
L 101.016121 126.884952 
L 104.993629 130.215497 
L 107.040789 130.428216 
L 109.079973 128.616805 
L 111.815511 122.677882 
L 113.860315 116.14089 
L 119.348828 96.730345 
L 121.095787 91.042384 
L 123.435921 84.160741 
L 125.094289 79.84355 
L 126.71705 76.077276 
L 128.206778 73.012591 
L 129.955013 69.878791 
L 131.379808 67.676653 
L 133.326966 65.146913 
L 134.774289 63.600901 
L 136.191218 62.343172 
L 137.664419 61.284186 
L 139.105336 60.47478 
L 140.350754 59.941524 
L 142.05489 59.440368 
L 143.401867 59.214287 
L 145.862187 59.14118 
L 148.229695 59.425163 
L 150.929172 60.089736 
L 154.179945 61.254083 
L 157.64612 62.791034 
L 163.778054 65.850344 
L 170.125573 68.971703 
L 174.462302 70.880489 
L 178.343612 72.373052 
L 182.287745 73.666874 
L 186.774967 74.8753 
L 191.097462 75.800819 
L 195.938664 76.601624 
L 201.515509 77.278638 
L 208.036148 77.822952 
L 215.7477 78.233031 
L 225.980027 78.540359 
L 241.061348 78.743709 
L 267.810121 78.844923 
L 268.978704 78.847227 
L 268.978704 78.847227 
" clip-path="url(#pbc21ad4237)" style="fill: none; stroke: #8c564b; stroke-width: 1.5; stroke-linecap: square"/>
   </g>
   <g id="line2d_23">
    <path d="M 62.7564 78.900369 
L 76.468129 78.879941 
L 77.090727 79.017402 
L 77.701497 79.505503 
L 78.359679 80.763385 
L 79.081653 82.903167 
L 82.135528 94.546944 
L 84.454704 102.901491 
L 85.760184 107.148187 
L 87.711195 112.913094 
L 89.240911 116.992533 
L 90.861415 120.939118 
L 92.570164 124.728122 
L 94.479469 128.559209 
L 96.241889 131.759359 
L 98.953721 136.128771 
L 101.017299 139.055074 
L 103.154718 141.765279 
L 105.363303 144.261844 
L 107.63508 146.548916 
L 109.950563 147.247893 
L 113.122869 144.951145 
L 115.372068 140.811654 
L 117.549561 134.51303 
L 119.648575 126.278127 
L 125.598874 100.315538 
L 128.190324 90.279208 
L 130.026941 83.939115 
L 131.824232 78.383086 
L 133.691647 73.284133 
L 135.410176 69.1792 
L 136.987549 65.884901 
L 139.243228 61.915738 
L 140.841473 59.596567 
L 142.405055 57.694692 
L 143.934833 56.16066 
L 145.524121 54.884194 
L 146.986903 53.973727 
L 148.859717 53.146505 
L 150.337997 52.738269 
L 151.615182 52.543981 
L 153.03286 52.485771 
L 154.33915 52.565637 
L 155.619206 52.756853 
L 158.483532 53.53631 
L 160.932146 54.52096 
L 163.217972 55.64522 
L 166.89431 57.746605 
L 172.337386 61.200635 
L 179.130127 65.494635 
L 183.68876 68.100247 
L 187.741313 70.140043 
L 191.834638 71.906146 
L 195.706673 73.30625 
L 199.524166 74.447252 
L 203.848686 75.485657 
L 208.043584 76.274329 
L 212.771005 76.9538 
L 218.673671 77.563236 
L 225.861326 78.052412 
L 234.759387 78.412267 
L 246.869129 78.661233 
L 264.85069 78.802687 
L 279.216969 78.840777 
L 279.216969 78.840777 
" clip-path="url(#pbc21ad4237)" style="fill: none; stroke: #e377c2; stroke-width: 1.5; stroke-linecap: square"/>
   </g>
   <g id="line2d_24">
    <path d="M 62.647465 78.900676 
L 76.980296 78.980541 
L 77.545618 79.323656 
L 78.232389 80.46005 
L 78.94262 82.508447 
L 79.994268 86.626128 
L 84.336874 105.558863 
L 85.681999 110.81985 
L 87.711465 118.083004 
L 89.212837 122.977839 
L 91.027331 128.409615 
L 92.842107 133.369263 
L 94.757989 138.149368 
L 96.772118 142.724894 
L 99.69669 148.646461 
L 102.075229 152.907747 
L 104.256697 156.429048 
L 106.666206 159.932073 
L 109.311756 163.427725 
L 111.706626 165.236064 
L 115.245846 164.442785 
L 117.776657 161.479313 
L 120.235627 156.415993 
L 122.606019 149.214889 
L 124.879157 139.8525 
L 127.060577 128.847032 
L 131.999339 103.3621 
L 134.000596 94.132104 
L 135.960172 85.949268 
L 137.879072 78.782413 
L 139.873961 72.208099 
L 141.596944 67.22357 
L 144.171953 60.9059 
L 145.808284 57.551856 
L 147.516911 54.559357 
L 149.188225 52.103338 
L 150.92392 50.010708 
L 152.520619 48.467614 
L 154.659253 46.926517 
L 156.080747 46.207728 
L 157.565223 45.695052 
L 159.017822 45.410762 
L 160.52728 45.323985 
L 161.917044 45.415984 
L 163.697194 45.750651 
L 166.398511 46.663115 
L 168.912438 47.876303 
L 171.698677 49.541498 
L 175.206436 51.981697 
L 179.897059 55.58271 
L 188.008396 61.881488 
L 191.879559 64.639306 
L 195.292875 66.850045 
L 198.753602 68.851444 
L 202.118917 70.556726 
L 205.859109 72.175846 
L 209.680467 73.549994 
L 213.375542 74.637547 
L 217.626293 75.636326 
L 222.403593 76.493959 
L 227.690348 77.188021 
L 233.710782 77.738633 
L 240.871541 78.164992 
L 250.276322 78.490904 
L 263.594892 78.711149 
L 286.626763 78.831101 
L 288.380335 78.834633 
L 288.380335 78.834633 
" clip-path="url(#pbc21ad4237)" style="fill: none; stroke: #7f7f7f; stroke-width: 1.5; stroke-linecap: square"/>
   </g>
   <g id="line2d_25">
    <path d="M 62.646643 78.900676 
L 76.942664 78.96979 
L 77.583606 79.364664 
L 78.231554 80.46005 
L 78.941835 82.509061 
L 79.729896 85.557313 
L 81.985881 96.399978 
L 84.377733 108.067101 
L 87.256673 120.686927 
L 89.520425 129.47198 
L 91.310158 135.788728 
L 93.218223 141.982452 
L 95.24218 148.008612 
L 97.379231 153.830962 
L 99.626406 159.41863 
L 102.890493 166.676101 
L 105.386813 171.619162 
L 107.982668 176.26457 
L 110.669948 180.689888 
L 113.438334 183.782833 
L 116.424759 184.683317 
L 119.221795 183.256028 
L 122.798488 178.399898 
L 125.418613 172.29249 
L 127.933326 164.064806 
L 130.336761 153.698416 
L 132.628305 141.242007 
L 137.762751 110.25603 
L 139.84109 98.834494 
L 141.87809 88.69142 
L 143.874918 79.802235 
L 145.831929 72.088915 
L 147.867702 65.072423 
L 150.320684 57.902343 
L 152.256738 53.166625 
L 153.928444 49.686332 
L 155.782018 46.441795 
L 157.487345 43.987466 
L 159.15537 42.042434 
L 161.38933 40.085882 
L 162.873942 39.162668 
L 164.519685 38.460312 
L 166.033892 38.089245 
L 167.515301 37.960231 
L 168.964856 38.039789 
L 170.820749 38.41055 
L 172.285569 38.895425 
L 174.956015 40.157301 
L 177.519109 41.752921 
L 180.433067 43.922652 
L 183.929206 46.879519 
L 189.739662 52.226516 
L 196.000493 57.978215 
L 199.973572 61.368045 
L 203.46749 64.08977 
L 207.051237 66.5891 
L 210.477166 68.686798 
L 213.492059 70.297778 
L 216.725102 71.789573 
L 220.465907 73.235446 
L 223.92153 74.333136 
L 228.150477 75.410092 
L 232.270368 76.225027 
L 237.12627 76.950421 
L 242.96269 77.568458 
L 249.492445 78.028913 
L 257.724165 78.385082 
L 269.668493 78.650789 
L 288.993817 78.806834 
L 296.451402 78.829411 
L 296.451402 78.829411 
" clip-path="url(#pbc21ad4237)" style="fill: none; stroke: #bcbd22; stroke-width: 1.5; stroke-linecap: square"/>
   </g>
   <g id="line2d_26">
    <path d="M 62.719405 78.900522 
L 76.431122 78.879941 
L 77.016174 78.991907 
L 77.622429 79.408743 
L 78.273788 80.559114 
L 78.988498 82.670174 
L 80.102393 87.201774 
L 82.052545 97.023236 
L 85.859167 117.08576 
L 87.388503 124.490829 
L 89.710207 134.860906 
L 91.557388 142.412958 
L 93.536535 149.889906 
L 95.78171 157.684012 
L 98.026075 164.825525 
L 100.39486 171.736196 
L 103.687634 180.398379 
L 106.332275 186.651848 
L 109.090771 192.581248 
L 111.953624 198.256461 
L 115.099954 202.718332 
L 118.117754 204.67043 
L 122.06963 203.760884 
L 125.373962 200.268765 
L 128.034837 195.380842 
L 130.931077 187.63358 
L 133.374206 178.828407 
L 135.861299 167.384293 
L 138.941493 149.202755 
L 143.351229 119.800881 
L 145.611803 105.919179 
L 147.697209 94.332843 
L 149.743129 84.163967 
L 152.492005 72.332352 
L 154.32337 65.558374 
L 156.238332 59.363882 
L 158.229442 53.825976 
L 160.062562 49.486361 
L 161.856393 45.895331 
L 163.611401 42.965495 
L 165.962087 39.872396 
L 167.627216 38.209504 
L 169.25572 36.971588 
L 170.848419 36.104279 
L 172.406184 35.558583 
L 173.929938 35.291648 
L 175.971281 35.309771 
L 177.418027 35.559044 
L 178.833865 35.974037 
L 180.219837 36.52941 
L 182.988038 38.024738 
L 186.033569 40.158683 
L 188.413372 42.100797 
L 192.353333 45.679233 
L 199.175731 52.346928 
L 204.111978 57.080496 
L 208.096541 60.634511 
L 211.861826 63.683838 
L 215.141225 66.058608 
L 218.576173 68.252145 
L 221.876149 70.079683 
L 225.508634 71.787423 
L 229.319624 73.266471 
L 232.928047 74.407319 
L 237.178087 75.476442 
L 241.281621 76.276479 
L 245.927544 76.963783 
L 251.141992 77.524071 
L 257.673784 78.001574 
L 265.907148 78.370031 
L 277.226718 78.635123 
L 293.410006 78.789018 
L 303.430809 78.826339 
L 303.430809 78.826339 
" clip-path="url(#pbc21ad4237)" style="fill: none; stroke: #17becf; stroke-width: 1.5; stroke-linecap: square"/>
   </g>
   <g id="line2d_27">
    <path d="M 62.719577 78.900522 
L 76.431282 78.879941 
L 77.016334 78.991907 
L 77.6226 79.408743 
L 78.316586 80.662018 
L 79.083248 83.004381 
L 81.024701 91.652127 
L 83.194918 103.290682 
L 87.988205 129.569354 
L 89.82362 138.753735 
L 91.699489 147.517439 
L 93.719262 156.290666 
L 95.88192 164.989249 
L 98.185575 173.544382 
L 101.578902 184.96899 
L 104.207261 192.96875 
L 106.967291 200.664406 
L 110.040135 208.477865 
L 112.861503 215.107317 
L 115.978814 220.720634 
L 120.572307 224.961646 
L 123.571456 225.124602 
L 126.911213 223.139944 
L 129.770998 219.54016 
L 132.710478 213.725797 
L 135.524619 205.844606 
L 138.208734 195.880155 
L 141.838138 177.875089 
L 144.062319 163.798331 
L 148.536583 131.899738 
L 150.95997 115.793321 
L 152.940172 103.850662 
L 155.655145 89.375038 
L 157.678783 79.984082 
L 159.663132 71.875736 
L 161.728121 64.525958 
L 163.630591 58.672584 
L 165.493294 53.735974 
L 167.878005 48.476676 
L 169.649603 45.281134 
L 171.489643 42.552805 
L 173.182319 40.534358 
L 174.837731 38.981127 
L 176.456737 37.834443 
L 178.527774 36.859623 
L 180.065773 36.461985 
L 181.663196 36.316998 
L 183.13312 36.404697 
L 184.571485 36.677622 
L 185.979249 37.108281 
L 187.866689 37.913387 
L 190.435758 39.372008 
L 193.06105 41.216287 
L 195.954038 43.565561 
L 199.426103 46.685538 
L 214.159554 60.435462 
L 218.067429 63.587692 
L 221.673422 66.178099 
L 224.780132 68.15047 
L 228.147582 70.018095 
L 231.349581 71.542451 
L 234.844738 72.947316 
L 238.531064 74.167262 
L 242.11599 75.130256 
L 246.262212 76.013691 
L 250.985486 76.777482 
L 256.192952 77.390142 
L 262.753395 77.915719 
L 270.450493 78.300149 
L 281.240595 78.592426 
L 297.369073 78.773352 
L 309.295327 78.824804 
L 309.295327 78.824804 
" clip-path="url(#pbc21ad4237)" style="fill: none; stroke: #1f77b4; stroke-width: 1.5; stroke-linecap: square"/>
   </g>
   <g id="patch_3">
    <path d="M 50.2375 234.61625 
L 50.2375 25.8 
" style="fill: none; stroke: #000000; stroke-width: 0.8; stroke-linejoin: miter; stroke-linecap: square"/>
   </g>
   <g id="patch_4">
    <path d="M 321.631414 234.61625 
L 321.631414 25.8 
" style="fill: none; stroke: #000000; stroke-width: 0.8; stroke-linejoin: miter; stroke-linecap: square"/>
   </g>
   <g id="patch_5">
    <path d="M 50.2375 234.61625 
L 321.631414 234.61625 
" style="fill: none; stroke: #000000; stroke-width: 0.8; stroke-linejoin: miter; stroke-linecap: square"/>
   </g>
   <g id="patch_6">
    <path d="M 50.2375 25.8 
L 321.631414 25.8 
" style="fill: none; stroke: #000000; stroke-width: 0.8; stroke-linejoin: miter; stroke-linecap: square"/>
   </g>
   <g id="text_19">
    <!-- The Acceleration Flight Trajectory -->
    <g transform="translate(102.78102 19.8) scale(0.12 -0.12)">
     <defs>
      <path id="TimesNewRomanPSMT-54" d="M 3703 4238 
L 3750 3244 
L 3631 3244 
Q 3597 3506 3538 3619 
Q 3441 3800 3280 3886 
Q 3119 3972 2856 3972 
L 2259 3972 
L 2259 734 
Q 2259 344 2344 247 
Q 2463 116 2709 116 
L 2856 116 
L 2856 0 
L 1059 0 
L 1059 116 
L 1209 116 
Q 1478 116 1591 278 
Q 1659 378 1659 734 
L 1659 3972 
L 1150 3972 
Q 853 3972 728 3928 
Q 566 3869 450 3700 
Q 334 3531 313 3244 
L 194 3244 
L 244 4238 
L 3703 4238 
z
" transform="scale(0.015625)"/>
      <path id="TimesNewRomanPSMT-41" d="M 2928 1419 
L 1288 1419 
L 1000 750 
Q 894 503 894 381 
Q 894 284 986 211 
Q 1078 138 1384 116 
L 1384 0 
L 50 0 
L 50 116 
Q 316 163 394 238 
Q 553 388 747 847 
L 2238 4334 
L 2347 4334 
L 3822 809 
Q 4000 384 4145 257 
Q 4291 131 4550 116 
L 4550 0 
L 2878 0 
L 2878 116 
Q 3131 128 3220 200 
Q 3309 272 3309 375 
Q 3309 513 3184 809 
L 2928 1419 
z
M 2841 1650 
L 2122 3363 
L 1384 1650 
L 2841 1650 
z
" transform="scale(0.015625)"/>
      <path id="TimesNewRomanPSMT-6c" d="M 1184 4444 
L 1184 647 
Q 1184 378 1223 290 
Q 1263 203 1344 158 
Q 1425 113 1647 113 
L 1647 0 
L 244 0 
L 244 113 
Q 441 113 512 153 
Q 584 194 625 287 
Q 666 381 666 647 
L 666 3247 
Q 666 3731 644 3842 
Q 622 3953 573 3993 
Q 525 4034 450 4034 
Q 369 4034 244 3984 
L 191 4094 
L 1044 4444 
L 1184 4444 
z
" transform="scale(0.015625)"/>
      <path id="TimesNewRomanPSMT-72" d="M 1038 2947 
L 1038 2303 
Q 1397 2947 1775 2947 
Q 1947 2947 2059 2842 
Q 2172 2738 2172 2600 
Q 2172 2478 2090 2393 
Q 2009 2309 1897 2309 
Q 1788 2309 1652 2417 
Q 1516 2525 1450 2525 
Q 1394 2525 1328 2463 
Q 1188 2334 1038 2041 
L 1038 669 
Q 1038 431 1097 309 
Q 1138 225 1241 169 
Q 1344 113 1538 113 
L 1538 0 
L 72 0 
L 72 113 
Q 291 113 397 181 
Q 475 231 506 341 
Q 522 394 522 644 
L 522 1753 
Q 522 2253 501 2348 
Q 481 2444 426 2487 
Q 372 2531 291 2531 
Q 194 2531 72 2484 
L 41 2597 
L 906 2947 
L 1038 2947 
z
" transform="scale(0.015625)"/>
      <path id="TimesNewRomanPSMT-6f" d="M 1600 2947 
Q 2250 2947 2644 2453 
Q 2978 2031 2978 1484 
Q 2978 1100 2793 706 
Q 2609 313 2286 112 
Q 1963 -88 1566 -88 
Q 919 -88 538 428 
Q 216 863 216 1403 
Q 216 1797 411 2186 
Q 606 2575 925 2761 
Q 1244 2947 1600 2947 
z
M 1503 2744 
Q 1338 2744 1170 2645 
Q 1003 2547 900 2300 
Q 797 2053 797 1666 
Q 797 1041 1045 587 
Q 1294 134 1700 134 
Q 2003 134 2200 384 
Q 2397 634 2397 1244 
Q 2397 2006 2069 2444 
Q 1847 2744 1503 2744 
z
" transform="scale(0.015625)"/>
      <path id="TimesNewRomanPSMT-46" d="M 1309 4006 
L 1309 2341 
L 2081 2341 
Q 2347 2341 2470 2458 
Q 2594 2575 2634 2922 
L 2750 2922 
L 2750 1488 
L 2634 1488 
Q 2631 1734 2570 1850 
Q 2509 1966 2401 2023 
Q 2294 2081 2081 2081 
L 1309 2081 
L 1309 750 
Q 1309 428 1350 325 
Q 1381 247 1481 191 
Q 1619 116 1769 116 
L 1922 116 
L 1922 0 
L 103 0 
L 103 116 
L 253 116 
Q 516 116 634 269 
Q 709 369 709 750 
L 709 3488 
Q 709 3809 669 3913 
Q 638 3991 541 4047 
Q 406 4122 253 4122 
L 103 4122 
L 103 4238 
L 3256 4238 
L 3297 3306 
L 3188 3306 
Q 3106 3603 2998 3742 
Q 2891 3881 2733 3943 
Q 2575 4006 2244 4006 
L 1309 4006 
z
" transform="scale(0.015625)"/>
      <path id="TimesNewRomanPSMT-6a" d="M 925 4447 
Q 1059 4447 1153 4353 
Q 1247 4259 1247 4125 
Q 1247 3994 1153 3900 
Q 1059 3806 925 3806 
Q 794 3806 700 3900 
Q 606 3994 606 4125 
Q 606 4259 700 4353 
Q 794 4447 925 4447 
z
M 1194 2947 
L 1194 66 
Q 1194 -669 881 -1025 
Q 569 -1381 69 -1381 
Q -216 -1381 -353 -1278 
Q -491 -1175 -491 -1066 
Q -491 -956 -414 -878 
Q -338 -800 -234 -800 
Q -153 -800 -69 -841 
Q -16 -863 136 -998 
Q 288 -1134 391 -1134 
Q 466 -1134 537 -1076 
Q 609 -1019 643 -883 
Q 678 -747 678 -294 
L 678 1744 
Q 678 2216 650 2350 
Q 628 2453 581 2492 
Q 534 2531 453 2531 
Q 366 2531 241 2484 
L 197 2597 
L 1059 2947 
L 1194 2947 
z
" transform="scale(0.015625)"/>
      <path id="TimesNewRomanPSMT-79" d="M 38 2863 
L 1372 2863 
L 1372 2747 
L 1306 2747 
Q 1166 2747 1095 2686 
Q 1025 2625 1025 2534 
Q 1025 2413 1128 2197 
L 1825 753 
L 2466 2334 
Q 2519 2463 2519 2588 
Q 2519 2644 2497 2672 
Q 2472 2706 2419 2726 
Q 2366 2747 2231 2747 
L 2231 2863 
L 3163 2863 
L 3163 2747 
Q 3047 2734 2984 2696 
Q 2922 2659 2847 2556 
Q 2819 2513 2741 2316 
L 1575 -541 
Q 1406 -956 1132 -1168 
Q 859 -1381 606 -1381 
Q 422 -1381 303 -1275 
Q 184 -1169 184 -1031 
Q 184 -900 270 -820 
Q 356 -741 506 -741 
Q 609 -741 788 -809 
Q 913 -856 944 -856 
Q 1038 -856 1148 -759 
Q 1259 -663 1372 -384 
L 1575 113 
L 547 2272 
Q 500 2369 397 2513 
Q 319 2622 269 2659 
Q 197 2709 38 2747 
L 38 2863 
z
" transform="scale(0.015625)"/>
     </defs>
     <use xlink:href="#TimesNewRomanPSMT-54"/>
     <use xlink:href="#TimesNewRomanPSMT-68" x="61.083984"/>
     <use xlink:href="#TimesNewRomanPSMT-65" x="111.083984"/>
     <use xlink:href="#TimesNewRomanPSMT-20" x="155.46875"/>
     <use xlink:href="#TimesNewRomanPSMT-41" x="174.96875"/>
     <use xlink:href="#TimesNewRomanPSMT-63" x="247.185547"/>
     <use xlink:href="#TimesNewRomanPSMT-63" x="291.570312"/>
     <use xlink:href="#TimesNewRomanPSMT-65" x="335.955078"/>
     <use xlink:href="#TimesNewRomanPSMT-6c" x="380.339844"/>
     <use xlink:href="#TimesNewRomanPSMT-65" x="408.123047"/>
     <use xlink:href="#TimesNewRomanPSMT-72" x="452.507812"/>
     <use xlink:href="#TimesNewRomanPSMT-61" x="485.808594"/>
     <use xlink:href="#TimesNewRomanPSMT-74" x="530.193359"/>
     <use xlink:href="#TimesNewRomanPSMT-69" x="557.976562"/>
     <use xlink:href="#TimesNewRomanPSMT-6f" x="585.759766"/>
     <use xlink:href="#TimesNewRomanPSMT-6e" x="635.759766"/>
     <use xlink:href="#TimesNewRomanPSMT-20" x="685.759766"/>
     <use xlink:href="#TimesNewRomanPSMT-46" x="710.759766"/>
     <use xlink:href="#TimesNewRomanPSMT-6c" x="766.375"/>
     <use xlink:href="#TimesNewRomanPSMT-69" x="794.158203"/>
     <use xlink:href="#TimesNewRomanPSMT-67" x="821.941406"/>
     <use xlink:href="#TimesNewRomanPSMT-68" x="871.941406"/>
     <use xlink:href="#TimesNewRomanPSMT-74" x="921.941406"/>
     <use xlink:href="#TimesNewRomanPSMT-20" x="949.724609"/>
     <use xlink:href="#TimesNewRomanPSMT-54" x="972.974609"/>
     <use xlink:href="#TimesNewRomanPSMT-72" x="1030.558594"/>
     <use xlink:href="#TimesNewRomanPSMT-61" x="1063.859375"/>
     <use xlink:href="#TimesNewRomanPSMT-6a" x="1108.244141"/>
     <use xlink:href="#TimesNewRomanPSMT-65" x="1136.027344"/>
     <use xlink:href="#TimesNewRomanPSMT-63" x="1180.412109"/>
     <use xlink:href="#TimesNewRomanPSMT-74" x="1224.796875"/>
     <use xlink:href="#TimesNewRomanPSMT-6f" x="1252.580078"/>
     <use xlink:href="#TimesNewRomanPSMT-72" x="1302.580078"/>
     <use xlink:href="#TimesNewRomanPSMT-79" x="1335.880859"/>
    </g>
   </g>
   <g id="legend_1">
    <g id="patch_7">
     <path d="M 334.059292 238.4 
L 416.159292 238.4 
Q 418.159292 238.4 418.159292 236.4 
L 418.159292 32.8 
Q 418.159292 30.8 416.159292 30.8 
L 334.059292 30.8 
Q 332.059292 30.8 332.059292 32.8 
L 332.059292 236.4 
Q 332.059292 238.4 334.059292 238.4 
z
" style="fill: #ffffff; opacity: 0.8; stroke: #cccccc; stroke-linejoin: miter"/>
    </g>
    <g id="line2d_28">
     <path d="M 336.059292 42.1 
L 346.059292 42.1 
L 356.059292 42.1 
" style="fill: none; stroke: #1f77b4; stroke-width: 1.5; stroke-linecap: square"/>
    </g>
    <g id="text_20">
     <!-- $a_{i}^k$ = 0 $\mathregular{m^2}$/s -->
     <g transform="translate(364.059292 45.6) scale(0.1 -0.1)">
      <defs>
       <path id="DejaVuSans-Oblique-61" d="M 3438 1997 
L 3047 0 
L 2472 0 
L 2578 531 
Q 2325 219 2001 64 
Q 1678 -91 1281 -91 
Q 834 -91 548 182 
Q 263 456 263 884 
Q 263 1497 752 1853 
Q 1241 2209 2100 2209 
L 2900 2209 
L 2931 2363 
Q 2938 2388 2941 2417 
Q 2944 2447 2944 2509 
Q 2944 2788 2717 2942 
Q 2491 3097 2081 3097 
Q 1800 3097 1504 3025 
Q 1209 2953 897 2809 
L 997 3341 
Q 1322 3463 1633 3523 
Q 1944 3584 2234 3584 
Q 2853 3584 3176 3315 
Q 3500 3047 3500 2534 
Q 3500 2431 3484 2292 
Q 3469 2153 3438 1997 
z
M 2816 1759 
L 2241 1759 
Q 1534 1759 1195 1570 
Q 856 1381 856 984 
Q 856 709 1029 553 
Q 1203 397 1509 397 
Q 1978 397 2328 733 
Q 2678 1069 2791 1631 
L 2816 1759 
z
" transform="scale(0.015625)"/>
       <path id="DejaVuSans-Oblique-6b" d="M 1172 4863 
L 1747 4863 
L 1197 2028 
L 3169 3500 
L 3916 3500 
L 1716 1825 
L 3322 0 
L 2625 0 
L 1131 1709 
L 800 0 
L 225 0 
L 1172 4863 
z
" transform="scale(0.015625)"/>
       <path id="DejaVuSans-Oblique-69" d="M 1172 4863 
L 1747 4863 
L 1606 4134 
L 1031 4134 
L 1172 4863 
z
M 909 3500 
L 1484 3500 
L 800 0 
L 225 0 
L 909 3500 
z
" transform="scale(0.015625)"/>
       <path id="TimesNewRomanPSMT-3d" d="M 116 2759 
L 3488 2759 
L 3488 2503 
L 116 2503 
L 116 2759 
z
M 116 1741 
L 3488 1741 
L 3488 1484 
L 116 1484 
L 116 1741 
z
" transform="scale(0.015625)"/>
       <path id="TimesNewRomanPSMT-2f" d="M 1794 4444 
L 259 -88 
L 9 -88 
L 1544 4444 
L 1794 4444 
z
" transform="scale(0.015625)"/>
      </defs>
      <use xlink:href="#DejaVuSans-Oblique-61" transform="translate(0 0.582813)"/>
      <use xlink:href="#DejaVuSans-Oblique-6b" transform="translate(65.929193 38.928125) scale(0.7)"/>
      <use xlink:href="#DejaVuSans-Oblique-69" transform="translate(61.279297 -26.760937) scale(0.7)"/>
      <use xlink:href="#TimesNewRomanPSMT-20" transform="translate(109.200677 0.582813)"/>
      <use xlink:href="#TimesNewRomanPSMT-3d" transform="translate(134.200677 0.582813)"/>
      <use xlink:href="#TimesNewRomanPSMT-20" transform="translate(190.597161 0.582813)"/>
      <use xlink:href="#TimesNewRomanPSMT-30" transform="translate(215.597161 0.582813)"/>
      <use xlink:href="#TimesNewRomanPSMT-20" transform="translate(265.597161 0.582813)"/>
      <use xlink:href="#TimesNewRomanPSMT-6d" transform="translate(290.597161 0.582813)"/>
      <use xlink:href="#TimesNewRomanPSMT-32" transform="translate(369.883177 60.695312) scale(0.7)"/>
      <use xlink:href="#TimesNewRomanPSMT-2f" transform="translate(409.176927 0.582813)"/>
      <use xlink:href="#TimesNewRomanPSMT-73" transform="translate(436.96013 0.582813)"/>
     </g>
    </g>
    <g id="line2d_29">
     <path d="M 336.059292 60.7 
L 346.059292 60.7 
L 356.059292 60.7 
" style="fill: none; stroke: #ff7f0e; stroke-width: 1.5; stroke-linecap: square"/>
    </g>
    <g id="text_21">
     <!-- $a_{i}^k$ = 1 $\mathregular{m^2}$/s -->
     <g transform="translate(364.059292 64.2) scale(0.1 -0.1)">
      <use xlink:href="#DejaVuSans-Oblique-61" transform="translate(0 0.582813)"/>
      <use xlink:href="#DejaVuSans-Oblique-6b" transform="translate(65.929193 38.928125) scale(0.7)"/>
      <use xlink:href="#DejaVuSans-Oblique-69" transform="translate(61.279297 -26.760937) scale(0.7)"/>
      <use xlink:href="#TimesNewRomanPSMT-20" transform="translate(109.200677 0.582813)"/>
      <use xlink:href="#TimesNewRomanPSMT-3d" transform="translate(134.200677 0.582813)"/>
      <use xlink:href="#TimesNewRomanPSMT-20" transform="translate(190.597161 0.582813)"/>
      <use xlink:href="#TimesNewRomanPSMT-31" transform="translate(215.597161 0.582813)"/>
      <use xlink:href="#TimesNewRomanPSMT-20" transform="translate(265.597161 0.582813)"/>
      <use xlink:href="#TimesNewRomanPSMT-6d" transform="translate(290.597161 0.582813)"/>
      <use xlink:href="#TimesNewRomanPSMT-32" transform="translate(369.883177 60.695312) scale(0.7)"/>
      <use xlink:href="#TimesNewRomanPSMT-2f" transform="translate(409.176927 0.582813)"/>
      <use xlink:href="#TimesNewRomanPSMT-73" transform="translate(436.96013 0.582813)"/>
     </g>
    </g>
    <g id="line2d_30">
     <path d="M 336.059292 79.3 
L 346.059292 79.3 
L 356.059292 79.3 
" style="fill: none; stroke: #2ca02c; stroke-width: 1.5; stroke-linecap: square"/>
    </g>
    <g id="text_22">
     <!-- $a_{i}^k$ = 2 $\mathregular{m^2}$/s -->
     <g transform="translate(364.059292 82.8) scale(0.1 -0.1)">
      <use xlink:href="#DejaVuSans-Oblique-61" transform="translate(0 0.582813)"/>
      <use xlink:href="#DejaVuSans-Oblique-6b" transform="translate(65.929193 38.928125) scale(0.7)"/>
      <use xlink:href="#DejaVuSans-Oblique-69" transform="translate(61.279297 -26.760937) scale(0.7)"/>
      <use xlink:href="#TimesNewRomanPSMT-20" transform="translate(109.200677 0.582813)"/>
      <use xlink:href="#TimesNewRomanPSMT-3d" transform="translate(134.200677 0.582813)"/>
      <use xlink:href="#TimesNewRomanPSMT-20" transform="translate(190.597161 0.582813)"/>
      <use xlink:href="#TimesNewRomanPSMT-32" transform="translate(215.597161 0.582813)"/>
      <use xlink:href="#TimesNewRomanPSMT-20" transform="translate(265.597161 0.582813)"/>
      <use xlink:href="#TimesNewRomanPSMT-6d" transform="translate(290.597161 0.582813)"/>
      <use xlink:href="#TimesNewRomanPSMT-32" transform="translate(369.883177 60.695312) scale(0.7)"/>
      <use xlink:href="#TimesNewRomanPSMT-2f" transform="translate(409.176927 0.582813)"/>
      <use xlink:href="#TimesNewRomanPSMT-73" transform="translate(436.96013 0.582813)"/>
     </g>
    </g>
    <g id="line2d_31">
     <path d="M 336.059292 97.9 
L 346.059292 97.9 
L 356.059292 97.9 
" style="fill: none; stroke: #d62728; stroke-width: 1.5; stroke-linecap: square"/>
    </g>
    <g id="text_23">
     <!-- $a_{i}^k$ = 3 $\mathregular{m^2}$/s -->
     <g transform="translate(364.059292 101.4) scale(0.1 -0.1)">
      <defs>
       <path id="TimesNewRomanPSMT-33" d="M 325 3431 
Q 506 3859 782 4092 
Q 1059 4325 1472 4325 
Q 1981 4325 2253 3994 
Q 2459 3747 2459 3466 
Q 2459 3003 1878 2509 
Q 2269 2356 2469 2072 
Q 2669 1788 2669 1403 
Q 2669 853 2319 450 
Q 1863 -75 997 -75 
Q 569 -75 414 31 
Q 259 138 259 259 
Q 259 350 332 419 
Q 406 488 509 488 
Q 588 488 669 463 
Q 722 447 909 348 
Q 1097 250 1169 231 
Q 1284 197 1416 197 
Q 1734 197 1970 444 
Q 2206 691 2206 1028 
Q 2206 1275 2097 1509 
Q 2016 1684 1919 1775 
Q 1784 1900 1550 2001 
Q 1316 2103 1072 2103 
L 972 2103 
L 972 2197 
Q 1219 2228 1467 2375 
Q 1716 2522 1828 2728 
Q 1941 2934 1941 3181 
Q 1941 3503 1739 3701 
Q 1538 3900 1238 3900 
Q 753 3900 428 3381 
L 325 3431 
z
" transform="scale(0.015625)"/>
      </defs>
      <use xlink:href="#DejaVuSans-Oblique-61" transform="translate(0 0.582813)"/>
      <use xlink:href="#DejaVuSans-Oblique-6b" transform="translate(65.929193 38.928125) scale(0.7)"/>
      <use xlink:href="#DejaVuSans-Oblique-69" transform="translate(61.279297 -26.760937) scale(0.7)"/>
      <use xlink:href="#TimesNewRomanPSMT-20" transform="translate(109.200677 0.582813)"/>
      <use xlink:href="#TimesNewRomanPSMT-3d" transform="translate(134.200677 0.582813)"/>
      <use xlink:href="#TimesNewRomanPSMT-20" transform="translate(190.597161 0.582813)"/>
      <use xlink:href="#TimesNewRomanPSMT-33" transform="translate(215.597161 0.582813)"/>
      <use xlink:href="#TimesNewRomanPSMT-20" transform="translate(265.597161 0.582813)"/>
      <use xlink:href="#TimesNewRomanPSMT-6d" transform="translate(290.597161 0.582813)"/>
      <use xlink:href="#TimesNewRomanPSMT-32" transform="translate(369.883177 60.695312) scale(0.7)"/>
      <use xlink:href="#TimesNewRomanPSMT-2f" transform="translate(409.176927 0.582813)"/>
      <use xlink:href="#TimesNewRomanPSMT-73" transform="translate(436.96013 0.582813)"/>
     </g>
    </g>
    <g id="line2d_32">
     <path d="M 336.059292 116.5 
L 346.059292 116.5 
L 356.059292 116.5 
" style="fill: none; stroke: #9467bd; stroke-width: 1.5; stroke-linecap: square"/>
    </g>
    <g id="text_24">
     <!-- $a_{i}^k$ = 4 $\mathregular{m^2}$/s -->
     <g transform="translate(364.059292 120) scale(0.1 -0.1)">
      <use xlink:href="#DejaVuSans-Oblique-61" transform="translate(0 0.582813)"/>
      <use xlink:href="#DejaVuSans-Oblique-6b" transform="translate(65.929193 38.928125) scale(0.7)"/>
      <use xlink:href="#DejaVuSans-Oblique-69" transform="translate(61.279297 -26.760937) scale(0.7)"/>
      <use xlink:href="#TimesNewRomanPSMT-20" transform="translate(109.200677 0.582813)"/>
      <use xlink:href="#TimesNewRomanPSMT-3d" transform="translate(134.200677 0.582813)"/>
      <use xlink:href="#TimesNewRomanPSMT-20" transform="translate(190.597161 0.582813)"/>
      <use xlink:href="#TimesNewRomanPSMT-34" transform="translate(215.597161 0.582813)"/>
      <use xlink:href="#TimesNewRomanPSMT-20" transform="translate(265.597161 0.582813)"/>
      <use xlink:href="#TimesNewRomanPSMT-6d" transform="translate(290.597161 0.582813)"/>
      <use xlink:href="#TimesNewRomanPSMT-32" transform="translate(369.883177 60.695312) scale(0.7)"/>
      <use xlink:href="#TimesNewRomanPSMT-2f" transform="translate(409.176927 0.582813)"/>
      <use xlink:href="#TimesNewRomanPSMT-73" transform="translate(436.96013 0.582813)"/>
     </g>
    </g>
    <g id="line2d_33">
     <path d="M 336.059292 135.1 
L 346.059292 135.1 
L 356.059292 135.1 
" style="fill: none; stroke: #8c564b; stroke-width: 1.5; stroke-linecap: square"/>
    </g>
    <g id="text_25">
     <!-- $a_{i}^k$ = 5 $\mathregular{m^2}$/s -->
     <g transform="translate(364.059292 138.6) scale(0.1 -0.1)">
      <use xlink:href="#DejaVuSans-Oblique-61" transform="translate(0 0.582813)"/>
      <use xlink:href="#DejaVuSans-Oblique-6b" transform="translate(65.929193 38.928125) scale(0.7)"/>
      <use xlink:href="#DejaVuSans-Oblique-69" transform="translate(61.279297 -26.760937) scale(0.7)"/>
      <use xlink:href="#TimesNewRomanPSMT-20" transform="translate(109.200677 0.582813)"/>
      <use xlink:href="#TimesNewRomanPSMT-3d" transform="translate(134.200677 0.582813)"/>
      <use xlink:href="#TimesNewRomanPSMT-20" transform="translate(190.597161 0.582813)"/>
      <use xlink:href="#TimesNewRomanPSMT-35" transform="translate(215.597161 0.582813)"/>
      <use xlink:href="#TimesNewRomanPSMT-20" transform="translate(265.597161 0.582813)"/>
      <use xlink:href="#TimesNewRomanPSMT-6d" transform="translate(290.597161 0.582813)"/>
      <use xlink:href="#TimesNewRomanPSMT-32" transform="translate(369.883177 60.695312) scale(0.7)"/>
      <use xlink:href="#TimesNewRomanPSMT-2f" transform="translate(409.176927 0.582813)"/>
      <use xlink:href="#TimesNewRomanPSMT-73" transform="translate(436.96013 0.582813)"/>
     </g>
    </g>
    <g id="line2d_34">
     <path d="M 336.059292 153.7 
L 346.059292 153.7 
L 356.059292 153.7 
" style="fill: none; stroke: #e377c2; stroke-width: 1.5; stroke-linecap: square"/>
    </g>
    <g id="text_26">
     <!-- $a_{i}^k$ = 6 $\mathregular{m^2}$/s -->
     <g transform="translate(364.059292 157.2) scale(0.1 -0.1)">
      <use xlink:href="#DejaVuSans-Oblique-61" transform="translate(0 0.582813)"/>
      <use xlink:href="#DejaVuSans-Oblique-6b" transform="translate(65.929193 38.928125) scale(0.7)"/>
      <use xlink:href="#DejaVuSans-Oblique-69" transform="translate(61.279297 -26.760937) scale(0.7)"/>
      <use xlink:href="#TimesNewRomanPSMT-20" transform="translate(109.200677 0.582813)"/>
      <use xlink:href="#TimesNewRomanPSMT-3d" transform="translate(134.200677 0.582813)"/>
      <use xlink:href="#TimesNewRomanPSMT-20" transform="translate(190.597161 0.582813)"/>
      <use xlink:href="#TimesNewRomanPSMT-36" transform="translate(215.597161 0.582813)"/>
      <use xlink:href="#TimesNewRomanPSMT-20" transform="translate(265.597161 0.582813)"/>
      <use xlink:href="#TimesNewRomanPSMT-6d" transform="translate(290.597161 0.582813)"/>
      <use xlink:href="#TimesNewRomanPSMT-32" transform="translate(369.883177 60.695312) scale(0.7)"/>
      <use xlink:href="#TimesNewRomanPSMT-2f" transform="translate(409.176927 0.582813)"/>
      <use xlink:href="#TimesNewRomanPSMT-73" transform="translate(436.96013 0.582813)"/>
     </g>
    </g>
    <g id="line2d_35">
     <path d="M 336.059292 172.3 
L 346.059292 172.3 
L 356.059292 172.3 
" style="fill: none; stroke: #7f7f7f; stroke-width: 1.5; stroke-linecap: square"/>
    </g>
    <g id="text_27">
     <!-- $a_{i}^k$ = 7 $\mathregular{m^2}$/s -->
     <g transform="translate(364.059292 175.8) scale(0.1 -0.1)">
      <use xlink:href="#DejaVuSans-Oblique-61" transform="translate(0 0.582813)"/>
      <use xlink:href="#DejaVuSans-Oblique-6b" transform="translate(65.929193 38.928125) scale(0.7)"/>
      <use xlink:href="#DejaVuSans-Oblique-69" transform="translate(61.279297 -26.760937) scale(0.7)"/>
      <use xlink:href="#TimesNewRomanPSMT-20" transform="translate(109.200677 0.582813)"/>
      <use xlink:href="#TimesNewRomanPSMT-3d" transform="translate(134.200677 0.582813)"/>
      <use xlink:href="#TimesNewRomanPSMT-20" transform="translate(190.597161 0.582813)"/>
      <use xlink:href="#TimesNewRomanPSMT-37" transform="translate(215.597161 0.582813)"/>
      <use xlink:href="#TimesNewRomanPSMT-20" transform="translate(265.597161 0.582813)"/>
      <use xlink:href="#TimesNewRomanPSMT-6d" transform="translate(290.597161 0.582813)"/>
      <use xlink:href="#TimesNewRomanPSMT-32" transform="translate(369.883177 60.695312) scale(0.7)"/>
      <use xlink:href="#TimesNewRomanPSMT-2f" transform="translate(409.176927 0.582813)"/>
      <use xlink:href="#TimesNewRomanPSMT-73" transform="translate(436.96013 0.582813)"/>
     </g>
    </g>
    <g id="line2d_36">
     <path d="M 336.059292 190.9 
L 346.059292 190.9 
L 356.059292 190.9 
" style="fill: none; stroke: #bcbd22; stroke-width: 1.5; stroke-linecap: square"/>
    </g>
    <g id="text_28">
     <!-- $a_{i}^k$ = 8 $\mathregular{m^2}$/s -->
     <g transform="translate(364.059292 194.4) scale(0.1 -0.1)">
      <use xlink:href="#DejaVuSans-Oblique-61" transform="translate(0 0.582813)"/>
      <use xlink:href="#DejaVuSans-Oblique-6b" transform="translate(65.929193 38.928125) scale(0.7)"/>
      <use xlink:href="#DejaVuSans-Oblique-69" transform="translate(61.279297 -26.760937) scale(0.7)"/>
      <use xlink:href="#TimesNewRomanPSMT-20" transform="translate(109.200677 0.582813)"/>
      <use xlink:href="#TimesNewRomanPSMT-3d" transform="translate(134.200677 0.582813)"/>
      <use xlink:href="#TimesNewRomanPSMT-20" transform="translate(190.597161 0.582813)"/>
      <use xlink:href="#TimesNewRomanPSMT-38" transform="translate(215.597161 0.582813)"/>
      <use xlink:href="#TimesNewRomanPSMT-20" transform="translate(265.597161 0.582813)"/>
      <use xlink:href="#TimesNewRomanPSMT-6d" transform="translate(290.597161 0.582813)"/>
      <use xlink:href="#TimesNewRomanPSMT-32" transform="translate(369.883177 60.695312) scale(0.7)"/>
      <use xlink:href="#TimesNewRomanPSMT-2f" transform="translate(409.176927 0.582813)"/>
      <use xlink:href="#TimesNewRomanPSMT-73" transform="translate(436.96013 0.582813)"/>
     </g>
    </g>
    <g id="line2d_37">
     <path d="M 336.059292 209.5 
L 346.059292 209.5 
L 356.059292 209.5 
" style="fill: none; stroke: #17becf; stroke-width: 1.5; stroke-linecap: square"/>
    </g>
    <g id="text_29">
     <!-- $a_{i}^k$ = 9 $\mathregular{m^2}$/s -->
     <g transform="translate(364.059292 213) scale(0.1 -0.1)">
      <defs>
       <path id="TimesNewRomanPSMT-39" d="M 338 -88 
L 338 28 
Q 744 34 1094 217 
Q 1444 400 1770 856 
Q 2097 1313 2225 1859 
Q 1734 1544 1338 1544 
Q 891 1544 572 1889 
Q 253 2234 253 2806 
Q 253 3363 572 3797 
Q 956 4325 1575 4325 
Q 2097 4325 2469 3894 
Q 2925 3359 2925 2575 
Q 2925 1869 2578 1258 
Q 2231 647 1613 244 
Q 1109 -88 516 -88 
L 338 -88 
z
M 2275 2091 
Q 2331 2497 2331 2741 
Q 2331 3044 2228 3395 
Q 2125 3747 1936 3934 
Q 1747 4122 1506 4122 
Q 1228 4122 1018 3872 
Q 809 3622 809 3128 
Q 809 2469 1088 2097 
Q 1291 1828 1588 1828 
Q 1731 1828 1928 1897 
Q 2125 1966 2275 2091 
z
" transform="scale(0.015625)"/>
      </defs>
      <use xlink:href="#DejaVuSans-Oblique-61" transform="translate(0 0.582813)"/>
      <use xlink:href="#DejaVuSans-Oblique-6b" transform="translate(65.929193 38.928125) scale(0.7)"/>
      <use xlink:href="#DejaVuSans-Oblique-69" transform="translate(61.279297 -26.760937) scale(0.7)"/>
      <use xlink:href="#TimesNewRomanPSMT-20" transform="translate(109.200677 0.582813)"/>
      <use xlink:href="#TimesNewRomanPSMT-3d" transform="translate(134.200677 0.582813)"/>
      <use xlink:href="#TimesNewRomanPSMT-20" transform="translate(190.597161 0.582813)"/>
      <use xlink:href="#TimesNewRomanPSMT-39" transform="translate(215.597161 0.582813)"/>
      <use xlink:href="#TimesNewRomanPSMT-20" transform="translate(265.597161 0.582813)"/>
      <use xlink:href="#TimesNewRomanPSMT-6d" transform="translate(290.597161 0.582813)"/>
      <use xlink:href="#TimesNewRomanPSMT-32" transform="translate(369.883177 60.695312) scale(0.7)"/>
      <use xlink:href="#TimesNewRomanPSMT-2f" transform="translate(409.176927 0.582813)"/>
      <use xlink:href="#TimesNewRomanPSMT-73" transform="translate(436.96013 0.582813)"/>
     </g>
    </g>
    <g id="line2d_38">
     <path d="M 336.059292 228.1 
L 346.059292 228.1 
L 356.059292 228.1 
" style="fill: none; stroke: #1f77b4; stroke-width: 1.5; stroke-linecap: square"/>
    </g>
    <g id="text_30">
     <!-- $a_{i}^k$ =10 $\mathregular{m^2}$/s -->
     <g transform="translate(364.059292 231.6) scale(0.1 -0.1)">
      <use xlink:href="#DejaVuSans-Oblique-61" transform="translate(0 0.582813)"/>
      <use xlink:href="#DejaVuSans-Oblique-6b" transform="translate(65.929193 38.928125) scale(0.7)"/>
      <use xlink:href="#DejaVuSans-Oblique-69" transform="translate(61.279297 -26.760937) scale(0.7)"/>
      <use xlink:href="#TimesNewRomanPSMT-20" transform="translate(109.200677 0.582813)"/>
      <use xlink:href="#TimesNewRomanPSMT-3d" transform="translate(134.200677 0.582813)"/>
      <use xlink:href="#TimesNewRomanPSMT-31" transform="translate(190.597161 0.582813)"/>
      <use xlink:href="#TimesNewRomanPSMT-30" transform="translate(240.597161 0.582813)"/>
      <use xlink:href="#TimesNewRomanPSMT-20" transform="translate(290.597161 0.582813)"/>
      <use xlink:href="#TimesNewRomanPSMT-6d" transform="translate(315.597161 0.582813)"/>
      <use xlink:href="#TimesNewRomanPSMT-32" transform="translate(394.883177 60.695312) scale(0.7)"/>
      <use xlink:href="#TimesNewRomanPSMT-2f" transform="translate(434.176927 0.582813)"/>
      <use xlink:href="#TimesNewRomanPSMT-73" transform="translate(461.96013 0.582813)"/>
     </g>
    </g>
   </g>
  </g>
 </g>
 <defs>
  <clipPath id="pbc21ad4237">
   <rect x="50.2375" y="25.8" width="271.393914" height="208.81625"/>
  </clipPath>
 </defs>
</svg>
