<?xml version="1.0" encoding="utf-8" standalone="no"?>
<!DOCTYPE svg PUBLIC "-//W3C//DTD SVG 1.1//EN"
  "http://www.w3.org/Graphics/SVG/1.1/DTD/svg11.dtd">
<svg xmlns:xlink="http://www.w3.org/1999/xlink" width="432pt" height="288pt" viewBox="0 0 432 288" xmlns="http://www.w3.org/2000/svg" version="1.1">
 <metadata>
  <rdf:RDF xmlns:dc="http://purl.org/dc/elements/1.1/" xmlns:cc="http://creativecommons.org/ns#" xmlns:rdf="http://www.w3.org/1999/02/22-rdf-syntax-ns#">
   <cc:Work>
    <dc:type rdf:resource="http://purl.org/dc/dcmitype/StillImage"/>
    <dc:date>2023-09-02T14:34:40.641377</dc:date>
    <dc:format>image/svg+xml</dc:format>
    <dc:creator>
     <cc:Agent>
      <dc:title>Matplotlib v3.7.1, https://matplotlib.org/</dc:title>
     </cc:Agent>
    </dc:creator>
   </cc:Work>
  </rdf:RDF>
 </metadata>
 <defs>
  <style type="text/css">*{stroke-linejoin: round; stroke-linecap: butt}</style>
 </defs>
 <g id="figure_1">
  <g id="patch_1">
   <path d="M 0 288 
L 432 288 
L 432 0 
L 0 0 
z
" style="fill: #ffffff"/>
  </g>
  <g id="axes_1">
   <g id="patch_2">
    <path d="M 50.2375 234.61625 
L 313.301336 234.61625 
L 313.301336 25.8 
L 50.2375 25.8 
z
" style="fill: #ffffff"/>
   </g>
   <g id="matplotlib.axis_1">
    <g id="xtick_1">
     <g id="line2d_1">
      <defs>
       <path id="mbdffde8087" d="M 0 0 
L 0 3.5 
" style="stroke: #000000; stroke-width: 0.8"/>
      </defs>
      <g>
       <use xlink:href="#mbdffde8087" x="56.525994" y="234.61625" style="stroke: #000000; stroke-width: 0.8"/>
      </g>
     </g>
     <g id="text_1">
      <!-- 0 -->
      <g transform="translate(54.025994 248.56) scale(0.1 -0.1)">
       <defs>
        <path id="TimesNewRomanPSMT-30" d="M 231 2094 
Q 231 2819 450 3342 
Q 669 3866 1031 4122 
Q 1313 4325 1613 4325 
Q 2100 4325 2488 3828 
Q 2972 3213 2972 2159 
Q 2972 1422 2759 906 
Q 2547 391 2217 158 
Q 1888 -75 1581 -75 
Q 975 -75 572 641 
Q 231 1244 231 2094 
z
M 844 2016 
Q 844 1141 1059 588 
Q 1238 122 1591 122 
Q 1759 122 1940 273 
Q 2122 425 2216 781 
Q 2359 1319 2359 2297 
Q 2359 3022 2209 3506 
Q 2097 3866 1919 4016 
Q 1791 4119 1609 4119 
Q 1397 4119 1231 3928 
Q 1006 3669 925 3112 
Q 844 2556 844 2016 
z
" transform="scale(0.015625)"/>
       </defs>
       <use xlink:href="#TimesNewRomanPSMT-30"/>
      </g>
     </g>
    </g>
    <g id="xtick_2">
     <g id="line2d_2">
      <g>
       <use xlink:href="#mbdffde8087" x="90.540705" y="234.61625" style="stroke: #000000; stroke-width: 0.8"/>
      </g>
     </g>
     <g id="text_2">
      <!-- 10 -->
      <g transform="translate(85.540705 248.56) scale(0.1 -0.1)">
       <defs>
        <path id="TimesNewRomanPSMT-31" d="M 750 3822 
L 1781 4325 
L 1884 4325 
L 1884 747 
Q 1884 391 1914 303 
Q 1944 216 2037 169 
Q 2131 122 2419 116 
L 2419 0 
L 825 0 
L 825 116 
Q 1125 122 1212 167 
Q 1300 213 1334 289 
Q 1369 366 1369 747 
L 1369 3034 
Q 1369 3497 1338 3628 
Q 1316 3728 1258 3775 
Q 1200 3822 1119 3822 
Q 1003 3822 797 3725 
L 750 3822 
z
" transform="scale(0.015625)"/>
       </defs>
       <use xlink:href="#TimesNewRomanPSMT-31"/>
       <use xlink:href="#TimesNewRomanPSMT-30" x="50"/>
      </g>
     </g>
    </g>
    <g id="xtick_3">
     <g id="line2d_3">
      <g>
       <use xlink:href="#mbdffde8087" x="124.555417" y="234.61625" style="stroke: #000000; stroke-width: 0.8"/>
      </g>
     </g>
     <g id="text_3">
      <!-- 20 -->
      <g transform="translate(119.555417 248.56) scale(0.1 -0.1)">
       <defs>
        <path id="TimesNewRomanPSMT-32" d="M 2934 816 
L 2638 0 
L 138 0 
L 138 116 
Q 1241 1122 1691 1759 
Q 2141 2397 2141 2925 
Q 2141 3328 1894 3587 
Q 1647 3847 1303 3847 
Q 991 3847 742 3664 
Q 494 3481 375 3128 
L 259 3128 
Q 338 3706 661 4015 
Q 984 4325 1469 4325 
Q 1984 4325 2329 3994 
Q 2675 3663 2675 3213 
Q 2675 2891 2525 2569 
Q 2294 2063 1775 1497 
Q 997 647 803 472 
L 1909 472 
Q 2247 472 2383 497 
Q 2519 522 2628 598 
Q 2738 675 2819 816 
L 2934 816 
z
" transform="scale(0.015625)"/>
       </defs>
       <use xlink:href="#TimesNewRomanPSMT-32"/>
       <use xlink:href="#TimesNewRomanPSMT-30" x="50"/>
      </g>
     </g>
    </g>
    <g id="xtick_4">
     <g id="line2d_4">
      <g>
       <use xlink:href="#mbdffde8087" x="158.570128" y="234.61625" style="stroke: #000000; stroke-width: 0.8"/>
      </g>
     </g>
     <g id="text_4">
      <!-- 30 -->
      <g transform="translate(153.570128 248.56) scale(0.1 -0.1)">
       <defs>
        <path id="TimesNewRomanPSMT-33" d="M 325 3431 
Q 506 3859 782 4092 
Q 1059 4325 1472 4325 
Q 1981 4325 2253 3994 
Q 2459 3747 2459 3466 
Q 2459 3003 1878 2509 
Q 2269 2356 2469 2072 
Q 2669 1788 2669 1403 
Q 2669 853 2319 450 
Q 1863 -75 997 -75 
Q 569 -75 414 31 
Q 259 138 259 259 
Q 259 350 332 419 
Q 406 488 509 488 
Q 588 488 669 463 
Q 722 447 909 348 
Q 1097 250 1169 231 
Q 1284 197 1416 197 
Q 1734 197 1970 444 
Q 2206 691 2206 1028 
Q 2206 1275 2097 1509 
Q 2016 1684 1919 1775 
Q 1784 1900 1550 2001 
Q 1316 2103 1072 2103 
L 972 2103 
L 972 2197 
Q 1219 2228 1467 2375 
Q 1716 2522 1828 2728 
Q 1941 2934 1941 3181 
Q 1941 3503 1739 3701 
Q 1538 3900 1238 3900 
Q 753 3900 428 3381 
L 325 3431 
z
" transform="scale(0.015625)"/>
       </defs>
       <use xlink:href="#TimesNewRomanPSMT-33"/>
       <use xlink:href="#TimesNewRomanPSMT-30" x="50"/>
      </g>
     </g>
    </g>
    <g id="xtick_5">
     <g id="line2d_5">
      <g>
       <use xlink:href="#mbdffde8087" x="192.584839" y="234.61625" style="stroke: #000000; stroke-width: 0.8"/>
      </g>
     </g>
     <g id="text_5">
      <!-- 40 -->
      <g transform="translate(187.584839 248.56) scale(0.1 -0.1)">
       <defs>
        <path id="TimesNewRomanPSMT-34" d="M 2978 1563 
L 2978 1119 
L 2409 1119 
L 2409 0 
L 1894 0 
L 1894 1119 
L 100 1119 
L 100 1519 
L 2066 4325 
L 2409 4325 
L 2409 1563 
L 2978 1563 
z
M 1894 1563 
L 1894 3666 
L 406 1563 
L 1894 1563 
z
" transform="scale(0.015625)"/>
       </defs>
       <use xlink:href="#TimesNewRomanPSMT-34"/>
       <use xlink:href="#TimesNewRomanPSMT-30" x="50"/>
      </g>
     </g>
    </g>
    <g id="xtick_6">
     <g id="line2d_6">
      <g>
       <use xlink:href="#mbdffde8087" x="226.599551" y="234.61625" style="stroke: #000000; stroke-width: 0.8"/>
      </g>
     </g>
     <g id="text_6">
      <!-- 50 -->
      <g transform="translate(221.599551 248.56) scale(0.1 -0.1)">
       <defs>
        <path id="TimesNewRomanPSMT-35" d="M 2778 4238 
L 2534 3706 
L 1259 3706 
L 981 3138 
Q 1809 3016 2294 2522 
Q 2709 2097 2709 1522 
Q 2709 1188 2573 903 
Q 2438 619 2231 419 
Q 2025 219 1772 97 
Q 1413 -75 1034 -75 
Q 653 -75 479 54 
Q 306 184 306 341 
Q 306 428 378 495 
Q 450 563 559 563 
Q 641 563 702 538 
Q 763 513 909 409 
Q 1144 247 1384 247 
Q 1750 247 2026 523 
Q 2303 800 2303 1197 
Q 2303 1581 2056 1914 
Q 1809 2247 1375 2428 
Q 1034 2569 447 2591 
L 1259 4238 
L 2778 4238 
z
" transform="scale(0.015625)"/>
       </defs>
       <use xlink:href="#TimesNewRomanPSMT-35"/>
       <use xlink:href="#TimesNewRomanPSMT-30" x="50"/>
      </g>
     </g>
    </g>
    <g id="xtick_7">
     <g id="line2d_7">
      <g>
       <use xlink:href="#mbdffde8087" x="260.614262" y="234.61625" style="stroke: #000000; stroke-width: 0.8"/>
      </g>
     </g>
     <g id="text_7">
      <!-- 60 -->
      <g transform="translate(255.614262 248.56) scale(0.1 -0.1)">
       <defs>
        <path id="TimesNewRomanPSMT-36" d="M 2869 4325 
L 2869 4209 
Q 2456 4169 2195 4045 
Q 1934 3922 1679 3669 
Q 1425 3416 1258 3105 
Q 1091 2794 978 2366 
Q 1428 2675 1881 2675 
Q 2316 2675 2634 2325 
Q 2953 1975 2953 1425 
Q 2953 894 2631 456 
Q 2244 -75 1606 -75 
Q 1172 -75 869 213 
Q 275 772 275 1663 
Q 275 2231 503 2743 
Q 731 3256 1154 3653 
Q 1578 4050 1965 4187 
Q 2353 4325 2688 4325 
L 2869 4325 
z
M 925 2138 
Q 869 1716 869 1456 
Q 869 1156 980 804 
Q 1091 453 1309 247 
Q 1469 100 1697 100 
Q 1969 100 2183 356 
Q 2397 613 2397 1088 
Q 2397 1622 2184 2012 
Q 1972 2403 1581 2403 
Q 1463 2403 1327 2353 
Q 1191 2303 925 2138 
z
" transform="scale(0.015625)"/>
       </defs>
       <use xlink:href="#TimesNewRomanPSMT-36"/>
       <use xlink:href="#TimesNewRomanPSMT-30" x="50"/>
      </g>
     </g>
    </g>
    <g id="xtick_8">
     <g id="line2d_8">
      <g>
       <use xlink:href="#mbdffde8087" x="294.628973" y="234.61625" style="stroke: #000000; stroke-width: 0.8"/>
      </g>
     </g>
     <g id="text_8">
      <!-- 70 -->
      <g transform="translate(289.628973 248.56) scale(0.1 -0.1)">
       <defs>
        <path id="TimesNewRomanPSMT-37" d="M 644 4238 
L 2916 4238 
L 2916 4119 
L 1503 -88 
L 1153 -88 
L 2419 3728 
L 1253 3728 
Q 900 3728 750 3644 
Q 488 3500 328 3200 
L 238 3234 
L 644 4238 
z
" transform="scale(0.015625)"/>
       </defs>
       <use xlink:href="#TimesNewRomanPSMT-37"/>
       <use xlink:href="#TimesNewRomanPSMT-30" x="50"/>
      </g>
     </g>
    </g>
    <g id="text_9">
     <!-- Distance (m) -->
     <g transform="translate(155.806918 261.642813) scale(0.1 -0.1)">
      <defs>
       <path id="TimesNewRomanPSMT-44" d="M 109 0 
L 109 116 
L 269 116 
Q 538 116 650 288 
Q 719 391 719 750 
L 719 3488 
Q 719 3884 631 3984 
Q 509 4122 269 4122 
L 109 4122 
L 109 4238 
L 1834 4238 
Q 2784 4238 3279 4022 
Q 3775 3806 4076 3303 
Q 4378 2800 4378 2141 
Q 4378 1256 3841 663 
Q 3238 0 2003 0 
L 109 0 
z
M 1319 306 
Q 1716 219 1984 219 
Q 2709 219 3187 728 
Q 3666 1238 3666 2109 
Q 3666 2988 3187 3494 
Q 2709 4000 1959 4000 
Q 1678 4000 1319 3909 
L 1319 306 
z
" transform="scale(0.015625)"/>
       <path id="TimesNewRomanPSMT-69" d="M 928 4444 
Q 1059 4444 1151 4351 
Q 1244 4259 1244 4128 
Q 1244 3997 1151 3903 
Q 1059 3809 928 3809 
Q 797 3809 703 3903 
Q 609 3997 609 4128 
Q 609 4259 701 4351 
Q 794 4444 928 4444 
z
M 1188 2947 
L 1188 647 
Q 1188 378 1227 289 
Q 1266 200 1342 156 
Q 1419 113 1622 113 
L 1622 0 
L 231 0 
L 231 113 
Q 441 113 512 153 
Q 584 194 626 287 
Q 669 381 669 647 
L 669 1750 
Q 669 2216 641 2353 
Q 619 2453 572 2492 
Q 525 2531 444 2531 
Q 356 2531 231 2484 
L 188 2597 
L 1050 2947 
L 1188 2947 
z
" transform="scale(0.015625)"/>
       <path id="TimesNewRomanPSMT-73" d="M 2050 2947 
L 2050 1972 
L 1947 1972 
Q 1828 2431 1642 2597 
Q 1456 2763 1169 2763 
Q 950 2763 815 2647 
Q 681 2531 681 2391 
Q 681 2216 781 2091 
Q 878 1963 1175 1819 
L 1631 1597 
Q 2266 1288 2266 781 
Q 2266 391 1970 151 
Q 1675 -88 1309 -88 
Q 1047 -88 709 6 
Q 606 38 541 38 
Q 469 38 428 -44 
L 325 -44 
L 325 978 
L 428 978 
Q 516 541 762 319 
Q 1009 97 1316 97 
Q 1531 97 1667 223 
Q 1803 350 1803 528 
Q 1803 744 1651 891 
Q 1500 1038 1047 1263 
Q 594 1488 453 1669 
Q 313 1847 313 2119 
Q 313 2472 555 2709 
Q 797 2947 1181 2947 
Q 1350 2947 1591 2875 
Q 1750 2828 1803 2828 
Q 1853 2828 1881 2850 
Q 1909 2872 1947 2947 
L 2050 2947 
z
" transform="scale(0.015625)"/>
       <path id="TimesNewRomanPSMT-74" d="M 1031 3803 
L 1031 2863 
L 1700 2863 
L 1700 2644 
L 1031 2644 
L 1031 788 
Q 1031 509 1111 412 
Q 1191 316 1316 316 
Q 1419 316 1516 380 
Q 1613 444 1666 569 
L 1788 569 
Q 1678 263 1478 108 
Q 1278 -47 1066 -47 
Q 922 -47 784 33 
Q 647 113 581 261 
Q 516 409 516 719 
L 516 2644 
L 63 2644 
L 63 2747 
Q 234 2816 414 2980 
Q 594 3144 734 3369 
Q 806 3488 934 3803 
L 1031 3803 
z
" transform="scale(0.015625)"/>
       <path id="TimesNewRomanPSMT-61" d="M 1822 413 
Q 1381 72 1269 19 
Q 1100 -59 909 -59 
Q 613 -59 420 144 
Q 228 347 228 678 
Q 228 888 322 1041 
Q 450 1253 767 1440 
Q 1084 1628 1822 1897 
L 1822 2009 
Q 1822 2438 1686 2597 
Q 1550 2756 1291 2756 
Q 1094 2756 978 2650 
Q 859 2544 859 2406 
L 866 2225 
Q 866 2081 792 2003 
Q 719 1925 600 1925 
Q 484 1925 411 2006 
Q 338 2088 338 2228 
Q 338 2497 613 2722 
Q 888 2947 1384 2947 
Q 1766 2947 2009 2819 
Q 2194 2722 2281 2516 
Q 2338 2381 2338 1966 
L 2338 994 
Q 2338 584 2353 492 
Q 2369 400 2405 369 
Q 2441 338 2488 338 
Q 2538 338 2575 359 
Q 2641 400 2828 588 
L 2828 413 
Q 2478 -56 2159 -56 
Q 2006 -56 1915 50 
Q 1825 156 1822 413 
z
M 1822 616 
L 1822 1706 
Q 1350 1519 1213 1441 
Q 966 1303 859 1153 
Q 753 1003 753 825 
Q 753 600 887 451 
Q 1022 303 1197 303 
Q 1434 303 1822 616 
z
" transform="scale(0.015625)"/>
       <path id="TimesNewRomanPSMT-6e" d="M 1034 2341 
Q 1538 2947 1994 2947 
Q 2228 2947 2397 2830 
Q 2566 2713 2666 2444 
Q 2734 2256 2734 1869 
L 2734 647 
Q 2734 375 2778 278 
Q 2813 200 2889 156 
Q 2966 113 3172 113 
L 3172 0 
L 1756 0 
L 1756 113 
L 1816 113 
Q 2016 113 2095 173 
Q 2175 234 2206 353 
Q 2219 400 2219 647 
L 2219 1819 
Q 2219 2209 2117 2386 
Q 2016 2563 1775 2563 
Q 1403 2563 1034 2156 
L 1034 647 
Q 1034 356 1069 288 
Q 1113 197 1189 155 
Q 1266 113 1500 113 
L 1500 0 
L 84 0 
L 84 113 
L 147 113 
Q 366 113 442 223 
Q 519 334 519 647 
L 519 1709 
Q 519 2225 495 2337 
Q 472 2450 423 2490 
Q 375 2531 294 2531 
Q 206 2531 84 2484 
L 38 2597 
L 900 2947 
L 1034 2947 
L 1034 2341 
z
" transform="scale(0.015625)"/>
       <path id="TimesNewRomanPSMT-63" d="M 2631 1088 
Q 2516 522 2178 217 
Q 1841 -88 1431 -88 
Q 944 -88 581 321 
Q 219 731 219 1428 
Q 219 2103 620 2525 
Q 1022 2947 1584 2947 
Q 2006 2947 2278 2723 
Q 2550 2500 2550 2259 
Q 2550 2141 2473 2067 
Q 2397 1994 2259 1994 
Q 2075 1994 1981 2113 
Q 1928 2178 1911 2362 
Q 1894 2547 1784 2644 
Q 1675 2738 1481 2738 
Q 1169 2738 978 2506 
Q 725 2200 725 1697 
Q 725 1184 976 792 
Q 1228 400 1656 400 
Q 1963 400 2206 609 
Q 2378 753 2541 1131 
L 2631 1088 
z
" transform="scale(0.015625)"/>
       <path id="TimesNewRomanPSMT-65" d="M 681 1784 
Q 678 1147 991 784 
Q 1303 422 1725 422 
Q 2006 422 2214 576 
Q 2422 731 2563 1106 
L 2659 1044 
Q 2594 616 2278 264 
Q 1963 -88 1488 -88 
Q 972 -88 605 314 
Q 238 716 238 1394 
Q 238 2128 614 2539 
Q 991 2950 1559 2950 
Q 2041 2950 2350 2633 
Q 2659 2316 2659 1784 
L 681 1784 
z
M 681 1966 
L 2006 1966 
Q 1991 2241 1941 2353 
Q 1863 2528 1708 2628 
Q 1553 2728 1384 2728 
Q 1125 2728 920 2526 
Q 716 2325 681 1966 
z
" transform="scale(0.015625)"/>
       <path id="TimesNewRomanPSMT-20" transform="scale(0.015625)"/>
       <path id="TimesNewRomanPSMT-28" d="M 1988 -1253 
L 1988 -1369 
Q 1516 -1131 1200 -813 
Q 750 -359 506 256 
Q 263 872 263 1534 
Q 263 2503 741 3301 
Q 1219 4100 1988 4444 
L 1988 4313 
Q 1603 4100 1356 3731 
Q 1109 3363 987 2797 
Q 866 2231 866 1616 
Q 866 947 969 400 
Q 1050 -31 1165 -292 
Q 1281 -553 1476 -793 
Q 1672 -1034 1988 -1253 
z
" transform="scale(0.015625)"/>
       <path id="TimesNewRomanPSMT-6d" d="M 1050 2338 
Q 1363 2650 1419 2697 
Q 1559 2816 1721 2881 
Q 1884 2947 2044 2947 
Q 2313 2947 2506 2790 
Q 2700 2634 2766 2338 
Q 3088 2713 3309 2830 
Q 3531 2947 3766 2947 
Q 3994 2947 4170 2830 
Q 4347 2713 4450 2447 
Q 4519 2266 4519 1878 
L 4519 647 
Q 4519 378 4559 278 
Q 4591 209 4675 161 
Q 4759 113 4950 113 
L 4950 0 
L 3538 0 
L 3538 113 
L 3597 113 
Q 3781 113 3884 184 
Q 3956 234 3988 344 
Q 4000 397 4000 647 
L 4000 1878 
Q 4000 2228 3916 2372 
Q 3794 2572 3525 2572 
Q 3359 2572 3192 2489 
Q 3025 2406 2788 2181 
L 2781 2147 
L 2788 2013 
L 2788 647 
Q 2788 353 2820 281 
Q 2853 209 2943 161 
Q 3034 113 3253 113 
L 3253 0 
L 1806 0 
L 1806 113 
Q 2044 113 2133 169 
Q 2222 225 2256 338 
Q 2272 391 2272 647 
L 2272 1878 
Q 2272 2228 2169 2381 
Q 2031 2581 1784 2581 
Q 1616 2581 1450 2491 
Q 1191 2353 1050 2181 
L 1050 647 
Q 1050 366 1089 281 
Q 1128 197 1204 155 
Q 1281 113 1516 113 
L 1516 0 
L 100 0 
L 100 113 
Q 297 113 375 155 
Q 453 197 493 289 
Q 534 381 534 647 
L 534 1741 
Q 534 2213 506 2350 
Q 484 2453 437 2492 
Q 391 2531 309 2531 
Q 222 2531 100 2484 
L 53 2597 
L 916 2947 
L 1050 2947 
L 1050 2338 
z
" transform="scale(0.015625)"/>
       <path id="TimesNewRomanPSMT-29" d="M 144 4313 
L 144 4444 
Q 619 4209 934 3891 
Q 1381 3434 1625 2820 
Q 1869 2206 1869 1541 
Q 1869 572 1392 -226 
Q 916 -1025 144 -1369 
L 144 -1253 
Q 528 -1038 776 -670 
Q 1025 -303 1145 264 
Q 1266 831 1266 1447 
Q 1266 2113 1163 2663 
Q 1084 3094 967 3353 
Q 850 3613 656 3853 
Q 463 4094 144 4313 
z
" transform="scale(0.015625)"/>
      </defs>
      <use xlink:href="#TimesNewRomanPSMT-44"/>
      <use xlink:href="#TimesNewRomanPSMT-69" x="72.216797"/>
      <use xlink:href="#TimesNewRomanPSMT-73" x="100"/>
      <use xlink:href="#TimesNewRomanPSMT-74" x="138.916016"/>
      <use xlink:href="#TimesNewRomanPSMT-61" x="166.699219"/>
      <use xlink:href="#TimesNewRomanPSMT-6e" x="211.083984"/>
      <use xlink:href="#TimesNewRomanPSMT-63" x="261.083984"/>
      <use xlink:href="#TimesNewRomanPSMT-65" x="305.46875"/>
      <use xlink:href="#TimesNewRomanPSMT-20" x="349.853516"/>
      <use xlink:href="#TimesNewRomanPSMT-28" x="374.853516"/>
      <use xlink:href="#TimesNewRomanPSMT-6d" x="408.154297"/>
      <use xlink:href="#TimesNewRomanPSMT-29" x="485.9375"/>
     </g>
    </g>
   </g>
   <g id="matplotlib.axis_2">
    <g id="ytick_1">
     <g id="line2d_9">
      <defs>
       <path id="mf1a8fadcf0" d="M 0 0 
L -3.5 0 
" style="stroke: #000000; stroke-width: 0.8"/>
      </defs>
      <g>
       <use xlink:href="#mf1a8fadcf0" x="50.2375" y="218.457486" style="stroke: #000000; stroke-width: 0.8"/>
      </g>
     </g>
     <g id="text_10">
      <!-- −0.5 -->
      <g transform="translate(25.098438 221.929361) scale(0.1 -0.1)">
       <defs>
        <path id="TimesNewRomanPSMT-2212" d="M 3484 2000 
L 116 2000 
L 116 2256 
L 3484 2256 
L 3484 2000 
z
" transform="scale(0.015625)"/>
        <path id="TimesNewRomanPSMT-2e" d="M 800 606 
Q 947 606 1047 504 
Q 1147 403 1147 259 
Q 1147 116 1045 14 
Q 944 -88 800 -88 
Q 656 -88 554 14 
Q 453 116 453 259 
Q 453 406 554 506 
Q 656 606 800 606 
z
" transform="scale(0.015625)"/>
       </defs>
       <use xlink:href="#TimesNewRomanPSMT-2212"/>
       <use xlink:href="#TimesNewRomanPSMT-30" x="56.396484"/>
       <use xlink:href="#TimesNewRomanPSMT-2e" x="106.396484"/>
       <use xlink:href="#TimesNewRomanPSMT-35" x="131.396484"/>
      </g>
     </g>
    </g>
    <g id="ytick_2">
     <g id="line2d_10">
      <g>
       <use xlink:href="#mf1a8fadcf0" x="50.2375" y="173.786095" style="stroke: #000000; stroke-width: 0.8"/>
      </g>
     </g>
     <g id="text_11">
      <!-- 0.0 -->
      <g transform="translate(30.7375 177.25797) scale(0.1 -0.1)">
       <use xlink:href="#TimesNewRomanPSMT-30"/>
       <use xlink:href="#TimesNewRomanPSMT-2e" x="50"/>
       <use xlink:href="#TimesNewRomanPSMT-30" x="75"/>
      </g>
     </g>
    </g>
    <g id="ytick_3">
     <g id="line2d_11">
      <g>
       <use xlink:href="#mf1a8fadcf0" x="50.2375" y="129.114703" style="stroke: #000000; stroke-width: 0.8"/>
      </g>
     </g>
     <g id="text_12">
      <!-- 0.5 -->
      <g transform="translate(30.7375 132.586578) scale(0.1 -0.1)">
       <use xlink:href="#TimesNewRomanPSMT-30"/>
       <use xlink:href="#TimesNewRomanPSMT-2e" x="50"/>
       <use xlink:href="#TimesNewRomanPSMT-35" x="75"/>
      </g>
     </g>
    </g>
    <g id="ytick_4">
     <g id="line2d_12">
      <g>
       <use xlink:href="#mf1a8fadcf0" x="50.2375" y="84.443312" style="stroke: #000000; stroke-width: 0.8"/>
      </g>
     </g>
     <g id="text_13">
      <!-- 1.0 -->
      <g transform="translate(30.7375 87.915187) scale(0.1 -0.1)">
       <use xlink:href="#TimesNewRomanPSMT-31"/>
       <use xlink:href="#TimesNewRomanPSMT-2e" x="50"/>
       <use xlink:href="#TimesNewRomanPSMT-30" x="75"/>
      </g>
     </g>
    </g>
    <g id="ytick_5">
     <g id="line2d_13">
      <g>
       <use xlink:href="#mf1a8fadcf0" x="50.2375" y="39.77192" style="stroke: #000000; stroke-width: 0.8"/>
      </g>
     </g>
     <g id="text_14">
      <!-- 1.5 -->
      <g transform="translate(30.7375 43.243795) scale(0.1 -0.1)">
       <use xlink:href="#TimesNewRomanPSMT-31"/>
       <use xlink:href="#TimesNewRomanPSMT-2e" x="50"/>
       <use xlink:href="#TimesNewRomanPSMT-35" x="75"/>
      </g>
     </g>
    </g>
    <g id="text_15">
     <!-- Height (m) -->
     <g transform="translate(18.940625 152.285469) rotate(-90) scale(0.1 -0.1)">
      <defs>
       <path id="TimesNewRomanPSMT-48" d="M 1316 2272 
L 3284 2272 
L 3284 3484 
Q 3284 3809 3244 3913 
Q 3213 3991 3113 4047 
Q 2978 4122 2828 4122 
L 2678 4122 
L 2678 4238 
L 4491 4238 
L 4491 4122 
L 4341 4122 
Q 4191 4122 4056 4050 
Q 3956 4000 3920 3898 
Q 3884 3797 3884 3484 
L 3884 750 
Q 3884 428 3925 325 
Q 3956 247 4053 191 
Q 4191 116 4341 116 
L 4491 116 
L 4491 0 
L 2678 0 
L 2678 116 
L 2828 116 
Q 3088 116 3206 269 
Q 3284 369 3284 750 
L 3284 2041 
L 1316 2041 
L 1316 750 
Q 1316 428 1356 325 
Q 1388 247 1488 191 
Q 1622 116 1772 116 
L 1925 116 
L 1925 0 
L 109 0 
L 109 116 
L 259 116 
Q 522 116 641 269 
Q 716 369 716 750 
L 716 3484 
Q 716 3809 675 3913 
Q 644 3991 547 4047 
Q 409 4122 259 4122 
L 109 4122 
L 109 4238 
L 1925 4238 
L 1925 4122 
L 1772 4122 
Q 1622 4122 1488 4050 
Q 1391 4000 1353 3898 
Q 1316 3797 1316 3484 
L 1316 2272 
z
" transform="scale(0.015625)"/>
       <path id="TimesNewRomanPSMT-67" d="M 966 1044 
Q 703 1172 562 1401 
Q 422 1631 422 1909 
Q 422 2334 742 2640 
Q 1063 2947 1563 2947 
Q 1972 2947 2272 2747 
L 2878 2747 
Q 3013 2747 3034 2739 
Q 3056 2731 3066 2713 
Q 3084 2684 3084 2613 
Q 3084 2531 3069 2500 
Q 3059 2484 3036 2475 
Q 3013 2466 2878 2466 
L 2506 2466 
Q 2681 2241 2681 1891 
Q 2681 1491 2375 1206 
Q 2069 922 1553 922 
Q 1341 922 1119 984 
Q 981 866 932 777 
Q 884 688 884 625 
Q 884 572 936 522 
Q 988 472 1138 450 
Q 1225 438 1575 428 
Q 2219 413 2409 384 
Q 2700 344 2873 169 
Q 3047 -6 3047 -263 
Q 3047 -616 2716 -925 
Q 2228 -1381 1444 -1381 
Q 841 -1381 425 -1109 
Q 191 -953 191 -784 
Q 191 -709 225 -634 
Q 278 -519 444 -313 
Q 466 -284 763 25 
Q 600 122 533 198 
Q 466 275 466 372 
Q 466 481 555 628 
Q 644 775 966 1044 
z
M 1509 2797 
Q 1278 2797 1122 2612 
Q 966 2428 966 2047 
Q 966 1553 1178 1281 
Q 1341 1075 1591 1075 
Q 1828 1075 1981 1253 
Q 2134 1431 2134 1813 
Q 2134 2309 1919 2591 
Q 1759 2797 1509 2797 
z
M 934 0 
Q 788 -159 713 -296 
Q 638 -434 638 -550 
Q 638 -700 819 -813 
Q 1131 -1006 1722 -1006 
Q 2284 -1006 2551 -807 
Q 2819 -609 2819 -384 
Q 2819 -222 2659 -153 
Q 2497 -84 2016 -72 
Q 1313 -53 934 0 
z
" transform="scale(0.015625)"/>
       <path id="TimesNewRomanPSMT-68" d="M 1041 4444 
L 1041 2350 
Q 1388 2731 1591 2839 
Q 1794 2947 1997 2947 
Q 2241 2947 2416 2812 
Q 2591 2678 2675 2391 
Q 2734 2191 2734 1659 
L 2734 647 
Q 2734 375 2778 275 
Q 2809 200 2884 156 
Q 2959 113 3159 113 
L 3159 0 
L 1753 0 
L 1753 113 
L 1819 113 
Q 2019 113 2097 173 
Q 2175 234 2206 353 
Q 2216 403 2216 647 
L 2216 1659 
Q 2216 2128 2167 2275 
Q 2119 2422 2012 2495 
Q 1906 2569 1756 2569 
Q 1603 2569 1437 2487 
Q 1272 2406 1041 2159 
L 1041 647 
Q 1041 353 1073 281 
Q 1106 209 1195 161 
Q 1284 113 1503 113 
L 1503 0 
L 84 0 
L 84 113 
Q 275 113 384 172 
Q 447 203 484 290 
Q 522 378 522 647 
L 522 3238 
Q 522 3728 498 3840 
Q 475 3953 426 3993 
Q 378 4034 297 4034 
Q 231 4034 84 3984 
L 41 4094 
L 897 4444 
L 1041 4444 
z
" transform="scale(0.015625)"/>
      </defs>
      <use xlink:href="#TimesNewRomanPSMT-48"/>
      <use xlink:href="#TimesNewRomanPSMT-65" x="72.216797"/>
      <use xlink:href="#TimesNewRomanPSMT-69" x="116.601562"/>
      <use xlink:href="#TimesNewRomanPSMT-67" x="144.384766"/>
      <use xlink:href="#TimesNewRomanPSMT-68" x="194.384766"/>
      <use xlink:href="#TimesNewRomanPSMT-74" x="244.384766"/>
      <use xlink:href="#TimesNewRomanPSMT-20" x="272.167969"/>
      <use xlink:href="#TimesNewRomanPSMT-28" x="297.167969"/>
      <use xlink:href="#TimesNewRomanPSMT-6d" x="330.46875"/>
      <use xlink:href="#TimesNewRomanPSMT-29" x="408.251953"/>
     </g>
    </g>
   </g>
   <g id="line2d_14">
    <path d="M 62.571966 175.595465 
L 67.653907 175.569645 
L 69.242765 174.672107 
L 70.621758 172.739087 
L 72.055819 169.547405 
L 73.862775 163.596729 
L 75.173049 157.7756 
L 76.496375 150.433678 
L 77.674532 142.507276 
L 78.78649 133.655908 
L 79.83214 123.88002 
L 80.871796 112.47738 
L 83.839154 75.734535 
L 85.43458 59.770319 
L 86.232708 53.144123 
L 87.303454 45.801843 
L 88.063407 41.733352 
L 88.80818 38.72107 
L 89.536292 36.580685 
L 90.298398 35.394571 
L 90.965631 35.291648 
L 91.943782 36.73096 
L 92.660863 38.978378 
L 93.386873 42.259491 
L 94.12355 46.586273 
L 94.871669 51.961939 
L 95.679349 58.821678 
L 97.531766 78.415444 
L 99.140141 99.428777 
L 100.80556 123.199318 
L 102.86647 148.06529 
L 103.865771 157.96867 
L 104.834867 166.427466 
L 105.83043 174.093702 
L 106.851168 181.015356 
L 108.226944 189.051471 
L 109.368821 194.754399 
L 110.465129 199.520033 
L 111.581338 203.746929 
L 112.716494 207.476008 
L 113.942116 210.935539 
L 115.482397 214.556512 
L 116.674256 216.874243 
L 117.881087 218.844073 
L 119.102117 220.494591 
L 120.336562 221.852512 
L 121.583929 222.942762 
L 122.84347 223.788302 
L 124.594034 224.591226 
L 125.880041 224.940199 
L 127.257712 225.117634 
L 128.482374 225.124602 
L 129.880127 224.980403 
L 131.204728 224.712285 
L 134.299145 223.675284 
L 137.092787 222.354976 
L 139.743257 220.858842 
L 144.500756 217.786433 
L 151.970359 212.514315 
L 159.823335 207.000883 
L 165.504615 203.261977 
L 170.406557 200.271852 
L 174.78522 197.804294 
L 179.731901 195.253021 
L 184.144949 193.185451 
L 189.125159 191.07848 
L 195.045814 188.865906 
L 200.333105 187.13623 
L 206.09699 185.488838 
L 212.524807 183.911759 
L 219.057571 182.553749 
L 225.226006 181.466894 
L 233.180714 180.302668 
L 241.145075 179.359834 
L 250.805967 178.456757 
L 261.883327 177.674471 
L 266.956261 177.388039 
L 266.956261 177.388039 
" clip-path="url(#pd3d18c12a3)" style="fill: none; stroke: #1f77b4; stroke-width: 1.5; stroke-linecap: square"/>
   </g>
   <g id="line2d_15">
    <path d="M 62.477817 175.595733 
L 67.559911 175.584654 
L 68.963895 174.928521 
L 70.530721 172.899368 
L 71.96751 169.781573 
L 73.862748 163.596729 
L 75.173359 157.794719 
L 76.422831 150.978401 
L 77.609605 143.149829 
L 78.734043 134.319993 
L 79.797339 124.492197 
L 83.877302 79.194959 
L 85.693419 63.497432 
L 86.92018 55.266014 
L 87.703906 51.080394 
L 88.526194 47.633549 
L 89.334755 45.22594 
L 90.128522 43.679595 
L 90.912769 43.102173 
L 91.936281 43.864266 
L 92.766614 45.744843 
L 93.554518 48.564054 
L 94.351271 52.416158 
L 95.158094 57.307943 
L 95.975501 63.239768 
L 97.116756 73.090882 
L 98.865398 91.529445 
L 100.547214 112.742013 
L 102.35396 135.497084 
L 103.718889 150.090334 
L 104.639324 158.649551 
L 105.646309 166.964952 
L 106.743419 174.926019 
L 107.733509 181.248898 
L 108.879329 187.674877 
L 110.327458 194.614846 
L 111.453555 199.22538 
L 112.598235 203.300305 
L 113.760511 206.882146 
L 115.01364 210.191403 
L 116.209339 212.877315 
L 117.80116 215.829558 
L 119.030179 217.681991 
L 120.428558 219.395407 
L 121.527097 220.480296 
L 122.873236 221.532129 
L 124.151798 222.279571 
L 125.846047 222.940261 
L 127.148508 223.224907 
L 128.460445 223.340606 
L 129.864222 223.297274 
L 131.194269 223.116445 
L 132.616315 222.791952 
L 135.655818 221.724663 
L 138.472611 220.384074 
L 141.229483 218.837551 
L 145.931727 215.857701 
L 154.956143 209.677682 
L 162.678976 204.523407 
L 168.479086 200.941208 
L 173.401661 198.145762 
L 177.796178 195.851975 
L 182.850479 193.449637 
L 187.275748 191.54753 
L 192.267846 189.61576 
L 198.293368 187.564271 
L 204.70624 185.685124 
L 211.226547 184.058371 
L 217.198483 182.787648 
L 223.926841 181.572676 
L 231.787604 180.400767 
L 239.845233 179.428628 
L 249.411976 178.517242 
L 260.489074 177.718875 
L 270.165069 177.194075 
L 270.165069 177.194075 
" clip-path="url(#pd3d18c12a3)" style="fill: none; stroke: #ff7f0e; stroke-width: 1.5; stroke-linecap: square"/>
   </g>
   <g id="line2d_16">
    <path d="M 62.291175 175.596358 
L 67.373503 175.605293 
L 68.965504 174.928521 
L 70.349869 173.206618 
L 71.791973 170.236238 
L 73.613073 164.624082 
L 75.018925 158.710126 
L 76.283136 152.024784 
L 77.489995 144.264559 
L 78.640461 135.437313 
L 79.736014 125.542958 
L 83.206232 89.744734 
L 85.066334 74.374023 
L 86.005014 68.011119 
L 86.929809 62.706391 
L 88.179748 57.12354 
L 89.129119 54.151463 
L 89.955326 52.488972 
L 90.877812 51.523981 
L 91.737081 51.582768 
L 92.593207 52.640408 
L 93.719826 55.549052 
L 94.585194 58.939968 
L 95.458814 63.358147 
L 96.396974 69.181867 
L 97.289642 75.724886 
L 98.191706 83.29624 
L 99.389585 94.788581 
L 101.303511 116.315188 
L 103.225193 138.141898 
L 104.222677 148.028034 
L 105.700157 160.757684 
L 106.623653 167.667544 
L 107.768282 175.254265 
L 108.867679 181.640487 
L 109.987314 187.348508 
L 111.197938 192.727926 
L 112.721427 198.484103 
L 113.901764 202.270004 
L 115.097929 205.583727 
L 116.309176 208.464407 
L 117.611742 211.090906 
L 118.773705 213.068687 
L 120.419218 215.352557 
L 121.925784 216.979667 
L 123.046044 217.938405 
L 124.336362 218.80771 
L 125.636826 219.456964 
L 126.946947 219.906984 
L 128.266224 220.177246 
L 130.094355 220.287763 
L 131.433593 220.200207 
L 134.134823 219.664865 
L 136.949772 218.701392 
L 140.137481 217.243407 
L 144.317202 214.935773 
L 149.159768 211.94413 
L 164.041803 202.50971 
L 170.407598 198.856037 
L 175.254133 196.313252 
L 179.752272 194.14803 
L 184.264946 192.163816 
L 189.160143 190.217037 
L 193.60459 188.625663 
L 200.288029 186.523517 
L 206.615622 184.823949 
L 212.675792 183.429755 
L 219.119205 182.165733 
L 225.664996 181.080844 
L 233.81086 179.967543 
L 242.809945 178.988525 
L 252.380477 178.177382 
L 264.025594 177.436998 
L 273.610242 176.981618 
L 273.610242 176.981618 
" clip-path="url(#pd3d18c12a3)" style="fill: none; stroke: #2ca02c; stroke-width: 1.5; stroke-linecap: square"/>
   </g>
   <g id="line2d_17">
    <path d="M 62.289981 175.596358 
L 67.372309 175.605293 
L 68.96431 174.928521 
L 70.439997 173.057504 
L 71.880572 170.092486 
L 73.702682 164.478542 
L 75.033484 158.876482 
L 76.313185 152.13548 
L 77.542181 144.264023 
L 78.793572 134.665034 
L 81.348699 110.591622 
L 83.529039 91.763791 
L 84.56462 84.264894 
L 85.586888 77.82319 
L 86.596441 72.431264 
L 87.902875 66.934539 
L 89.006601 63.63645 
L 89.855074 61.949211 
L 90.872386 60.735579 
L 91.815842 60.225342 
L 92.752005 60.622292 
L 93.978664 62.658682 
L 94.975992 65.57626 
L 95.921057 69.371452 
L 96.873697 74.188994 
L 97.834357 80.028974 
L 98.803219 86.890232 
L 99.841474 95.297388 
L 102.132235 117.485043 
L 104.173553 137.962587 
L 105.226833 147.239138 
L 106.302354 155.714283 
L 107.816138 166.078672 
L 108.94112 172.732118 
L 110.157296 179.046866 
L 111.247243 184.020579 
L 112.500634 189.034138 
L 113.696877 193.196708 
L 115.289891 197.916866 
L 116.520026 200.999013 
L 117.763556 203.677778 
L 119.019696 205.987557 
L 120.287853 207.960335 
L 121.647693 209.720209 
L 123.344146 211.463376 
L 124.648348 212.504487 
L 126.126917 213.410066 
L 127.36777 213.970692 
L 128.699585 214.393462 
L 130.039547 214.652824 
L 131.979138 214.772365 
L 134.61671 214.531139 
L 137.364833 213.888854 
L 140.571516 212.763045 
L 143.455364 211.500453 
L 147.685509 209.368734 
L 155.353792 205.109585 
L 164.566612 200.001769 
L 170.946731 196.7295 
L 176.812527 193.989446 
L 181.782043 191.884799 
L 186.305098 190.142257 
L 192.785883 187.922267 
L 199.192656 186.025788 
L 205.242003 184.481319 
L 211.769239 183.052907 
L 218.30722 181.839007 
L 225.883609 180.665579 
L 233.937918 179.64859 
L 243.407913 178.700127 
L 253.074826 177.950987 
L 264.157581 177.301823 
L 277.315029 176.747093 
L 277.315029 176.747093 
" clip-path="url(#pd3d18c12a3)" style="fill: none; stroke: #d62728; stroke-width: 1.5; stroke-linecap: square"/>
   </g>
   <g id="line2d_18">
    <path d="M 62.194947 175.596716 
L 67.277354 175.610832 
L 68.870263 175.004284 
L 70.34844 173.275501 
L 71.794181 170.446015 
L 73.630849 164.929366 
L 75.063066 158.960017 
L 76.285419 152.580764 
L 77.546905 144.630507 
L 78.840413 134.884907 
L 81.530304 111.994214 
L 82.665514 103.366917 
L 83.857736 95.354478 
L 84.967201 88.894191 
L 86.064961 83.476444 
L 87.151381 79.094538 
L 88.560658 74.866212 
L 89.620737 72.614685 
L 90.733235 70.953892 
L 91.767079 69.968888 
L 92.788309 69.475983 
L 93.803131 69.848185 
L 95.134426 71.853306 
L 96.216563 74.747476 
L 97.240804 78.518366 
L 98.336228 83.639048 
L 99.309086 89.109149 
L 100.353569 95.926182 
L 101.404695 103.755022 
L 106.124042 144.35953 
L 107.249596 152.510809 
L 108.466241 160.341704 
L 109.99728 168.889396 
L 111.183455 174.626096 
L 112.385592 179.746063 
L 113.602857 184.298613 
L 114.989221 188.800418 
L 116.157569 192.093682 
L 117.811902 196.070865 
L 119.086079 198.651532 
L 120.371441 200.880813 
L 121.830131 203.00726 
L 123.055361 204.499106 
L 124.371448 205.835674 
L 126.278939 207.343602 
L 127.532299 208.092026 
L 128.79267 208.67463 
L 130.229094 209.153597 
L 131.58839 209.446195 
L 132.954666 209.601383 
L 134.757415 209.620681 
L 136.224487 209.501587 
L 139.003312 209.002786 
L 141.802899 208.213979 
L 145.063274 207.031259 
L 149.415205 205.159885 
L 155.870326 202.075058 
L 166.390277 196.98922 
L 172.794352 194.123103 
L 178.770462 191.685653 
L 185.139917 189.361758 
L 191.623971 187.284896 
L 197.661433 185.599087 
L 204.17808 184.025135 
L 210.707367 182.677667 
L 218.275559 181.365937 
L 226.229437 180.234768 
L 234.286804 179.304084 
L 243.947074 178.420484 
L 255.024121 177.651868 
L 267.613602 177.016819 
L 280.773853 176.54902 
L 280.773853 176.54902 
" clip-path="url(#pd3d18c12a3)" style="fill: none; stroke: #9467bd; stroke-width: 1.5; stroke-linecap: square"/>
   </g>
   <g id="line2d_19">
    <path d="M 62.573551 175.595465 
L 67.56152 175.584654 
L 69.058592 174.853652 
L 70.534381 172.966286 
L 71.980561 169.879939 
L 73.479552 165.259041 
L 75.358494 157.216404 
L 76.599766 150.399103 
L 77.888604 141.931908 
L 81.677084 114.333833 
L 83.261013 104.896466 
L 84.455052 98.9063 
L 85.638376 93.924815 
L 86.810744 89.855787 
L 88.044046 86.416537 
L 89.193009 83.911097 
L 90.683618 81.552805 
L 91.806059 80.36669 
L 92.986186 79.600754 
L 94.08631 79.362834 
L 95.18254 80.04452 
L 96.279443 81.726487 
L 97.793149 85.683658 
L 98.899627 89.761441 
L 100.011401 94.848708 
L 101.128652 100.943762 
L 102.251351 108.045263 
L 103.379422 116.149547 
L 106.024443 136.455374 
L 107.267113 145.017272 
L 108.453573 152.365895 
L 109.65597 159.020234 
L 110.873652 165.010043 
L 112.57135 172.239929 
L 113.82199 176.828127 
L 115.085371 180.904124 
L 116.520911 184.931339 
L 117.647345 187.690155 
L 119.026104 190.640254 
L 120.252117 192.909828 
L 122.065326 195.729308 
L 123.394648 197.437274 
L 124.732351 198.886235 
L 126.078024 200.100403 
L 127.431272 201.101936 
L 128.791711 201.911024 
L 130.673197 202.743699 
L 132.049256 203.168524 
L 133.431311 203.458263 
L 136.212343 203.687963 
L 137.698334 203.64758 
L 140.951232 203.245269 
L 143.783542 202.620227 
L 146.720957 201.775402 
L 151.559784 200.093167 
L 159.245119 197.064982 
L 170.114245 192.765629 
L 176.000671 190.623993 
L 182.556972 188.45886 
L 188.950276 186.585163 
L 194.98919 185.027651 
L 201.507109 183.563948 
L 207.944114 182.320475 
L 216.074327 181.003205 
L 223.561397 180.005335 
L 233.119314 178.980484 
L 244.18951 178.073476 
L 255.833953 177.367936 
L 269.929847 176.762907 
L 284.597967 176.336742 
L 284.597967 176.336742 
" clip-path="url(#pd3d18c12a3)" style="fill: none; stroke: #8c564b; stroke-width: 1.5; stroke-linecap: square"/>
   </g>
   <g id="line2d_20">
    <path d="M 62.194974 175.596716 
L 67.277381 175.610832 
L 68.777437 175.169211 
L 70.260413 173.598475 
L 71.719753 170.791414 
L 73.681582 164.86218 
L 75.073992 159.040069 
L 76.437182 151.941159 
L 80.395226 128.176247 
L 81.687751 121.503681 
L 83.44755 113.783571 
L 84.793923 108.920197 
L 85.97221 105.357385 
L 87.374143 101.891511 
L 88.455505 99.741387 
L 89.681749 97.801041 
L 91.351419 95.916444 
L 92.553893 95.035971 
L 93.746582 94.50867 
L 94.93011 94.324534 
L 96.109359 94.940374 
L 97.36241 96.68917 
L 98.913927 100.412798 
L 100.248388 104.980984 
L 101.364183 109.757517 
L 102.558222 115.822909 
L 104.960443 130.602082 
L 107.790341 147.50797 
L 109.035946 153.892405 
L 110.373415 160.010867 
L 111.644946 165.170592 
L 112.928205 169.788184 
L 114.629148 175.095324 
L 116.101281 179.028104 
L 117.337335 181.912804 
L 118.664657 184.632041 
L 120.000677 187.014009 
L 121.344867 189.089263 
L 123.120836 191.394039 
L 124.482363 192.863281 
L 125.936458 194.181087 
L 127.311717 195.214693 
L 128.693123 196.067381 
L 130.08029 196.757107 
L 131.909329 197.441741 
L 133.396537 197.83333 
L 136.210758 198.234301 
L 139.04268 198.272539 
L 142.42627 197.952782 
L 145.291281 197.449782 
L 149.612694 196.41144 
L 156.050009 194.499862 
L 176.24557 188.139102 
L 184.211567 185.990051 
L 190.715966 184.451926 
L 198.167558 182.925326 
L 206.195214 181.541138 
L 214.237064 180.394066 
L 223.789299 179.2964 
L 233.447076 178.427095 
L 244.522878 177.665269 
L 257.109869 177.03165 
L 273.278378 176.476831 
L 287.949715 176.145995 
L 287.949715 176.145995 
" clip-path="url(#pd3d18c12a3)" style="fill: none; stroke: #e377c2; stroke-width: 1.5; stroke-linecap: square"/>
   </g>
   <g id="line2d_21">
    <path d="M 62.665598 175.595197 
L 67.747512 175.538286 
L 69.245231 174.762969 
L 70.728235 172.744983 
L 72.192711 169.443857 
L 74.083514 163.132415 
L 76.98701 149.933716 
L 79.748759 137.911304 
L 81.113998 132.838868 
L 83.059479 126.717994 
L 84.317799 123.432234 
L 85.651063 120.489551 
L 86.975249 118.073365 
L 88.290557 116.12873 
L 89.597171 114.602844 
L 91.299284 113.154151 
L 92.666805 112.379281 
L 93.945653 111.92944 
L 95.295972 111.709836 
L 96.481497 111.862433 
L 97.744256 112.918108 
L 99.086163 115.133809 
L 100.746234 119.428516 
L 102.013585 123.855004 
L 103.283375 129.27829 
L 107.128561 147.661729 
L 108.919269 155.113364 
L 110.233305 159.951276 
L 111.55679 164.309774 
L 112.889224 168.215483 
L 114.314335 171.905519 
L 115.663924 174.981144 
L 117.446771 178.488563 
L 118.813438 180.796734 
L 120.186771 182.821063 
L 121.56649 184.587459 
L 123.039014 186.208405 
L 124.430746 187.516204 
L 126.265625 188.946136 
L 127.757324 189.891114 
L 129.07803 190.583878 
L 130.49115 191.191856 
L 133.419062 192.074295 
L 136.721373 192.573899 
L 139.682402 192.677805 
L 142.566329 192.540396 
L 146.00556 192.146215 
L 150.369899 191.393413 
L 156.76909 189.991625 
L 180.046483 184.537873 
L 188.141923 182.960973 
L 196.163997 181.621546 
L 204.201438 180.491628 
L 213.84336 179.385386 
L 223.310862 178.523943 
L 234.383654 177.745856 
L 247.062978 177.090259 
L 261.630768 176.564119 
L 280.345087 176.129824 
L 292.009619 175.951675 
L 292.009619 175.951675 
" clip-path="url(#pd3d18c12a3)" style="fill: none; stroke: #7f7f7f; stroke-width: 1.5; stroke-linecap: square"/>
   </g>
   <g id="line2d_22">
    <path d="M 62.478232 175.595733 
L 67.560662 175.538375 
L 69.062432 174.779855 
L 70.555688 172.75365 
L 72.037811 169.442606 
L 75.422983 159.452207 
L 78.310053 151.185766 
L 79.919282 147.182584 
L 81.252679 144.253213 
L 83.196239 140.616872 
L 84.51339 138.562881 
L 86.085799 136.514251 
L 87.389457 135.122469 
L 88.773587 133.921345 
L 90.151336 132.981548 
L 92.035649 132.061318 
L 93.398992 131.626933 
L 94.756628 131.362746 
L 96.108761 131.247226 
L 97.45607 131.334961 
L 98.80109 132.238306 
L 100.145569 134.138627 
L 101.994459 138.378031 
L 104.859729 147.456598 
L 107.407822 155.430441 
L 108.776149 159.28049 
L 110.667911 164.03031 
L 112.137758 167.271398 
L 113.440273 169.835714 
L 114.83507 172.285583 
L 116.235238 174.462688 
L 117.640471 176.389365 
L 119.580527 178.669661 
L 120.996838 180.086727 
L 122.417378 181.321533 
L 123.931111 182.45306 
L 125.359746 183.364624 
L 126.791993 184.142264 
L 128.676928 184.98155 
L 131.559845 185.919649 
L 134.544956 186.531736 
L 137.905085 186.879548 
L 141.003707 186.954238 
L 145.302673 186.772068 
L 150.261188 186.281219 
L 156.160587 185.467842 
L 188.14763 180.652892 
L 197.687954 179.577741 
L 208.83681 178.570133 
L 219.90633 177.798122 
L 232.583422 177.137789 
L 247.243494 176.598963 
L 264.921637 176.173245 
L 288.628598 175.843034 
L 295.215523 175.782995 
L 295.215523 175.782995 
" clip-path="url(#pd3d18c12a3)" style="fill: none; stroke: #bcbd22; stroke-width: 1.5; stroke-linecap: square"/>
   </g>
   <g id="line2d_23">
    <path d="M 62.571473 175.595465 
L 67.559938 175.55803 
L 69.0643 175.034124 
L 70.565729 173.762419 
L 72.062982 171.942775 
L 78.557445 162.767539 
L 80.029265 161.007575 
L 81.496646 159.448544 
L 83.507395 157.630061 
L 84.964942 156.530966 
L 86.418571 155.605017 
L 87.868435 154.837205 
L 89.314696 154.212074 
L 90.75758 153.714971 
L 92.28701 153.311588 
L 95.692921 152.798939 
L 97.032831 152.719781 
L 98.548717 152.754357 
L 100.062838 153.492596 
L 101.309089 154.719362 
L 103.268507 157.399288 
L 108.993047 166.138889 
L 110.611752 168.273198 
L 112.414917 170.393749 
L 113.860759 171.901945 
L 116.76083 174.450805 
L 118.214819 175.51318 
L 119.762366 176.503902 
L 121.677588 177.55091 
L 124.694748 178.853618 
L 127.628425 179.783229 
L 131.029273 180.529867 
L 134.069529 180.959963 
L 138.502353 181.284099 
L 143.502363 181.34101 
L 149.908302 181.110863 
L 159.032915 180.480907 
L 189.622593 178.132711 
L 203.791772 177.353195 
L 217.881828 176.785689 
L 235.648722 176.297878 
L 258.315922 175.92514 
L 288.709876 175.674891 
L 298.402065 175.629683 
L 298.402065 175.629683 
" clip-path="url(#pd3d18c12a3)" style="fill: none; stroke: #17becf; stroke-width: 1.5; stroke-linecap: square"/>
   </g>
   <g id="line2d_24">
    <path d="M 62.571551 175.595465 
L 126.764716 175.500136 
L 301.343889 175.49147 
L 301.343889 175.49147 
" clip-path="url(#pd3d18c12a3)" style="fill: none; stroke: #1f77b4; stroke-width: 1.5; stroke-linecap: square"/>
   </g>
   <g id="patch_3">
    <path d="M 50.2375 234.61625 
L 50.2375 25.8 
" style="fill: none; stroke: #000000; stroke-width: 0.8; stroke-linejoin: miter; stroke-linecap: square"/>
   </g>
   <g id="patch_4">
    <path d="M 313.301336 234.61625 
L 313.301336 25.8 
" style="fill: none; stroke: #000000; stroke-width: 0.8; stroke-linejoin: miter; stroke-linecap: square"/>
   </g>
   <g id="patch_5">
    <path d="M 50.2375 234.61625 
L 313.301336 234.61625 
" style="fill: none; stroke: #000000; stroke-width: 0.8; stroke-linejoin: miter; stroke-linecap: square"/>
   </g>
   <g id="patch_6">
    <path d="M 50.2375 25.8 
L 313.301336 25.8 
" style="fill: none; stroke: #000000; stroke-width: 0.8; stroke-linejoin: miter; stroke-linecap: square"/>
   </g>
   <g id="text_16">
    <!-- The Deceleration Flight Trajectory -->
    <g transform="translate(98.28598 19.8) scale(0.12 -0.12)">
     <defs>
      <path id="TimesNewRomanPSMT-54" d="M 3703 4238 
L 3750 3244 
L 3631 3244 
Q 3597 3506 3538 3619 
Q 3441 3800 3280 3886 
Q 3119 3972 2856 3972 
L 2259 3972 
L 2259 734 
Q 2259 344 2344 247 
Q 2463 116 2709 116 
L 2856 116 
L 2856 0 
L 1059 0 
L 1059 116 
L 1209 116 
Q 1478 116 1591 278 
Q 1659 378 1659 734 
L 1659 3972 
L 1150 3972 
Q 853 3972 728 3928 
Q 566 3869 450 3700 
Q 334 3531 313 3244 
L 194 3244 
L 244 4238 
L 3703 4238 
z
" transform="scale(0.015625)"/>
      <path id="TimesNewRomanPSMT-6c" d="M 1184 4444 
L 1184 647 
Q 1184 378 1223 290 
Q 1263 203 1344 158 
Q 1425 113 1647 113 
L 1647 0 
L 244 0 
L 244 113 
Q 441 113 512 153 
Q 584 194 625 287 
Q 666 381 666 647 
L 666 3247 
Q 666 3731 644 3842 
Q 622 3953 573 3993 
Q 525 4034 450 4034 
Q 369 4034 244 3984 
L 191 4094 
L 1044 4444 
L 1184 4444 
z
" transform="scale(0.015625)"/>
      <path id="TimesNewRomanPSMT-72" d="M 1038 2947 
L 1038 2303 
Q 1397 2947 1775 2947 
Q 1947 2947 2059 2842 
Q 2172 2738 2172 2600 
Q 2172 2478 2090 2393 
Q 2009 2309 1897 2309 
Q 1788 2309 1652 2417 
Q 1516 2525 1450 2525 
Q 1394 2525 1328 2463 
Q 1188 2334 1038 2041 
L 1038 669 
Q 1038 431 1097 309 
Q 1138 225 1241 169 
Q 1344 113 1538 113 
L 1538 0 
L 72 0 
L 72 113 
Q 291 113 397 181 
Q 475 231 506 341 
Q 522 394 522 644 
L 522 1753 
Q 522 2253 501 2348 
Q 481 2444 426 2487 
Q 372 2531 291 2531 
Q 194 2531 72 2484 
L 41 2597 
L 906 2947 
L 1038 2947 
z
" transform="scale(0.015625)"/>
      <path id="TimesNewRomanPSMT-6f" d="M 1600 2947 
Q 2250 2947 2644 2453 
Q 2978 2031 2978 1484 
Q 2978 1100 2793 706 
Q 2609 313 2286 112 
Q 1963 -88 1566 -88 
Q 919 -88 538 428 
Q 216 863 216 1403 
Q 216 1797 411 2186 
Q 606 2575 925 2761 
Q 1244 2947 1600 2947 
z
M 1503 2744 
Q 1338 2744 1170 2645 
Q 1003 2547 900 2300 
Q 797 2053 797 1666 
Q 797 1041 1045 587 
Q 1294 134 1700 134 
Q 2003 134 2200 384 
Q 2397 634 2397 1244 
Q 2397 2006 2069 2444 
Q 1847 2744 1503 2744 
z
" transform="scale(0.015625)"/>
      <path id="TimesNewRomanPSMT-46" d="M 1309 4006 
L 1309 2341 
L 2081 2341 
Q 2347 2341 2470 2458 
Q 2594 2575 2634 2922 
L 2750 2922 
L 2750 1488 
L 2634 1488 
Q 2631 1734 2570 1850 
Q 2509 1966 2401 2023 
Q 2294 2081 2081 2081 
L 1309 2081 
L 1309 750 
Q 1309 428 1350 325 
Q 1381 247 1481 191 
Q 1619 116 1769 116 
L 1922 116 
L 1922 0 
L 103 0 
L 103 116 
L 253 116 
Q 516 116 634 269 
Q 709 369 709 750 
L 709 3488 
Q 709 3809 669 3913 
Q 638 3991 541 4047 
Q 406 4122 253 4122 
L 103 4122 
L 103 4238 
L 3256 4238 
L 3297 3306 
L 3188 3306 
Q 3106 3603 2998 3742 
Q 2891 3881 2733 3943 
Q 2575 4006 2244 4006 
L 1309 4006 
z
" transform="scale(0.015625)"/>
      <path id="TimesNewRomanPSMT-6a" d="M 925 4447 
Q 1059 4447 1153 4353 
Q 1247 4259 1247 4125 
Q 1247 3994 1153 3900 
Q 1059 3806 925 3806 
Q 794 3806 700 3900 
Q 606 3994 606 4125 
Q 606 4259 700 4353 
Q 794 4447 925 4447 
z
M 1194 2947 
L 1194 66 
Q 1194 -669 881 -1025 
Q 569 -1381 69 -1381 
Q -216 -1381 -353 -1278 
Q -491 -1175 -491 -1066 
Q -491 -956 -414 -878 
Q -338 -800 -234 -800 
Q -153 -800 -69 -841 
Q -16 -863 136 -998 
Q 288 -1134 391 -1134 
Q 466 -1134 537 -1076 
Q 609 -1019 643 -883 
Q 678 -747 678 -294 
L 678 1744 
Q 678 2216 650 2350 
Q 628 2453 581 2492 
Q 534 2531 453 2531 
Q 366 2531 241 2484 
L 197 2597 
L 1059 2947 
L 1194 2947 
z
" transform="scale(0.015625)"/>
      <path id="TimesNewRomanPSMT-79" d="M 38 2863 
L 1372 2863 
L 1372 2747 
L 1306 2747 
Q 1166 2747 1095 2686 
Q 1025 2625 1025 2534 
Q 1025 2413 1128 2197 
L 1825 753 
L 2466 2334 
Q 2519 2463 2519 2588 
Q 2519 2644 2497 2672 
Q 2472 2706 2419 2726 
Q 2366 2747 2231 2747 
L 2231 2863 
L 3163 2863 
L 3163 2747 
Q 3047 2734 2984 2696 
Q 2922 2659 2847 2556 
Q 2819 2513 2741 2316 
L 1575 -541 
Q 1406 -956 1132 -1168 
Q 859 -1381 606 -1381 
Q 422 -1381 303 -1275 
Q 184 -1169 184 -1031 
Q 184 -900 270 -820 
Q 356 -741 506 -741 
Q 609 -741 788 -809 
Q 913 -856 944 -856 
Q 1038 -856 1148 -759 
Q 1259 -663 1372 -384 
L 1575 113 
L 547 2272 
Q 500 2369 397 2513 
Q 319 2622 269 2659 
Q 197 2709 38 2747 
L 38 2863 
z
" transform="scale(0.015625)"/>
     </defs>
     <use xlink:href="#TimesNewRomanPSMT-54"/>
     <use xlink:href="#TimesNewRomanPSMT-68" x="61.083984"/>
     <use xlink:href="#TimesNewRomanPSMT-65" x="111.083984"/>
     <use xlink:href="#TimesNewRomanPSMT-20" x="155.46875"/>
     <use xlink:href="#TimesNewRomanPSMT-44" x="180.46875"/>
     <use xlink:href="#TimesNewRomanPSMT-65" x="252.685547"/>
     <use xlink:href="#TimesNewRomanPSMT-63" x="297.070312"/>
     <use xlink:href="#TimesNewRomanPSMT-65" x="341.455078"/>
     <use xlink:href="#TimesNewRomanPSMT-6c" x="385.839844"/>
     <use xlink:href="#TimesNewRomanPSMT-65" x="413.623047"/>
     <use xlink:href="#TimesNewRomanPSMT-72" x="458.007812"/>
     <use xlink:href="#TimesNewRomanPSMT-61" x="491.308594"/>
     <use xlink:href="#TimesNewRomanPSMT-74" x="535.693359"/>
     <use xlink:href="#TimesNewRomanPSMT-69" x="563.476562"/>
     <use xlink:href="#TimesNewRomanPSMT-6f" x="591.259766"/>
     <use xlink:href="#TimesNewRomanPSMT-6e" x="641.259766"/>
     <use xlink:href="#TimesNewRomanPSMT-20" x="691.259766"/>
     <use xlink:href="#TimesNewRomanPSMT-46" x="716.259766"/>
     <use xlink:href="#TimesNewRomanPSMT-6c" x="771.875"/>
     <use xlink:href="#TimesNewRomanPSMT-69" x="799.658203"/>
     <use xlink:href="#TimesNewRomanPSMT-67" x="827.441406"/>
     <use xlink:href="#TimesNewRomanPSMT-68" x="877.441406"/>
     <use xlink:href="#TimesNewRomanPSMT-74" x="927.441406"/>
     <use xlink:href="#TimesNewRomanPSMT-20" x="955.224609"/>
     <use xlink:href="#TimesNewRomanPSMT-54" x="978.474609"/>
     <use xlink:href="#TimesNewRomanPSMT-72" x="1036.058594"/>
     <use xlink:href="#TimesNewRomanPSMT-61" x="1069.359375"/>
     <use xlink:href="#TimesNewRomanPSMT-6a" x="1113.744141"/>
     <use xlink:href="#TimesNewRomanPSMT-65" x="1141.527344"/>
     <use xlink:href="#TimesNewRomanPSMT-63" x="1185.912109"/>
     <use xlink:href="#TimesNewRomanPSMT-74" x="1230.296875"/>
     <use xlink:href="#TimesNewRomanPSMT-6f" x="1258.080078"/>
     <use xlink:href="#TimesNewRomanPSMT-72" x="1308.080078"/>
     <use xlink:href="#TimesNewRomanPSMT-79" x="1341.380859"/>
    </g>
   </g>
   <g id="legend_1">
    <g id="patch_7">
     <path d="M 325.562613 238.4 
L 416.062613 238.4 
Q 418.062613 238.4 418.062613 236.4 
L 418.062613 32.8 
Q 418.062613 30.8 416.062613 30.8 
L 325.562613 30.8 
Q 323.562613 30.8 323.562613 32.8 
L 323.562613 236.4 
Q 323.562613 238.4 325.562613 238.4 
z
" style="fill: #ffffff; opacity: 0.8; stroke: #cccccc; stroke-linejoin: miter"/>
    </g>
    <g id="line2d_25">
     <path d="M 327.562613 42.1 
L 337.562613 42.1 
L 347.562613 42.1 
" style="fill: none; stroke: #1f77b4; stroke-width: 1.5; stroke-linecap: square"/>
    </g>
    <g id="text_17">
     <!--  $a_{i}^k$ = -10 $\mathregular{m^2}$/s -->
     <g transform="translate(355.562613 45.6) scale(0.1 -0.1)">
      <defs>
       <path id="DejaVuSans-Oblique-61" d="M 3438 1997 
L 3047 0 
L 2472 0 
L 2578 531 
Q 2325 219 2001 64 
Q 1678 -91 1281 -91 
Q 834 -91 548 182 
Q 263 456 263 884 
Q 263 1497 752 1853 
Q 1241 2209 2100 2209 
L 2900 2209 
L 2931 2363 
Q 2938 2388 2941 2417 
Q 2944 2447 2944 2509 
Q 2944 2788 2717 2942 
Q 2491 3097 2081 3097 
Q 1800 3097 1504 3025 
Q 1209 2953 897 2809 
L 997 3341 
Q 1322 3463 1633 3523 
Q 1944 3584 2234 3584 
Q 2853 3584 3176 3315 
Q 3500 3047 3500 2534 
Q 3500 2431 3484 2292 
Q 3469 2153 3438 1997 
z
M 2816 1759 
L 2241 1759 
Q 1534 1759 1195 1570 
Q 856 1381 856 984 
Q 856 709 1029 553 
Q 1203 397 1509 397 
Q 1978 397 2328 733 
Q 2678 1069 2791 1631 
L 2816 1759 
z
" transform="scale(0.015625)"/>
       <path id="DejaVuSans-Oblique-6b" d="M 1172 4863 
L 1747 4863 
L 1197 2028 
L 3169 3500 
L 3916 3500 
L 1716 1825 
L 3322 0 
L 2625 0 
L 1131 1709 
L 800 0 
L 225 0 
L 1172 4863 
z
" transform="scale(0.015625)"/>
       <path id="DejaVuSans-Oblique-69" d="M 1172 4863 
L 1747 4863 
L 1606 4134 
L 1031 4134 
L 1172 4863 
z
M 909 3500 
L 1484 3500 
L 800 0 
L 225 0 
L 909 3500 
z
" transform="scale(0.015625)"/>
       <path id="TimesNewRomanPSMT-3d" d="M 116 2759 
L 3488 2759 
L 3488 2503 
L 116 2503 
L 116 2759 
z
M 116 1741 
L 3488 1741 
L 3488 1484 
L 116 1484 
L 116 1741 
z
" transform="scale(0.015625)"/>
       <path id="TimesNewRomanPSMT-2d" d="M 259 1672 
L 1875 1672 
L 1875 1200 
L 259 1200 
L 259 1672 
z
" transform="scale(0.015625)"/>
       <path id="TimesNewRomanPSMT-2f" d="M 1794 4444 
L 259 -88 
L 9 -88 
L 1544 4444 
L 1794 4444 
z
" transform="scale(0.015625)"/>
      </defs>
      <use xlink:href="#TimesNewRomanPSMT-20" transform="translate(0 0.582813)"/>
      <use xlink:href="#DejaVuSans-Oblique-61" transform="translate(25 0.582813)"/>
      <use xlink:href="#DejaVuSans-Oblique-6b" transform="translate(90.929193 38.928125) scale(0.7)"/>
      <use xlink:href="#DejaVuSans-Oblique-69" transform="translate(86.279297 -26.760937) scale(0.7)"/>
      <use xlink:href="#TimesNewRomanPSMT-20" transform="translate(134.200677 0.582813)"/>
      <use xlink:href="#TimesNewRomanPSMT-3d" transform="translate(159.200677 0.582813)"/>
      <use xlink:href="#TimesNewRomanPSMT-20" transform="translate(215.597161 0.582813)"/>
      <use xlink:href="#TimesNewRomanPSMT-2d" transform="translate(240.597161 0.582813)"/>
      <use xlink:href="#TimesNewRomanPSMT-31" transform="translate(273.897943 0.582813)"/>
      <use xlink:href="#TimesNewRomanPSMT-30" transform="translate(323.897943 0.582813)"/>
      <use xlink:href="#TimesNewRomanPSMT-20" transform="translate(373.897943 0.582813)"/>
      <use xlink:href="#TimesNewRomanPSMT-6d" transform="translate(398.897943 0.582813)"/>
      <use xlink:href="#TimesNewRomanPSMT-32" transform="translate(478.183958 60.695312) scale(0.7)"/>
      <use xlink:href="#TimesNewRomanPSMT-2f" transform="translate(517.477708 0.582813)"/>
      <use xlink:href="#TimesNewRomanPSMT-73" transform="translate(545.260911 0.582813)"/>
     </g>
    </g>
    <g id="line2d_26">
     <path d="M 327.562613 60.7 
L 337.562613 60.7 
L 347.562613 60.7 
" style="fill: none; stroke: #ff7f0e; stroke-width: 1.5; stroke-linecap: square"/>
    </g>
    <g id="text_18">
     <!-- $a_{i}^k$ = - 9 $\mathregular{m^2}$/s -->
     <g transform="translate(355.562613 64.2) scale(0.1 -0.1)">
      <defs>
       <path id="TimesNewRomanPSMT-39" d="M 338 -88 
L 338 28 
Q 744 34 1094 217 
Q 1444 400 1770 856 
Q 2097 1313 2225 1859 
Q 1734 1544 1338 1544 
Q 891 1544 572 1889 
Q 253 2234 253 2806 
Q 253 3363 572 3797 
Q 956 4325 1575 4325 
Q 2097 4325 2469 3894 
Q 2925 3359 2925 2575 
Q 2925 1869 2578 1258 
Q 2231 647 1613 244 
Q 1109 -88 516 -88 
L 338 -88 
z
M 2275 2091 
Q 2331 2497 2331 2741 
Q 2331 3044 2228 3395 
Q 2125 3747 1936 3934 
Q 1747 4122 1506 4122 
Q 1228 4122 1018 3872 
Q 809 3622 809 3128 
Q 809 2469 1088 2097 
Q 1291 1828 1588 1828 
Q 1731 1828 1928 1897 
Q 2125 1966 2275 2091 
z
" transform="scale(0.015625)"/>
      </defs>
      <use xlink:href="#DejaVuSans-Oblique-61" transform="translate(0 0.582813)"/>
      <use xlink:href="#DejaVuSans-Oblique-6b" transform="translate(65.929193 38.928125) scale(0.7)"/>
      <use xlink:href="#DejaVuSans-Oblique-69" transform="translate(61.279297 -26.760937) scale(0.7)"/>
      <use xlink:href="#TimesNewRomanPSMT-20" transform="translate(109.200677 0.582813)"/>
      <use xlink:href="#TimesNewRomanPSMT-3d" transform="translate(134.200677 0.582813)"/>
      <use xlink:href="#TimesNewRomanPSMT-20" transform="translate(190.597161 0.582813)"/>
      <use xlink:href="#TimesNewRomanPSMT-2d" transform="translate(215.597161 0.582813)"/>
      <use xlink:href="#TimesNewRomanPSMT-20" transform="translate(248.897943 0.582813)"/>
      <use xlink:href="#TimesNewRomanPSMT-39" transform="translate(273.897943 0.582813)"/>
      <use xlink:href="#TimesNewRomanPSMT-20" transform="translate(323.897943 0.582813)"/>
      <use xlink:href="#TimesNewRomanPSMT-6d" transform="translate(348.897943 0.582813)"/>
      <use xlink:href="#TimesNewRomanPSMT-32" transform="translate(428.183958 60.695312) scale(0.7)"/>
      <use xlink:href="#TimesNewRomanPSMT-2f" transform="translate(467.477708 0.582813)"/>
      <use xlink:href="#TimesNewRomanPSMT-73" transform="translate(495.260911 0.582813)"/>
     </g>
    </g>
    <g id="line2d_27">
     <path d="M 327.562613 79.3 
L 337.562613 79.3 
L 347.562613 79.3 
" style="fill: none; stroke: #2ca02c; stroke-width: 1.5; stroke-linecap: square"/>
    </g>
    <g id="text_19">
     <!-- $a_{i}^k$ = - 8 $\mathregular{m^2}$/s -->
     <g transform="translate(355.562613 82.8) scale(0.1 -0.1)">
      <defs>
       <path id="TimesNewRomanPSMT-38" d="M 1228 2134 
Q 725 2547 579 2797 
Q 434 3047 434 3316 
Q 434 3728 753 4026 
Q 1072 4325 1600 4325 
Q 2113 4325 2425 4047 
Q 2738 3769 2738 3413 
Q 2738 3175 2569 2928 
Q 2400 2681 1866 2347 
Q 2416 1922 2594 1678 
Q 2831 1359 2831 1006 
Q 2831 559 2490 242 
Q 2150 -75 1597 -75 
Q 994 -75 656 303 
Q 388 606 388 966 
Q 388 1247 577 1523 
Q 766 1800 1228 2134 
z
M 1719 2469 
Q 2094 2806 2194 3001 
Q 2294 3197 2294 3444 
Q 2294 3772 2109 3958 
Q 1925 4144 1606 4144 
Q 1288 4144 1088 3959 
Q 888 3775 888 3528 
Q 888 3366 970 3203 
Q 1053 3041 1206 2894 
L 1719 2469 
z
M 1375 2016 
Q 1116 1797 991 1539 
Q 866 1281 866 981 
Q 866 578 1086 336 
Q 1306 94 1647 94 
Q 1984 94 2187 284 
Q 2391 475 2391 747 
Q 2391 972 2272 1150 
Q 2050 1481 1375 2016 
z
" transform="scale(0.015625)"/>
      </defs>
      <use xlink:href="#DejaVuSans-Oblique-61" transform="translate(0 0.582813)"/>
      <use xlink:href="#DejaVuSans-Oblique-6b" transform="translate(65.929193 38.928125) scale(0.7)"/>
      <use xlink:href="#DejaVuSans-Oblique-69" transform="translate(61.279297 -26.760937) scale(0.7)"/>
      <use xlink:href="#TimesNewRomanPSMT-20" transform="translate(109.200677 0.582813)"/>
      <use xlink:href="#TimesNewRomanPSMT-3d" transform="translate(134.200677 0.582813)"/>
      <use xlink:href="#TimesNewRomanPSMT-20" transform="translate(190.597161 0.582813)"/>
      <use xlink:href="#TimesNewRomanPSMT-2d" transform="translate(215.597161 0.582813)"/>
      <use xlink:href="#TimesNewRomanPSMT-20" transform="translate(248.897943 0.582813)"/>
      <use xlink:href="#TimesNewRomanPSMT-38" transform="translate(273.897943 0.582813)"/>
      <use xlink:href="#TimesNewRomanPSMT-20" transform="translate(323.897943 0.582813)"/>
      <use xlink:href="#TimesNewRomanPSMT-6d" transform="translate(348.897943 0.582813)"/>
      <use xlink:href="#TimesNewRomanPSMT-32" transform="translate(428.183958 60.695312) scale(0.7)"/>
      <use xlink:href="#TimesNewRomanPSMT-2f" transform="translate(467.477708 0.582813)"/>
      <use xlink:href="#TimesNewRomanPSMT-73" transform="translate(495.260911 0.582813)"/>
     </g>
    </g>
    <g id="line2d_28">
     <path d="M 327.562613 97.9 
L 337.562613 97.9 
L 347.562613 97.9 
" style="fill: none; stroke: #d62728; stroke-width: 1.5; stroke-linecap: square"/>
    </g>
    <g id="text_20">
     <!-- $a_{i}^k$ = - 7 $\mathregular{m^2}$/s -->
     <g transform="translate(355.562613 101.4) scale(0.1 -0.1)">
      <use xlink:href="#DejaVuSans-Oblique-61" transform="translate(0 0.582813)"/>
      <use xlink:href="#DejaVuSans-Oblique-6b" transform="translate(65.929193 38.928125) scale(0.7)"/>
      <use xlink:href="#DejaVuSans-Oblique-69" transform="translate(61.279297 -26.760937) scale(0.7)"/>
      <use xlink:href="#TimesNewRomanPSMT-20" transform="translate(109.200677 0.582813)"/>
      <use xlink:href="#TimesNewRomanPSMT-3d" transform="translate(134.200677 0.582813)"/>
      <use xlink:href="#TimesNewRomanPSMT-20" transform="translate(190.597161 0.582813)"/>
      <use xlink:href="#TimesNewRomanPSMT-2d" transform="translate(215.597161 0.582813)"/>
      <use xlink:href="#TimesNewRomanPSMT-20" transform="translate(248.897943 0.582813)"/>
      <use xlink:href="#TimesNewRomanPSMT-37" transform="translate(273.897943 0.582813)"/>
      <use xlink:href="#TimesNewRomanPSMT-20" transform="translate(323.897943 0.582813)"/>
      <use xlink:href="#TimesNewRomanPSMT-6d" transform="translate(348.897943 0.582813)"/>
      <use xlink:href="#TimesNewRomanPSMT-32" transform="translate(428.183958 60.695312) scale(0.7)"/>
      <use xlink:href="#TimesNewRomanPSMT-2f" transform="translate(467.477708 0.582813)"/>
      <use xlink:href="#TimesNewRomanPSMT-73" transform="translate(495.260911 0.582813)"/>
     </g>
    </g>
    <g id="line2d_29">
     <path d="M 327.562613 116.5 
L 337.562613 116.5 
L 347.562613 116.5 
" style="fill: none; stroke: #9467bd; stroke-width: 1.5; stroke-linecap: square"/>
    </g>
    <g id="text_21">
     <!-- $a_{i}^k$ = - 6 $\mathregular{m^2}$/s -->
     <g transform="translate(355.562613 120) scale(0.1 -0.1)">
      <use xlink:href="#DejaVuSans-Oblique-61" transform="translate(0 0.582813)"/>
      <use xlink:href="#DejaVuSans-Oblique-6b" transform="translate(65.929193 38.928125) scale(0.7)"/>
      <use xlink:href="#DejaVuSans-Oblique-69" transform="translate(61.279297 -26.760937) scale(0.7)"/>
      <use xlink:href="#TimesNewRomanPSMT-20" transform="translate(109.200677 0.582813)"/>
      <use xlink:href="#TimesNewRomanPSMT-3d" transform="translate(134.200677 0.582813)"/>
      <use xlink:href="#TimesNewRomanPSMT-20" transform="translate(190.597161 0.582813)"/>
      <use xlink:href="#TimesNewRomanPSMT-2d" transform="translate(215.597161 0.582813)"/>
      <use xlink:href="#TimesNewRomanPSMT-20" transform="translate(248.897943 0.582813)"/>
      <use xlink:href="#TimesNewRomanPSMT-36" transform="translate(273.897943 0.582813)"/>
      <use xlink:href="#TimesNewRomanPSMT-20" transform="translate(323.897943 0.582813)"/>
      <use xlink:href="#TimesNewRomanPSMT-6d" transform="translate(348.897943 0.582813)"/>
      <use xlink:href="#TimesNewRomanPSMT-32" transform="translate(428.183958 60.695312) scale(0.7)"/>
      <use xlink:href="#TimesNewRomanPSMT-2f" transform="translate(467.477708 0.582813)"/>
      <use xlink:href="#TimesNewRomanPSMT-73" transform="translate(495.260911 0.582813)"/>
     </g>
    </g>
    <g id="line2d_30">
     <path d="M 327.562613 135.1 
L 337.562613 135.1 
L 347.562613 135.1 
" style="fill: none; stroke: #8c564b; stroke-width: 1.5; stroke-linecap: square"/>
    </g>
    <g id="text_22">
     <!-- $a_{i}^k$ = - 5 $\mathregular{m^2}$/s -->
     <g transform="translate(355.562613 138.6) scale(0.1 -0.1)">
      <use xlink:href="#DejaVuSans-Oblique-61" transform="translate(0 0.582813)"/>
      <use xlink:href="#DejaVuSans-Oblique-6b" transform="translate(65.929193 38.928125) scale(0.7)"/>
      <use xlink:href="#DejaVuSans-Oblique-69" transform="translate(61.279297 -26.760937) scale(0.7)"/>
      <use xlink:href="#TimesNewRomanPSMT-20" transform="translate(109.200677 0.582813)"/>
      <use xlink:href="#TimesNewRomanPSMT-3d" transform="translate(134.200677 0.582813)"/>
      <use xlink:href="#TimesNewRomanPSMT-20" transform="translate(190.597161 0.582813)"/>
      <use xlink:href="#TimesNewRomanPSMT-2d" transform="translate(215.597161 0.582813)"/>
      <use xlink:href="#TimesNewRomanPSMT-20" transform="translate(248.897943 0.582813)"/>
      <use xlink:href="#TimesNewRomanPSMT-35" transform="translate(273.897943 0.582813)"/>
      <use xlink:href="#TimesNewRomanPSMT-20" transform="translate(323.897943 0.582813)"/>
      <use xlink:href="#TimesNewRomanPSMT-6d" transform="translate(348.897943 0.582813)"/>
      <use xlink:href="#TimesNewRomanPSMT-32" transform="translate(428.183958 60.695312) scale(0.7)"/>
      <use xlink:href="#TimesNewRomanPSMT-2f" transform="translate(467.477708 0.582813)"/>
      <use xlink:href="#TimesNewRomanPSMT-73" transform="translate(495.260911 0.582813)"/>
     </g>
    </g>
    <g id="line2d_31">
     <path d="M 327.562613 153.7 
L 337.562613 153.7 
L 347.562613 153.7 
" style="fill: none; stroke: #e377c2; stroke-width: 1.5; stroke-linecap: square"/>
    </g>
    <g id="text_23">
     <!-- $a_{i}^k$ = - 4 $\mathregular{m^2}$/s -->
     <g transform="translate(355.562613 157.2) scale(0.1 -0.1)">
      <use xlink:href="#DejaVuSans-Oblique-61" transform="translate(0 0.582813)"/>
      <use xlink:href="#DejaVuSans-Oblique-6b" transform="translate(65.929193 38.928125) scale(0.7)"/>
      <use xlink:href="#DejaVuSans-Oblique-69" transform="translate(61.279297 -26.760937) scale(0.7)"/>
      <use xlink:href="#TimesNewRomanPSMT-20" transform="translate(109.200677 0.582813)"/>
      <use xlink:href="#TimesNewRomanPSMT-3d" transform="translate(134.200677 0.582813)"/>
      <use xlink:href="#TimesNewRomanPSMT-20" transform="translate(190.597161 0.582813)"/>
      <use xlink:href="#TimesNewRomanPSMT-2d" transform="translate(215.597161 0.582813)"/>
      <use xlink:href="#TimesNewRomanPSMT-20" transform="translate(248.897943 0.582813)"/>
      <use xlink:href="#TimesNewRomanPSMT-34" transform="translate(273.897943 0.582813)"/>
      <use xlink:href="#TimesNewRomanPSMT-20" transform="translate(323.897943 0.582813)"/>
      <use xlink:href="#TimesNewRomanPSMT-6d" transform="translate(348.897943 0.582813)"/>
      <use xlink:href="#TimesNewRomanPSMT-32" transform="translate(428.183958 60.695312) scale(0.7)"/>
      <use xlink:href="#TimesNewRomanPSMT-2f" transform="translate(467.477708 0.582813)"/>
      <use xlink:href="#TimesNewRomanPSMT-73" transform="translate(495.260911 0.582813)"/>
     </g>
    </g>
    <g id="line2d_32">
     <path d="M 327.562613 172.3 
L 337.562613 172.3 
L 347.562613 172.3 
" style="fill: none; stroke: #7f7f7f; stroke-width: 1.5; stroke-linecap: square"/>
    </g>
    <g id="text_24">
     <!-- $a_{i}^k$ = - 3 $\mathregular{m^2}$/s -->
     <g transform="translate(355.562613 175.8) scale(0.1 -0.1)">
      <use xlink:href="#DejaVuSans-Oblique-61" transform="translate(0 0.582813)"/>
      <use xlink:href="#DejaVuSans-Oblique-6b" transform="translate(65.929193 38.928125) scale(0.7)"/>
      <use xlink:href="#DejaVuSans-Oblique-69" transform="translate(61.279297 -26.760937) scale(0.7)"/>
      <use xlink:href="#TimesNewRomanPSMT-20" transform="translate(109.200677 0.582813)"/>
      <use xlink:href="#TimesNewRomanPSMT-3d" transform="translate(134.200677 0.582813)"/>
      <use xlink:href="#TimesNewRomanPSMT-20" transform="translate(190.597161 0.582813)"/>
      <use xlink:href="#TimesNewRomanPSMT-2d" transform="translate(215.597161 0.582813)"/>
      <use xlink:href="#TimesNewRomanPSMT-20" transform="translate(248.897943 0.582813)"/>
      <use xlink:href="#TimesNewRomanPSMT-33" transform="translate(273.897943 0.582813)"/>
      <use xlink:href="#TimesNewRomanPSMT-20" transform="translate(323.897943 0.582813)"/>
      <use xlink:href="#TimesNewRomanPSMT-6d" transform="translate(348.897943 0.582813)"/>
      <use xlink:href="#TimesNewRomanPSMT-32" transform="translate(428.183958 60.695312) scale(0.7)"/>
      <use xlink:href="#TimesNewRomanPSMT-2f" transform="translate(467.477708 0.582813)"/>
      <use xlink:href="#TimesNewRomanPSMT-73" transform="translate(495.260911 0.582813)"/>
     </g>
    </g>
    <g id="line2d_33">
     <path d="M 327.562613 190.9 
L 337.562613 190.9 
L 347.562613 190.9 
" style="fill: none; stroke: #bcbd22; stroke-width: 1.5; stroke-linecap: square"/>
    </g>
    <g id="text_25">
     <!-- $a_{i}^k$ = - 2 $\mathregular{m^2}$/s -->
     <g transform="translate(355.562613 194.4) scale(0.1 -0.1)">
      <use xlink:href="#DejaVuSans-Oblique-61" transform="translate(0 0.582813)"/>
      <use xlink:href="#DejaVuSans-Oblique-6b" transform="translate(65.929193 38.928125) scale(0.7)"/>
      <use xlink:href="#DejaVuSans-Oblique-69" transform="translate(61.279297 -26.760937) scale(0.7)"/>
      <use xlink:href="#TimesNewRomanPSMT-20" transform="translate(109.200677 0.582813)"/>
      <use xlink:href="#TimesNewRomanPSMT-3d" transform="translate(134.200677 0.582813)"/>
      <use xlink:href="#TimesNewRomanPSMT-20" transform="translate(190.597161 0.582813)"/>
      <use xlink:href="#TimesNewRomanPSMT-2d" transform="translate(215.597161 0.582813)"/>
      <use xlink:href="#TimesNewRomanPSMT-20" transform="translate(248.897943 0.582813)"/>
      <use xlink:href="#TimesNewRomanPSMT-32" transform="translate(273.897943 0.582813)"/>
      <use xlink:href="#TimesNewRomanPSMT-20" transform="translate(323.897943 0.582813)"/>
      <use xlink:href="#TimesNewRomanPSMT-6d" transform="translate(348.897943 0.582813)"/>
      <use xlink:href="#TimesNewRomanPSMT-32" transform="translate(428.183958 60.695312) scale(0.7)"/>
      <use xlink:href="#TimesNewRomanPSMT-2f" transform="translate(467.477708 0.582813)"/>
      <use xlink:href="#TimesNewRomanPSMT-73" transform="translate(495.260911 0.582813)"/>
     </g>
    </g>
    <g id="line2d_34">
     <path d="M 327.562613 209.5 
L 337.562613 209.5 
L 347.562613 209.5 
" style="fill: none; stroke: #17becf; stroke-width: 1.5; stroke-linecap: square"/>
    </g>
    <g id="text_26">
     <!-- $a_{i}^k$ = - 1 $\mathregular{m^2}$/s -->
     <g transform="translate(355.562613 213) scale(0.1 -0.1)">
      <use xlink:href="#DejaVuSans-Oblique-61" transform="translate(0 0.582813)"/>
      <use xlink:href="#DejaVuSans-Oblique-6b" transform="translate(65.929193 38.928125) scale(0.7)"/>
      <use xlink:href="#DejaVuSans-Oblique-69" transform="translate(61.279297 -26.760937) scale(0.7)"/>
      <use xlink:href="#TimesNewRomanPSMT-20" transform="translate(109.200677 0.582813)"/>
      <use xlink:href="#TimesNewRomanPSMT-3d" transform="translate(134.200677 0.582813)"/>
      <use xlink:href="#TimesNewRomanPSMT-20" transform="translate(190.597161 0.582813)"/>
      <use xlink:href="#TimesNewRomanPSMT-2d" transform="translate(215.597161 0.582813)"/>
      <use xlink:href="#TimesNewRomanPSMT-20" transform="translate(248.897943 0.582813)"/>
      <use xlink:href="#TimesNewRomanPSMT-31" transform="translate(273.897943 0.582813)"/>
      <use xlink:href="#TimesNewRomanPSMT-20" transform="translate(323.897943 0.582813)"/>
      <use xlink:href="#TimesNewRomanPSMT-6d" transform="translate(348.897943 0.582813)"/>
      <use xlink:href="#TimesNewRomanPSMT-32" transform="translate(428.183958 60.695312) scale(0.7)"/>
      <use xlink:href="#TimesNewRomanPSMT-2f" transform="translate(467.477708 0.582813)"/>
      <use xlink:href="#TimesNewRomanPSMT-73" transform="translate(495.260911 0.582813)"/>
     </g>
    </g>
    <g id="line2d_35">
     <path d="M 327.562613 228.1 
L 337.562613 228.1 
L 347.562613 228.1 
" style="fill: none; stroke: #1f77b4; stroke-width: 1.5; stroke-linecap: square"/>
    </g>
    <g id="text_27">
     <!-- $a_{i}^k$ =  0 $\mathregular{m^2}$/s -->
     <g transform="translate(355.562613 231.6) scale(0.1 -0.1)">
      <use xlink:href="#DejaVuSans-Oblique-61" transform="translate(0 0.582813)"/>
      <use xlink:href="#DejaVuSans-Oblique-6b" transform="translate(65.929193 38.928125) scale(0.7)"/>
      <use xlink:href="#DejaVuSans-Oblique-69" transform="translate(61.279297 -26.760937) scale(0.7)"/>
      <use xlink:href="#TimesNewRomanPSMT-20" transform="translate(109.200677 0.582813)"/>
      <use xlink:href="#TimesNewRomanPSMT-3d" transform="translate(134.200677 0.582813)"/>
      <use xlink:href="#TimesNewRomanPSMT-20" transform="translate(190.597161 0.582813)"/>
      <use xlink:href="#TimesNewRomanPSMT-20" transform="translate(215.597161 0.582813)"/>
      <use xlink:href="#TimesNewRomanPSMT-30" transform="translate(240.597161 0.582813)"/>
      <use xlink:href="#TimesNewRomanPSMT-20" transform="translate(290.597161 0.582813)"/>
      <use xlink:href="#TimesNewRomanPSMT-6d" transform="translate(315.597161 0.582813)"/>
      <use xlink:href="#TimesNewRomanPSMT-32" transform="translate(394.883177 60.695312) scale(0.7)"/>
      <use xlink:href="#TimesNewRomanPSMT-2f" transform="translate(434.176927 0.582813)"/>
      <use xlink:href="#TimesNewRomanPSMT-73" transform="translate(461.96013 0.582813)"/>
     </g>
    </g>
   </g>
  </g>
 </g>
 <defs>
  <clipPath id="pd3d18c12a3">
   <rect x="50.2375" y="25.8" width="263.063836" height="208.81625"/>
  </clipPath>
 </defs>
</svg>
